<?xml version="1.0" standalone="no"?>
<!DOCTYPE svg PUBLIC "-//W3C//DTD SVG 1.1//EN" "http://www.w3.org/Graphics/SVG/1.1/DTD/svg11.dtd" >
<svg xmlns="http://www.w3.org/2000/svg" xmlns:xlink="http://www.w3.org/1999/xlink" version="1.1">
<metadata></metadata>
<defs>
<font id="modern_hbold" horiz-adv-x="1884" >
<font-face units-per-em="2048" ascent="1638" descent="-410" />
<missing-glyph horiz-adv-x="614" />
<glyph horiz-adv-x="0" />
<glyph horiz-adv-x="0" />
<glyph unicode="&#xd;" horiz-adv-x="614" />
<glyph unicode=" "  horiz-adv-x="614" />
<glyph unicode="&#x09;" horiz-adv-x="614" />
<glyph unicode="&#xa0;" horiz-adv-x="614" />
<glyph unicode="!" horiz-adv-x="710" d="M217 1516h277l-37 -1080h-207zM221 -61v260h260v-260h-260z" />
<glyph unicode="&#x22;" horiz-adv-x="927" d="M147 1538h246l-26 -555h-86q-53 0 -80 30.5t-29 71.5zM510 1538h246l-27 -555h-84q-57 0 -82.5 32t-27.5 72z" />
<glyph unicode="#" horiz-adv-x="1425" d="M57 350v189h246l59 372h-196v191h227l64 393h239l-63 -393h282l64 393h240l-64 -393h211v-103q0 -51 -21.5 -69.5t-74.5 -18.5h-146l-59 -372h195v-103q0 -51 -21.5 -68.5t-75.5 -17.5h-129l-55 -344q-8 -45 -36 -70.5t-69 -25.5h-147l70 440h-285l-55 -344 q-6 -45 -35 -70.5t-70 -25.5h-147l69 440h-217zM543 539h282l60 372h-283z" />
<glyph unicode="$" horiz-adv-x="1095" d="M82 0v84q0 53 29.5 79.5t111.5 26.5h228v453l-97 43q-139 61 -203.5 153.5t-64.5 215.5q0 145 87 236t278 110v155h215v-151h292v-84q0 -74 -33.5 -91.5t-105.5 -17.5h-153v-442l51 -25q88 -41 145.5 -82.5t92 -87t49 -97.5t14.5 -113q0 -90 -28.5 -154t-78 -104.5 t-113 -64.5t-132.5 -34v-158h-134q-47 0 -64 25t-17 78v47h-369zM322 1055q0 -68 34.5 -109t94.5 -74v330q-53 -12 -91 -44.5t-38 -102.5zM666 207q61 20 88.5 59t27.5 96q0 47 -21.5 91.5t-94.5 89.5v-336z" />
<glyph unicode="%" horiz-adv-x="1777" d="M74 1090q0 168 88 261t258 93q166 0 257 -93.5t91 -260.5q0 -164 -90 -258.5t-258 -94.5q-170 0 -258 90.5t-88 262.5zM307 1090q0 -66 21.5 -114t91.5 -48q35 0 56.5 13t33.5 34.5t16 51.5t4 63q0 68 -20.5 115.5t-89.5 47.5q-70 0 -91.5 -47.5t-21.5 -115.5zM410 -61 l708 1527h250l-676 -1454q-20 -43 -48 -58t-75 -15h-159zM1006 309q0 168 89 260.5t259 92.5q166 0 257 -92.5t91 -260.5q0 -170 -91 -261t-257 -91q-170 0 -259 90t-89 262zM1241 309q0 -68 21.5 -116t91.5 -48t90 48.5t20 115.5q0 66 -20.5 115t-89.5 49q-70 0 -91.5 -49 t-21.5 -115z" />
<glyph unicode="&#x26;" horiz-adv-x="1458" d="M76 322q0 74 21.5 132t54 104t72.5 81t77 59l113 76l-78 94q-25 29 -48.5 59.5t-42 66.5t-30.5 75t-12 86q0 70 24.5 132.5t75.5 108.5t131 72.5t189 26.5q98 0 174.5 -27.5t131 -74.5t83 -111.5t28.5 -138.5q0 -88 -45 -168t-125 -137l-145 -103l291 -336 q18 53 27.5 123t9.5 127l217 -24q-2 -119 -29 -222.5t-70 -177.5q57 -63 125 -143t123 -143h-276l-103 112q-86 -66 -188 -103.5t-260 -37.5q-139 0 -237.5 35t-160 92t-90 131t-28.5 154zM313 319q0 -102 78 -160.5t201 -58.5q90 0 171 29t136 80l-350 412 q-29 -18 -57.5 -40t-57.5 -42q-66 -47 -93.5 -99.5t-27.5 -120.5zM440 1151q-2 -43 19.5 -80t40.5 -59l96 -117l121 82q43 29 64.5 74t21.5 92q0 66 -48 113t-132 47q-86 0 -132.5 -41t-50.5 -111z" />
<glyph unicode="'" horiz-adv-x="626" d="M193 1538h245l-26 -555h-82q-55 0 -81 32t-30 72z" />
<glyph unicode="(" horiz-adv-x="815" d="M174 721q0 80 4 165t12 150q23 168 102 300t245 231l129 -140q-106 -63 -167 -166.5t-77 -230.5q-10 -63 -13 -146t-3 -163q0 -82 3 -161.5t13 -145.5q6 -57 26.5 -114.5t51 -110t72.5 -96.5t94 -75l-127 -143q-74 37 -134.5 94.5t-105.5 128t-72.5 150.5t-36.5 160 q-10 66 -13 148.5t-3 164.5z" />
<glyph unicode=")" horiz-adv-x="823" d="M152 18q51 31 93 75t72.5 96.5t51 110t26.5 114.5q10 66 13.5 145.5t3.5 161.5q0 80 -3 163t-14 146q-16 127 -76.5 230.5t-166.5 166.5l129 140q166 -98 244.5 -230.5t101.5 -300.5q8 -66 12 -150.5t4 -164.5q0 -82 -3 -165t-13 -148q-10 -80 -37 -160t-72 -150.5 t-105.5 -128t-133.5 -94.5z" />
<glyph unicode="*" horiz-adv-x="1198" d="M129 938l307 123l-301 145l129 209l256 -190l-28 315h243l-24 -315l262 192l114 -213l-292 -131l292 -135l-118 -209l-256 174l28 -299h-247l26 295l-262 -168z" />
<glyph unicode="+" horiz-adv-x="1236" d="M113 598v193h385v389h239v-389h389v-193h-389v-397h-239v397h-385z" />
<glyph unicode="," horiz-adv-x="565" d="M135 -266q53 29 86 72.5t33 95.5v37h-113v260h287v-242q0 -109 -53 -196t-156 -128z" />
<glyph unicode="-" horiz-adv-x="1144" d="M135 600v193h877v-193h-877z" />
<glyph unicode="." horiz-adv-x="559" d="M150 -61v260h258v-260h-258z" />
<glyph unicode="/" horiz-adv-x="1032" d="M117 -106l573 1644h240l-576 -1644h-237z" />
<glyph unicode="0" horiz-adv-x="1064" d="M66 707q0 188 18 334.5t70.5 248t144.5 153.5t231 52q143 0 236.5 -50t145 -150.5t68.5 -248t17 -339.5q0 -211 -22.5 -361.5t-76.5 -248t-145 -142.5t-223 -45q-135 0 -226 50t-144.5 149.5t-73.5 249t-20 348.5zM303 707q0 -137 6 -249t31 -192t70.5 -123t119.5 -43 q80 0 127.5 43t71 123t28.5 191.5t5 249.5q0 133 -5 242.5t-28.5 188.5t-71 122t-127.5 43q-74 0 -121 -43t-70.5 -122t-29.5 -188.5t-6 -242.5z" />
<glyph unicode="1" horiz-adv-x="1064" d="M229 1276v190h377q98 0 99 -90v-1437h-113q-66 0 -94.5 31.5t-28.5 101.5v1204h-240z" />
<glyph unicode="2" horiz-adv-x="1064" d="M78 78v207q0 90 36 152.5t105 109.5l387 262q82 57 105.5 116.5t23.5 145.5q0 106 -71.5 170t-200.5 64q-80 0 -163 -10.5t-194 -39.5v193q47 12 88.5 21.5t82 15.5t86 8t100.5 2q117 0 210 -28.5t160.5 -83t103.5 -133.5t36 -179q-2 -135 -52.5 -233.5t-166.5 -178.5 l-379 -256q-35 -25 -48.5 -58.5t-13.5 -72.5v-141h668v-78q0 -49 -26.5 -81.5t-102.5 -32.5h-619q-84 0 -119.5 27.5t-35.5 111.5z" />
<glyph unicode="3" horiz-adv-x="1064" d="M86 27q0 53 32 78.5t95 15.5q57 -8 101 -11.5t106 -3.5q72 0 132 14.5t103 46.5t66.5 85t23.5 133q0 74 -16 122t-50 75.5t-85 39t-119 11.5h-213q-45 0 -63.5 15.5t-18.5 56.5v120h295q135 0 185.5 61.5t50.5 205.5q0 98 -70 155.5t-186 57.5q-94 0 -173 -12.5 t-159 -32.5v188q88 23 172 35t162 12q102 0 192 -22.5t156.5 -71.5t104.5 -127t36 -187q-2 -248 -168 -348q98 -47 151.5 -138t53.5 -204q0 -131 -41 -224t-115.5 -152.5t-178 -86t-228.5 -24.5q-43 0 -79 2t-73 5t-79 9t-103 17v84z" />
<glyph unicode="4" horiz-adv-x="1064" d="M37 190v181l500 997q23 47 59.5 72.5t105.5 25.5h197v-1087h127v-90q0 -55 -27.5 -77t-76.5 -22h-23v-251h-111q-66 0 -92 31.5t-26 101.5v118h-633zM274 379h396v799z" />
<glyph unicode="5" horiz-adv-x="1064" d="M98 29q0 31 11.5 49t29 26.5t38 10.5t36.5 0q117 -10 221 -13q154 -4 226.5 84t72.5 240q0 47 -8 93t-33.5 83t-74 59.5t-125.5 22.5h-369v782h815v-92q0 -59 -33 -78.5t-82 -19.5h-463v-399h144q133 0 223 -33t144.5 -91.5t77 -142.5t22.5 -184q0 -248 -131 -382 t-402 -134q-59 0 -147 6t-193 25v88z" />
<glyph unicode="6" horiz-adv-x="1064" d="M76 328v567q0 123 26.5 227.5t87 181t160 119.5t246.5 43q82 0 157.5 -6t168.5 -16v-94q0 -33 -9.5 -50.5t-24 -26.5t-33.5 -10t-38 -1q-61 4 -114.5 7t-104.5 3q-104 0 -163.5 -38t-88.5 -93.5t-35 -116.5t-6 -106v-87q33 35 96.5 65t145.5 30q223 0 331.5 -108.5 t108.5 -301.5v-188q0 -207 -117.5 -312.5t-332.5 -105.5q-217 0 -339 104.5t-122 313.5zM305 352q0 -131 52.5 -188.5t179.5 -57.5q109 0 164 59.5t55 188.5v138q0 133 -54.5 184t-158.5 51q-117 0 -177.5 -51t-60.5 -178v-146z" />
<glyph unicode="7" horiz-adv-x="1064" d="M96 1276v190h791q37 0 64.5 -14t27.5 -61v-80q0 -29 -8 -54.5t-19 -54.5l-420 -1186q-10 -31 -34.5 -54t-73.5 -23h-154l478 1337h-652z" />
<glyph unicode="8" horiz-adv-x="1064" d="M43 356q0 88 16.5 153.5t44 112t65.5 79t83 57.5q-78 43 -126 124t-48 189q0 115 32.5 196t93 131t143.5 73.5t183 23.5t184.5 -24.5t145 -76t94 -131t33.5 -190.5q0 -47 -13 -96t-36 -92t-54.5 -78t-70.5 -53q106 -49 157.5 -149.5t51.5 -235.5q0 -102 -26.5 -186.5 t-85 -145t-151.5 -94t-224 -33.5q-227 0 -359.5 110.5t-132.5 335.5zM281 375q0 -129 65.5 -202t188.5 -73q72 0 119.5 23.5t76.5 61.5t41 87.5t12 100.5q0 68 -12 121t-42 90t-79 56t-121 19q-135 0 -192 -75.5t-57 -208.5zM315 1073q0 -121 56.5 -178t156.5 -57 q106 0 165 56t59 179q0 61 -17.5 104.5t-47.5 71t-69.5 41t-85.5 13.5q-100 0 -158.5 -55.5t-58.5 -174.5z" />
<glyph unicode="9" horiz-adv-x="1064" d="M76 889v188q0 207 117.5 312.5t332.5 105.5q217 0 339 -104.5t122 -313.5v-559q0 -123 -26.5 -228.5t-87 -184t-160 -122.5t-246.5 -44q-82 0 -158 6t-168 16v94q0 63 33 76.5t72 11.5q61 -4 114.5 -7t104.5 -3q104 0 163.5 39t88 96.5t35 119t6.5 108.5v77 q-33 -35 -96.5 -64.5t-145.5 -29.5q-223 0 -331.5 108.5t-108.5 301.5zM307 913q0 -133 54.5 -184t158.5 -51q117 0 177.5 51t60.5 178v146q0 131 -52.5 188t-179.5 57q-109 0 -164 -59t-55 -188v-138z" />
<glyph unicode=":" horiz-adv-x="559" d="M150 184v260h258v-260h-258zM150 963v262h258v-262h-258z" />
<glyph unicode=";" horiz-adv-x="565" d="M94 12l72 432h256l-191 -548h-73q-41 0 -57.5 26.5t-6.5 89.5zM150 963v262h258v-262h-258z" />
<glyph unicode="&#x3c;" horiz-adv-x="1024" d="M131 700l592 654l168 -140l-471 -514l467 -516l-164 -147z" />
<glyph unicode="=" horiz-adv-x="1200" d="M162 397v193h876v-193h-876zM162 856v193h876v-193h-876z" />
<glyph unicode="&#x3e;" horiz-adv-x="1024" d="M131 1214l168 140l592 -654l-592 -663l-164 147l467 516z" />
<glyph unicode="?" horiz-adv-x="1112" d="M88 1448q61 18 110.5 31.5t94.5 21.5t89 11.5t91 3.5q115 0 213 -28t171 -78t114 -124t41 -166q0 -246 -195 -385l-170 -121q-35 -25 -41 -56.5t-6 -80.5v-106h-235v110q0 92 17 155.5t75 102.5l180 123q74 51 105.5 119t31.5 133q0 96 -83 152.5t-214 56.5q-47 0 -90 -4 t-87 -12.5t-93 -20.5t-109 -31zM352 -61v260h258v-260h-258z" />
<glyph unicode="@" horiz-adv-x="1875" d="M74 702q0 182 56 340t169 274t279 181.5t387 65.5q205 0 360.5 -58.5t261 -162t158.5 -246t53 -310.5q0 -119 -36 -223t-101.5 -181t-161.5 -122t-215 -45h-412q-78 0 -140 20.5t-106 56.5t-69 86t-25 111v101q0 141 93.5 209.5t257.5 68.5q37 0 65.5 -1t52 -2t46 -3 t49.5 -4v55q0 43 -20.5 65.5t-82.5 22.5h-272q-72 0 -93.5 24t-21.5 75v94h416q174 0 242.5 -81t68.5 -220v-473q96 20 161 116.5t65 247.5q0 123 -34 230.5t-106.5 186.5t-185.5 124t-272 45q-164 0 -286 -53t-203 -145.5t-121 -214t-40 -259.5q0 -139 36 -254.5 t114 -199.5t198.5 -131t292.5 -47q74 0 177.5 14t207.5 49l33 -113q10 -35 -3 -55t-38 -31q-88 -27 -194.5 -42t-212.5 -15q-213 0 -373 61.5t-265.5 172t-157.5 262t-52 333.5zM772 506q0 -55 34 -76.5t105 -21.5h185v260q-53 6 -90.5 8t-94.5 2q-72 0 -105.5 -19.5 t-33.5 -74.5v-78z" />
<glyph unicode="A" horiz-adv-x="1368" d="M35 -61l512 1527h184q41 0 74 -24.5t43 -59.5l487 -1443h-243l-164 510q-27 -29 -72 -50.5t-102 -21.5h-334l-139 -438h-246zM483 575h400l-199 621z" />
<glyph unicode="B" horiz-adv-x="1318" d="M150 -61v1527h598q106 0 185 -27.5t131 -76.5t76.5 -115.5t24.5 -144.5v-96q0 -82 -39 -159t-108 -112q92 -37 140 -111.5t48 -166.5v-135q0 -102 -38 -175t-101 -119t-146 -67.5t-173 -21.5h-598zM387 131h358q115 0 168.5 59.5t53.5 141.5v96q0 41 -12.5 78t-38 64.5 t-67.5 44t-101 16.5h-361v-500zM387 825h363q53 0 87.5 17.5t54 44t28 60.5t8.5 67v78q0 74 -44 127t-134 53h-363v-447z" />
<glyph unicode="C" horiz-adv-x="1193" d="M125 340v731q0 184 123 289.5t346 105.5h506v-73q0 -25 -5 -47.5t-21.5 -39t-46.5 -25.5t-79 -9h-348q-236 0 -235 -228v-690q0 -43 12 -84t35.5 -71.5t59.5 -49t83 -18.5h565v-76q0 -47 -28.5 -81.5t-124.5 -34.5h-420q-92 0 -169 28.5t-133.5 80.5t-88 127t-31.5 165z " />
<glyph unicode="D" horiz-adv-x="1361" d="M152 -61v1527h565q131 0 228 -33.5t161.5 -93t95.5 -140.5t31 -175v-647q0 -94 -31 -175t-95.5 -139.5t-161.5 -91t-228 -32.5h-565zM389 131h328q129 0 203.5 65.5t74.5 180.5v647q0 123 -74.5 185.5t-203.5 62.5h-328v-1141z" />
<glyph unicode="E" horiz-adv-x="1232" d="M152 -61v1527h966v-69q0 -59 -24.5 -92t-106.5 -33h-596v-430h664v-74q0 -49 -23.5 -84t-105.5 -35h-535v-518h752v-74q0 -49 -24.5 -83.5t-104.5 -34.5h-862z" />
<glyph unicode="F" horiz-adv-x="1189" d="M152 68v1398h991v-71q0 -53 -28 -88t-111 -35h-613v-430h686v-74q0 -51 -29.5 -85t-113.5 -34h-543v-710h-108q-72 0 -101.5 28.5t-29.5 100.5z" />
<glyph unicode="G" horiz-adv-x="1376" d="M137 348v715q0 96 35 172t95.5 127t142.5 77.5t176 26.5h622v-71q0 -63 -30.5 -93t-114.5 -30h-477q-90 0 -149.5 -55.5t-59.5 -153.5v-717q0 -90 52 -152.5t157 -62.5h243q88 0 131.5 58.5t43.5 138.5v247q0 16 -10.5 28.5t-37.5 12.5h-163q-74 0 -108 21.5t-34 87.5v86 h416q96 0 136 -43t40 -129v-311q0 -98 -30.5 -171t-85 -122t-130 -72.5t-166.5 -23.5h-245q-98 0 -180 25.5t-142.5 76.5t-93.5 128t-33 179z" />
<glyph unicode="H" horiz-adv-x="1392" d="M152 63v1403h239v-622h604v622h240v-1527h-109q-70 0 -100.5 27.5t-30.5 96.5v642q-25 -29 -65.5 -41.5t-87.5 -12.5h-451v-712h-110q-70 0 -99.5 27.5t-29.5 96.5z" />
<glyph unicode="I" horiz-adv-x="577" d="M172 63v1403h242v-1527h-113q-70 0 -99.5 27.5t-29.5 96.5z" />
<glyph unicode="J" horiz-adv-x="872" d="M27 18q0 66 30.5 89.5t106.5 23.5h127q96 0 141 45t45 158v1132h242v-1132q0 -203 -100.5 -299t-327.5 -96h-264v79z" />
<glyph unicode="K" horiz-adv-x="1320" d="M152 66v1400h239v-1527h-112q-68 0 -97.5 29.5t-29.5 97.5zM436 727l559 739h291l-561 -737l588 -790h-191q-57 0 -90 17t-57 52z" />
<glyph unicode="L" horiz-adv-x="1122" d="M152 -61v1527h239v-1335h694v-74q0 -63 -26.5 -90.5t-97.5 -27.5h-809z" />
<glyph unicode="M" horiz-adv-x="1814" d="M158 51v1415h239l484 -915q8 -16 24.5 -16t24.5 16l483 915h240v-1527h-111q-68 0 -98.5 28.5t-30.5 93.5v953q-84 -152 -167 -308.5t-167 -308.5q-23 -41 -67.5 -76.5t-108.5 -35.5q-66 0 -107.5 34.5t-64.5 75.5l-334 619v-1075h-110q-129 0 -129 112z" />
<glyph unicode="N" horiz-adv-x="1386" d="M152 63v1403h639q111 0 193.5 -17t138 -63.5t83 -125t27.5 -201.5v-1120h-109q-68 0 -99.5 27.5t-31.5 96.5v998q0 123 -45 167t-157 44h-400v-1333h-110q-70 0 -99.5 27.5t-29.5 96.5z" />
<glyph unicode="O" horiz-adv-x="1437" d="M121 549v307q0 307 146.5 473t449.5 166q307 0 451.5 -166t144.5 -473v-309q0 -305 -144.5 -471t-451.5 -166q-303 0 -449.5 166t-146.5 473zM360 547q0 -432 341 -432h16h16q340 0 340 434v309q0 94 -18.5 176t-61.5 138.5t-104.5 88t-171.5 31.5q-109 0 -171.5 -31.5 t-106.5 -93t-61.5 -138.5t-17.5 -173v-309z" />
<glyph unicode="P" horiz-adv-x="1284" d="M150 63v1403h565q106 0 190 -20.5t142.5 -66.5t89 -119.5t30.5 -180.5v-192q0 -55 -12 -122t-57 -126t-136.5 -99t-246.5 -40h-326v-561h-106q-72 0 -102.5 27.5t-30.5 96.5zM389 696h326q213 0 213 191v192q0 86 -48.5 137.5t-164.5 51.5h-326v-572z" />
<glyph unicode="Q" horiz-adv-x="1458" d="M121 549v307q0 307 146.5 473t449.5 166q307 0 451.5 -166t144.5 -473v-309q0 -168 -42 -294t-132 -206l217 -283h-168q-59 0 -93 17.5t-55 44.5l-92 115q-102 -31 -231 -31q-303 0 -449.5 166t-146.5 473zM360 547q0 -432 341 -432h16h16q340 0 340 434v309 q0 104 -18.5 184t-63.5 138.5t-109.5 85t-164.5 26.5q-94 0 -163 -29.5t-113 -89t-62.5 -135t-18.5 -182.5v-309z" />
<glyph unicode="R" horiz-adv-x="1316" d="M150 63v1403h608q109 0 190.5 -26.5t136 -72.5t82 -110.5t27.5 -138.5v-162q0 -55 -14.5 -108t-44 -99.5t-76.5 -81t-113 -53.5q74 -166 156 -339t158 -336h-261l-294 647h-316v-647h-113q-68 0 -97 27.5t-29 96.5zM389 782h369q96 0 146 48.5t50 144.5v110 q0 86 -48 134.5t-148 48.5h-369v-486z" />
<glyph unicode="S" horiz-adv-x="1183" d="M82 18q0 59 29.5 86t109.5 27h346q139 0 211 52.5t72 154.5q0 72 -48 127t-167 108l-258 115q-150 66 -214.5 166t-64.5 229q0 86 29 156t88 121t150.5 78.5t218.5 27.5h458v-84q0 -68 -34.5 -89t-108.5 -21h-315q-47 0 -91 -9.5t-78 -31t-54.5 -57t-20.5 -91.5 q0 -80 43 -131t131 -92l246 -110q96 -43 159.5 -87.5t102.5 -93.5t54.5 -105t15.5 -124q0 -119 -46.5 -196.5t-121 -123t-166.5 -63.5t-185 -18h-491v79z" />
<glyph unicode="T" horiz-adv-x="1234" d="M37 1272v194h1167v-71q0 -66 -24.5 -94.5t-110.5 -28.5h-330v-1333h-110q-68 0 -98.5 27.5t-30.5 96.5v1209h-463z" />
<glyph unicode="U" horiz-adv-x="1400" d="M154 346v1120h239v-1122q0 -61 10.5 -102t34 -65.5t62.5 -35t96 -10.5h399v1335h240v-1527h-639q-111 0 -194 17t-138 63.5t-82.5 125t-27.5 201.5z" />
<glyph unicode="V" horiz-adv-x="1345" d="M27 1466h245l400 -1255q96 305 199.5 627.5t199.5 627.5h248l-510 -1527h-174q-53 0 -83 22.5t-44 63.5z" />
<glyph unicode="W" horiz-adv-x="1869" d="M29 1466h241l269 -1226l284 1095h236l282 -1093l271 1224h241l-360 -1527h-156q-135 0 -170 143l-227 893l-264 -1036h-148q-82 0 -119.5 33.5t-54.5 105.5z" />
<glyph unicode="X" horiz-adv-x="1374" d="M37 -61l512 766l-504 761h262l373 -559l373 559h266l-502 -761l510 -766h-270l-377 563l-373 -563h-270z" />
<glyph unicode="Y" horiz-adv-x="1398" d="M33 1466h262l401 -694l404 694h262l-551 -919v-608h-106q-70 0 -102 26.5t-32 97.5v480z" />
<glyph unicode="Z" horiz-adv-x="1282" d="M68 -61v188l825 1145h-801v194h1077v-182l-827 -1153h862v-117q0 -43 -23.5 -59t-64.5 -16h-1048z" />
<glyph unicode="[" horiz-adv-x="927" d="M272 -156v1774h506v-193h-268v-1390h268v-191h-506z" />
<glyph unicode="\" horiz-adv-x="1089" d="M123 1538h239l574 -1644h-238z" />
<glyph unicode="]" horiz-adv-x="927" d="M162 35h266v1390h-266v193h504v-1774h-504v191z" />
<glyph unicode="^" horiz-adv-x="1286" d="M190 1186l351 485h211l348 -485h-256l-199 280l-196 -280h-259z" />
<glyph unicode="_" horiz-adv-x="1257" d="M211 -100h844v-193h-844v193z" />
<glyph unicode="`" horiz-adv-x="677" d="M127 1608l225 106l215 -510l-71 -33q-51 -23 -87 -7t-59 55z" />
<glyph unicode="a" horiz-adv-x="1114" d="M113 246v125q0 175 101 253q96 74 261 74h17q76 -2 132 -5.5t119 -10.5v68q0 57 -32.5 90.5t-104.5 33.5h-266q-47 0 -77 8.5t-45 24t-20 35t-5 43.5v80h413q197 0 286 -81t89 -234v-811h-489q-176 0 -277.5 76.5t-101.5 230.5zM350 254q0 -37 13.5 -61.5t35 -38 t47 -18.5t48.5 -5h249v352q-72 8 -134 11.5t-115 3.5q-74 0 -109 -31t-35 -105v-108z" />
<glyph unicode="b" horiz-adv-x="1136" d="M154 -61v1538h237v-412h199q209 0 317.5 -91t108.5 -274v-395q0 -186 -108.5 -276t-317.5 -90h-436zM391 131h199q86 0 138 47t52 146v356q0 100 -52 147t-136 47h-201v-743z" />
<glyph unicode="c" horiz-adv-x="1034" d="M127 319v361q0 90 31.5 161.5t88 121t134.5 76t170 26.5h391v-70q0 -25 -4 -46t-18.5 -38.5t-42 -27t-76.5 -9.5h-250q-186 0 -186 -194v-358q0 -86 47 -138.5t139 -52.5h401v-76q0 -25 -5 -45t-20.5 -36.5t-44 -25.5t-77.5 -9h-254q-92 0 -170 25.5t-134.5 74.5 t-88 119.5t-31.5 160.5z" />
<glyph unicode="d" horiz-adv-x="1132" d="M119 305v395q0 182 108.5 273.5t317.5 91.5h200v412h238v-1538h-438q-209 0 -317.5 90t-108.5 276zM356 324q0 -98 51.5 -145.5t137.5 -47.5h200v743h-202q-84 0 -135.5 -47t-51.5 -147v-356z" />
<glyph unicode="e" horiz-adv-x="1124" d="M113 305v381q0 109 35.5 186.5t96 127t141.5 72t171 22.5q98 0 181 -25t143.5 -71t94.5 -115.5t34 -157.5v-147q0 -74 -43 -123t-136 -49h-481v-101q0 -84 48 -129t114 -45h459v-82q0 -25 -4 -45t-19.5 -34.5t-44.5 -22.5t-78 -8h-313q-182 0 -290.5 98t-108.5 268z M350 598h389q14 0 24.5 11.5t10.5 29.5v86q0 80 -55 128t-162 48q-94 0 -150.5 -48t-56.5 -128v-127z" />
<glyph unicode="f" horiz-adv-x="894" d="M57 874v191h209v125q0 66 12.5 119t46 90t91 57.5t147.5 20.5h275v-66q0 -125 -150 -125h-125q-39 0 -49 -27.5t-10 -54.5v-139h293v-88q0 -29 -12.5 -48.5t-32 -31.5t-44 -17.5t-46.5 -5.5h-158v-935h-109q-68 0 -98.5 27.5t-30.5 99.5v808h-209z" />
<glyph unicode="g" horiz-adv-x="1148" d="M123 303v399q0 180 111.5 271.5t297.5 91.5h474v-1247q0 -55 -16.5 -110.5t-55.5 -99.5t-105.5 -70.5t-166.5 -26.5h-445v81q0 59 34 85t105 26h299q59 0 87 33t28 86v117h-238q-193 0 -301 92t-108 272zM360 303q0 -53 16.5 -87t42 -52.5t56.5 -25.5t57 -7h238v743h-238 q-88 0 -130 -50t-42 -124v-397z" />
<glyph unicode="h" horiz-adv-x="1175" d="M152 66v1411h237v-412h266q385 0 385 -344v-782h-106q-68 0 -99.5 27.5t-31.5 99.5v653q0 84 -40 119.5t-108 35.5h-266v-935h-108q-70 0 -99.5 27.5t-29.5 99.5z" />
<glyph unicode="i" horiz-adv-x="546" d="M147 1360v135h246v-274h-90q-63 0 -109.5 35.5t-46.5 103.5zM152 66v999h237v-1126h-106q-72 0 -101.5 27.5t-29.5 99.5z" />
<glyph unicode="j" horiz-adv-x="669" d="M-23 -410q0 57 35 86t92 29h50q63 0 94 36t31 101v1223h237v-1223q0 -174 -95 -252.5t-267 -78.5h-177v79zM274 1360v135h246v-274h-90q-66 0 -111 35.5t-45 103.5z" />
<glyph unicode="k" horiz-adv-x="1175" d="M154 66v1411h237v-1538h-106q-72 0 -101.5 27.5t-29.5 99.5zM432 543l428 522h277l-437 -524l459 -602h-184q-39 0 -74 16t-57 47z" />
<glyph unicode="l" horiz-adv-x="550" d="M150 66v1411h237v-1538h-108q-68 0 -98.5 27.5t-30.5 99.5z" />
<glyph unicode="m" horiz-adv-x="1576" d="M141 66v999h932q190 0 275.5 -78t85.5 -246v-802h-111q-68 0 -97.5 27.5t-29.5 99.5v675q0 133 -123 133h-168v-935h-106q-70 0 -100.5 27.5t-30.5 99.5v808h-289v-935h-111q-68 0 -97.5 27.5t-29.5 99.5z" />
<glyph unicode="n" horiz-adv-x="1169" d="M143 66v999h494q109 0 183.5 -19.5t120.5 -62.5t65.5 -111.5t19.5 -164.5v-768h-108q-68 0 -99 27.5t-31 99.5v641q0 98 -32.5 132.5t-118.5 34.5h-256v-935h-105q-72 0 -102.5 27.5t-30.5 99.5z" />
<glyph unicode="o" horiz-adv-x="1175" d="M123 360v285q0 233 120 341t343 108q225 0 344 -107.5t119 -341.5v-285q0 -233 -117 -341.5t-346 -108.5q-223 0 -343 106.5t-120 343.5zM360 360q0 -137 56.5 -198.5t169.5 -61.5t169 58.5t56 201.5v285q0 63 -8 107.5t-36 78t-69 52t-112 18.5q-113 0 -169.5 -56.5 t-56.5 -189.5v-295z" />
<glyph unicode="p" horiz-adv-x="1132" d="M141 -330v1395h447q418 0 418 -381v-367q0 -199 -109 -288.5t-309 -89.5h-209v-398h-109q-70 0 -99.5 29t-29.5 100zM379 131h209q180 0 180 186v367q0 92 -44 141t-136 49h-209v-743z" />
<glyph unicode="q" horiz-adv-x="1128" d="M127 317v367q0 381 418 381h446v-1524h-106q-72 0 -101.5 29t-29.5 100v269h-209q-203 0 -310.5 90t-107.5 288zM365 317q0 -186 180 -186h209v743h-209q-92 0 -136 -49t-44 -141v-367z" />
<glyph unicode="r" horiz-adv-x="856" d="M137 66v710q0 139 71 214t236 75h373v-59q0 -76 -46 -104t-116 -28h-211q-41 0 -55 -28.5t-14 -69.5v-837h-109q-68 0 -98.5 27.5t-30.5 99.5z" />
<glyph unicode="s" horiz-adv-x="970" d="M98 756q0 53 21.5 108.5t67.5 99.5t117 72.5t171 28.5h361v-82q0 -59 -35 -84t-113 -25h-213q-76 0 -107.5 -35.5t-31.5 -82.5q0 -39 22.5 -73t77.5 -50l189 -62q145 -45 203.5 -122.5t58.5 -188.5q0 -154 -105.5 -237.5t-289.5 -83.5h-388v75q0 117 140 117h248 q70 0 113.5 32t43.5 97q0 45 -21.5 77t-74.5 48l-180 59q-137 47 -206 118t-69 194z" />
<glyph unicode="t" horiz-adv-x="751" d="M29 874v191h178v369h237v-369h254v-78q0 -49 -28.5 -81t-122.5 -32h-103v-622q0 -68 27 -94.5t74 -26.5h170v-78q0 -47 -31 -80.5t-117 -33.5h-51q-170 0 -239.5 79.5t-69.5 233.5v622h-178z" />
<glyph unicode="u" horiz-adv-x="1150" d="M133 348v717h236v-717q0 -68 10 -109.5t31.5 -66.5t56.5 -33t86 -8h219v934h238v-1126h-457q-109 0 -187.5 20.5t-131 68.5t-77 125.5t-24.5 194.5z" />
<glyph unicode="v" horiz-adv-x="1060" d="M23 1065h229l280 -866l275 866h223l-373 -1126h-157q-55 0 -86 23.5t-49 76.5z" />
<glyph unicode="w" horiz-adv-x="1507" d="M10 1065h221l193 -844l221 799h213l219 -797l195 842h221l-289 -1126h-129q-57 0 -92 30.5t-49 83.5l-182 670l-217 -784h-121q-78 0 -104.5 31.5t-41.5 88.5z" />
<glyph unicode="x" horiz-adv-x="1159" d="M31 -61l409 565l-397 561h258l270 -387l271 387h266l-399 -561l411 -565h-260l-280 397l-283 -397h-266z" />
<glyph unicode="y" horiz-adv-x="1150" d="M131 305v760h238v-758q0 -88 27 -132q25 -42 95 -42h7q78 2 143.5 7t130.5 12v913h238v-1245q0 -66 -20.5 -122t-63.5 -98t-112 -65.5t-165 -23.5h-467v81q0 66 32 92.5t112 26.5h323q72 0 97.5 30t25.5 81v133q-68 -6 -132.5 -9t-147.5 -7h-21q-172 0 -253 92 q-87 98 -87 274z" />
<glyph unicode="z" horiz-adv-x="1034" d="M74 -61v180l577 755h-551v191h822v-180l-580 -754h604v-106q0 -86 -94 -86h-778z" />
<glyph unicode="{" horiz-adv-x="925" d="M203 637v182q72 2 120 24.5t48 84.5v418q0 135 67.5 204.5t200.5 69.5h154v-180q-96 -2 -145.5 -21.5t-49.5 -75.5v-403q0 -82 -22.5 -133t-63.5 -84q45 -37 65.5 -87t20.5 -122v-389q0 -61 43 -78.5t152 -17.5v-179h-162q-135 0 -197.5 67t-62.5 198v411q0 57 -49.5 82 t-118.5 29z" />
<glyph unicode="|" horiz-adv-x="716" d="M262 -106v1677h219v-1677h-219z" />
<glyph unicode="}" horiz-adv-x="925" d="M154 29q109 0 151.5 17t42.5 79v389q0 72 20.5 122t65.5 87q-41 33 -63.5 84t-22.5 133v403q0 55 -49 75t-145 22v180h153q133 0 200.5 -69.5t67.5 -204.5v-418q0 -61 48.5 -84t119.5 -25v-182q-70 -4 -119 -28.5t-49 -82.5v-411q0 -131 -62 -198t-198 -67h-161v179z" />
<glyph unicode="~" horiz-adv-x="1486" d="M127 518q6 180 104.5 291t276.5 111q57 0 105.5 -13.5t89 -38t78.5 -61.5t77 -82q33 -39 68 -61.5t73 -22.5q68 0 113 48t49 161h219q0 -84 -21.5 -156.5t-67.5 -127t-116.5 -86t-170.5 -31.5q-111 0 -189 45t-141 124q-47 57 -87 83t-75 26q-72 0 -116 -52t-44 -157 h-225z" />
<glyph unicode="&#xa1;" horiz-adv-x="710" d="M217 -111l33 1080h207l37 -1080h-277zM221 1206v260h260v-260h-260z" />
<glyph unicode="&#xa2;" horiz-adv-x="1032" d="M129 319v361q0 88 32 158.5t88 121t134 78t170 27.5h92l64 248h221l-66 -248h80v-70q0 -25 -4 -45t-17.5 -36.5t-39 -26.5t-68.5 -13l-192 -743h329v-76q0 -25 -5 -45t-20.5 -36.5t-44 -25.5t-77.5 -9h-232l-59 -230h-219l67 264q-109 41 -171 129t-62 217zM367 322 q0 -90 49 -142l180 694h-43q-186 1 -186 -194v-358z" />
<glyph unicode="&#xa3;" horiz-adv-x="1169" d="M78 -61v192q70 23 110.5 98.5t40.5 163.5v199h-141v190h141v305q0 106 35 183.5t97.5 127.5t150.5 73.5t195 23.5q74 0 177 -16.5t195 -48.5l-10 -187q-59 18 -106.5 29.5t-90.5 18.5t-83.5 9.5t-86.5 2.5q-109 0 -173 -50.5t-64 -165.5v-305h303v-73q0 -25 -5 -45.5 t-20.5 -37t-44 -25.5t-77.5 -9h-156v-182q0 -76 -22.5 -154t-59.5 -125h723v-76q0 -25 -5 -45t-20.5 -36.5t-44 -25.5t-78.5 -9h-880z" />
<glyph unicode="&#xa4;" horiz-adv-x="1173" d="M66 195l120 120q-43 92 -43 228v63q0 129 41 223l-118 125l151 144l111 -115q104 59 270 59q150 0 254 -49l102 105l150 -144l-103 -104q25 -49 38.5 -109.5t13.5 -134.5v-63q0 -150 -52 -244l103 -104l-150 -144l-100 103q-104 -49 -256 -50q-168 0 -272 60l-109 -113z M373 543q0 -125 57 -190.5t168 -65.5q106 0 165.5 63.5t59.5 192.5v63q0 106 -52 180t-173 74q-106 0 -165.5 -64.5t-59.5 -189.5v-63z" />
<glyph unicode="&#xa5;" horiz-adv-x="1421" d="M47 1466h262l402 -694l403 694h262l-438 -731h264v-73q0 -25 -5 -45.5t-20.5 -37t-44 -25.5t-77.5 -9h-230v-152h377v-76q0 -25 -5 -45t-20.5 -36.5t-44 -25.5t-77.5 -9h-230v-262h-106q-70 0 -101.5 26.5t-31.5 97.5v138h-379v192h379v150l-2 2h-377v190h266z" />
<glyph unicode="&#xa6;" horiz-adv-x="544" d="M164 -61v577h217v-577h-217zM164 893v573h217v-573h-217z" />
<glyph unicode="&#xa7;" horiz-adv-x="970" d="M84 651q0 70 34 138.5t109 113.5q-143 88 -143 258q0 53 21.5 107.5t67.5 98.5t116.5 71.5t171.5 27.5h360v-82q0 -59 -34.5 -83.5t-110.5 -24.5h-215q-76 0 -107.5 -34t-31.5 -81q0 -39 22.5 -72.5t77.5 -50.5l176 -53q141 -43 207.5 -123t66.5 -188q0 -88 -35.5 -154.5 t-101.5 -107.5q137 -92 137 -246t-105 -241t-290 -87h-387v74q0 117 139 117h248q70 0 114 35.5t44 101.5q0 45 -21.5 71.5t-74.5 43.5l-177 59q-135 47 -206.5 117.5t-71.5 193.5zM322 651q0 -35 15 -64.5t56 -47.5h84q70 0 114 34.5t44 100.5q0 59 -41 94h-133 q-76 0 -107.5 -35t-31.5 -82z" />
<glyph unicode="&#xa8;" horiz-adv-x="765" d="M59 1190v244h248v-244h-248zM459 1190v244h248v-244h-248z" />
<glyph unicode="&#xa9;" horiz-adv-x="1777" d="M78 709q0 178 60.5 325.5t168 254t257 164.5t329.5 58q178 0 327.5 -58t257 -164.5t168 -254t60.5 -325.5t-60.5 -327t-168 -254t-257 -163.5t-327.5 -58.5q-180 0 -329.5 58.5t-257 163.5t-168 254t-60.5 327zM274 709q0 -139 44 -254t125 -197t195 -127t251 -45 q139 0 252.5 45t194.5 127t125 196.5t44 254.5q0 139 -44 252.5t-125 195.5t-194.5 126t-252.5 44q-137 0 -251 -44t-195 -126t-125 -195.5t-44 -252.5zM455 569v258q0 88 31.5 159t88 121t134 77.5t172.5 27.5h311v-71q0 -25 -4 -46.5t-18.5 -39t-43 -26.5t-75.5 -9h-170 q-92 0 -140.5 -49t-48.5 -144v-256q0 -86 48 -138t141 -52h319v-76q0 -25 -5 -45t-20.5 -36.5t-44 -26t-77.5 -9.5h-172q-94 0 -172 27t-134.5 76t-88 119.5t-31.5 158.5z" />
<glyph unicode="&#xaa;" horiz-adv-x="817" d="M94 909v78q0 127 71 179.5t193 52.5q27 0 64 -2.5t65 -6.5v33q0 53 -59 53h-164q-80 0 -100.5 27t-20.5 68v75h285q137 0 199.5 -56t62.5 -167v-551h-332q-123 0 -193.5 55.5t-70.5 161.5zM295 915q0 -31 21.5 -40t41.5 -9h129v168q-39 4 -69.5 6t-59.5 2q-63 0 -63 -59 v-68z" />
<glyph unicode="&#xab;" horiz-adv-x="1024" d="M84 526l317 551l177 -100l-261 -451l261 -450l-177 -101zM444 526l318 551l176 -100l-260 -451l260 -450l-176 -101z" />
<glyph unicode="&#xac;" horiz-adv-x="1300" d="M82 831v193h1098v-586h-238v393h-860z" />
<glyph unicode="&#xad;" horiz-adv-x="681" d="M35 485v195h612v-195h-612z" />
<glyph unicode="&#xae;" horiz-adv-x="1787" d="M78 709q0 178 60.5 325.5t168 254t257 164.5t329.5 58q178 0 327.5 -58t257 -164.5t168 -254t60.5 -325.5t-60.5 -327t-168 -254t-257 -163.5t-327.5 -58.5q-180 0 -329.5 58.5t-257 163.5t-168 254t-60.5 327zM274 709q0 -139 44 -254t125 -197t195 -127t251 -45 q203 0 350 94h-133l-197 410h-147v-410h-103q-55 0 -82.5 23.5t-27.5 85.5v917h412q160 0 238.5 -72.5t78.5 -183.5v-88q0 -35 -8 -70.5t-27.5 -69.5t-49.5 -61.5t-73 -42.5l191 -385q92 82 143 203t51 273q0 139 -44 252.5t-125 195.5t-194.5 126t-252.5 44 q-137 0 -251 -44t-195 -126t-125 -195.5t-44 -252.5zM762 772h199q102 0 102 102v54q0 96 -102 96h-199v-252z" />
<glyph unicode="&#xaf;" horiz-adv-x="1026" d="M-20 1444v194h1064v-194h-1064z" />
<glyph unicode="&#xb0;" horiz-adv-x="782" d="M98 1219q0 61 22.5 112t61.5 87t92.5 56.5t116.5 20.5q61 0 115.5 -20.5t93.5 -56.5t61.5 -87t22.5 -112t-22.5 -112.5t-61.5 -88.5t-93 -56.5t-116 -19.5q-63 0 -116.5 19.5t-92.5 56.5t-61.5 88.5t-22.5 112.5zM285 1219q0 -51 28.5 -80t75.5 -29t77 28.5t30 80.5 q0 49 -30 79.5t-77 30.5t-75.5 -30.5t-28.5 -79.5z" />
<glyph unicode="&#xb1;" horiz-adv-x="1265" d="M119 672v192h385v371h239v-371h390v-192h-390v-377h-239v377h-385zM137 -61v192h977v-192h-977z" />
<glyph unicode="&#xb2;" horiz-adv-x="681" d="M74 750v90q0 53 24.5 93t59.5 66l202 148q29 23 40.5 47.5t11.5 54.5q0 35 -31 57.5t-82 22.5q-37 0 -85 -7t-132 -24v166q57 14 108.5 22.5t112.5 8.5q59 0 113.5 -15.5t95.5 -46t65.5 -76.5t24.5 -106q0 -72 -32.5 -129t-86.5 -98l-200 -147q-18 -16 -19 -52v-16h344 v-74q0 -39 -19.5 -64.5t-78.5 -25.5h-320q-66 0 -91 20.5t-25 84.5z" />
<glyph unicode="&#xb3;" horiz-adv-x="681" d="M68 649v72q0 43 26.5 66.5t79.5 15.5q25 -4 58.5 -6t62.5 -2q59 0 92 19.5t33 78.5q0 53 -32 75.5t-85 22.5h-115q-41 0 -58 14.5t-17 55.5v96h190q49 0 73.5 22.5t24.5 75.5q0 35 -26.5 53.5t-71.5 18.5q-49 0 -102.5 -8t-118.5 -19l-4 162q59 14 113.5 23.5t113.5 9.5 q57 0 110.5 -13.5t93.5 -42t63.5 -74.5t23.5 -112q-2 -53 -29.5 -102t-62.5 -68q51 -25 79.5 -76t28.5 -108q0 -152 -87 -214t-230 -58q-27 0 -49.5 1t-49 4t-57 7t-71.5 10z" />
<glyph unicode="&#xb4;" horiz-adv-x="681" d="M135 1196l166 299h250l-176 -235q-27 -35 -56.5 -49.5t-82.5 -14.5h-101z" />
<glyph unicode="&#xb5;" horiz-adv-x="1169" d="M143 -334l2 1399h236v-743q0 -59 10 -96.5t32.5 -59t57.5 -28.5t84 -7h219v934h238v-1126h-457q-111 0 -184 20v-418h-107q-70 0 -100.5 26.5t-30.5 98.5z" />
<glyph unicode="&#xb6;" horiz-adv-x="1122" d="M59 1065q4 195 115 298t309 103h492v-1785h-94q-70 0 -100.5 27.5t-30.5 96.5v1469h-140v-1593h-92q-70 0 -100.5 27.5t-30.5 96.5v842q-61 10 -121.5 40t-107.5 82t-75 126t-24 170z" />
<glyph unicode="&#xb7;" horiz-adv-x="681" d="M211 594v262h260v-262h-260z" />
<glyph unicode="&#xb8;" horiz-adv-x="681" d="M104 -467l25 139q41 -8 78 -10t51 -2q66 0 88.5 14.5t22.5 40.5q0 8 -5.5 18.5t-21.5 17.5t-47 12.5t-84 5.5l57 190h195l-33 -106q82 -16 113.5 -53.5t31.5 -92.5q0 -92 -77.5 -144t-227.5 -52q-82 0 -166 22z" />
<glyph unicode="&#xb9;" horiz-adv-x="681" d="M184 1303v163h228q86 0 86 -77v-748h-95q-53 0 -75.5 23.5t-22.5 76.5v562h-121z" />
<glyph unicode="&#xba;" horiz-adv-x="782" d="M63 983v199q0 158 83 231.5t235 73.5q154 0 234.5 -74t80.5 -231v-199q0 -305 -315 -305q-152 0 -235 73.5t-83 231.5zM268 983q0 -66 29 -100.5t84 -34.5q53 0 83 35t30 100v199q0 55 -27 93t-86 38q-113 0 -113 -131v-199z" />
<glyph unicode="&#xbb;" horiz-adv-x="1024" d="M84 76l260 450l-260 451l176 100l318 -551l-318 -551zM444 76l261 450l-261 451l177 100l317 -551l-317 -551z" />
<glyph unicode="&#xbc;" horiz-adv-x="1638" d="M137 1303v163h228q86 0 86 -77v-748h-95q-53 0 -75.5 23.5t-22.5 76.5v562h-121zM238 -90l907 1556h233l-909 -1556h-231zM864 43v143l287 482q20 33 44 50t75 17h162v-530h71v-80q0 -43 -18.5 -60.5t-52.5 -21.5v-133h-95q-53 0 -74.5 25.5t-21.5 78.5v29h-377z M1069 205h172v282z" />
<glyph unicode="&#xbd;" horiz-adv-x="1638" d="M137 1303v163h228q86 0 86 -77v-748h-95q-53 0 -75.5 23.5t-22.5 76.5v562h-121zM164 -90l907 1556h234l-910 -1556h-231zM991 14v90q0 53 24.5 93.5t59.5 66.5l203 148q29 23 40 47t11 55q0 35 -30.5 57.5t-81.5 22.5q-37 0 -85.5 -7t-132.5 -24v166q57 14 108.5 22.5 t113.5 8.5q59 0 113.5 -15.5t95 -46t65.5 -77t25 -105.5q0 -72 -33 -129t-86 -98l-201 -148q-18 -16 -18 -51v-16h344v-74q0 -39 -19.5 -64.5t-79.5 -25.5h-319q-66 0 -91.5 20.5t-25.5 83.5z" />
<glyph unicode="&#xbe;" horiz-adv-x="1638" d="M92 649v72q0 43 26.5 66.5t80.5 15.5q25 -4 58.5 -6t61.5 -2q59 0 92 19.5t33 78.5q0 53 -31.5 75.5t-84.5 22.5h-115q-41 0 -58.5 14.5t-17.5 55.5v96h191q49 0 73.5 22.5t24.5 75.5q0 35 -26.5 53.5t-71.5 18.5q-49 0 -102.5 -8t-119.5 -19l-4 162q59 14 114 23.5 t114 9.5q57 0 110.5 -13.5t93 -42t63.5 -74.5t24 -112q-2 -53 -30 -102t-63 -68q51 -25 80 -76t29 -108q0 -152 -87 -214t-231 -58q-27 0 -49 1t-48.5 4t-57.5 7t-72 10zM289 -90l907 1556h234l-910 -1556h-231zM883 43v143l286 482q20 33 44 50t75 17h162v-530h72v-80 q0 -43 -18.5 -60.5t-53.5 -21.5v-133h-94q-53 0 -74.5 25.5t-21.5 78.5v29h-377zM1087 205h173v282z" />
<glyph unicode="&#xbf;" horiz-adv-x="1124" d="M88 285q0 246 195 385l170 121q35 25 41 56.5t6 80.5v106h235v-110q0 -92 -17.5 -155.5t-74.5 -102.5l-180 -123q-74 -51 -105.5 -119t-31.5 -133q0 -96 83 -152.5t214 -56.5q47 0 90 4t87 12t93 20.5t108 31.5l11 -193q-98 -35 -193.5 -51.5t-191.5 -16.5 q-115 0 -213.5 28t-171 78t-113.5 124t-41 166zM489 1206v260h259v-260h-259z" />
<glyph unicode="&#xc0;" horiz-adv-x="1368" d="M35 -61l512 1527h184q41 0 74 -24.5t43 -59.5l487 -1443h-243l-164 510q-27 -29 -72 -50.5t-102 -21.5h-334l-139 -438h-246zM467 1905h250l176 -299h-100q-53 0 -83 14t-57 49zM483 575h400l-199 621z" />
<glyph unicode="&#xc1;" horiz-adv-x="1368" d="M35 -61l512 1527h184q41 0 74 -24.5t43 -59.5l487 -1443h-243l-164 510q-27 -29 -72 -50.5t-102 -21.5h-334l-139 -438h-246zM475 1606l176 299h250l-186 -236q-29 -35 -57.5 -49t-82.5 -14h-100zM483 575h400l-199 621z" />
<glyph unicode="&#xc2;" horiz-adv-x="1368" d="M35 -61l512 1527h184q41 0 74 -24.5t43 -59.5l487 -1443h-243l-164 510q-27 -29 -72 -50.5t-102 -21.5h-334l-139 -438h-246zM328 1599l252 295h213l245 -295h-233l-119 164l-127 -164h-231zM483 575h400l-199 621z" />
<glyph unicode="&#xc3;" horiz-adv-x="1368" d="M35 -61l512 1527h184q41 0 74 -24.5t43 -59.5l487 -1443h-243l-164 510q-27 -29 -72 -50.5t-102 -21.5h-334l-139 -438h-246zM283 1587q0 133 72.5 205t183.5 72q51 0 97 -18.5t81 -37.5q29 -14 55.5 -27.5t48.5 -13.5q39 0 55.5 26t16.5 71h188q0 -125 -67.5 -200 t-182.5 -75q-57 0 -98 18.5t-80 39.5q-25 12 -50 26.5t-54 14.5q-33 0 -55.5 -24t-24.5 -77h-186zM483 575h400l-199 621z" />
<glyph unicode="&#xc4;" horiz-adv-x="1368" d="M35 -61l512 1527h184q41 0 74 -24.5t43 -59.5l487 -1443h-243l-164 510q-27 -29 -72 -50.5t-102 -21.5h-334l-139 -438h-246zM358 1599v244h248v-244h-248zM483 575h400l-199 621zM758 1599v244h248v-244h-248z" />
<glyph unicode="&#xc5;" horiz-adv-x="1368" d="M35 -61l512 1527h184q41 0 74 -24.5t43 -59.5l487 -1443h-243l-164 510q-27 -29 -72 -50.5t-102 -21.5h-334l-139 -438h-246zM451 1794q0 100 67.5 162.5t165.5 62.5q102 0 169 -62.5t67 -162.5t-67 -162.5t-169 -62.5q-98 0 -165.5 62.5t-67.5 162.5zM483 575h400 l-199 621zM600 1794q0 -37 24.5 -60.5t59.5 -23.5t60.5 23.5t25.5 60.5q0 35 -25.5 60.5t-60.5 25.5t-59.5 -25.5t-24.5 -60.5z" />
<glyph unicode="&#xc6;" horiz-adv-x="2070" d="M35 -61l676 1527h1274v-69q0 -59 -25 -92t-107 -33h-596v-430h664v-74q0 -49 -23.5 -84t-105.5 -35h-535v-518h752v-74q0 -49 -24.5 -83.5t-104.5 -34.5h-862v493q-29 -25 -69 -40t-91 -15h-371l-192 -438h-260zM575 575h443v697h-135z" />
<glyph unicode="&#xc7;" horiz-adv-x="1193" d="M125 340v731q0 184 123 289.5t346 105.5h506v-73q0 -25 -5 -47.5t-21.5 -39t-46.5 -25.5t-79 -9h-348q-236 0 -235 -228v-690q0 -43 12 -84t35.5 -71.5t59.5 -49t83 -18.5h565v-76q0 -47 -28.5 -81.5t-124.5 -34.5h-205l-27 -86q82 -16 114 -53.5t32 -92.5 q0 -92 -78 -144t-228 -52q-82 0 -165 22l24 139q41 -8 78 -10t51 -2q66 0 88.5 14.5t22.5 40.5q0 8 -5 18.5t-21.5 17.5t-47.5 12.5t-84 5.5l51 170h-20q-92 0 -169 28.5t-133.5 80.5t-88 127t-31.5 165z" />
<glyph unicode="&#xc8;" horiz-adv-x="1232" d="M152 -61v1527h966v-69q0 -59 -24.5 -92t-106.5 -33h-596v-430h664v-74q0 -49 -23.5 -84t-105.5 -35h-535v-518h752v-74q0 -49 -24.5 -83.5t-104.5 -34.5h-862zM401 1905h250l176 -299h-100q-53 0 -83 14t-56 49z" />
<glyph unicode="&#xc9;" horiz-adv-x="1232" d="M152 -61v1527h966v-69q0 -59 -24.5 -92t-106.5 -33h-596v-430h664v-74q0 -49 -23.5 -84t-105.5 -35h-535v-518h752v-74q0 -49 -24.5 -83.5t-104.5 -34.5h-862zM412 1606l176 299h250l-187 -236q-29 -35 -57.5 -49t-81.5 -14h-100z" />
<glyph unicode="&#xca;" horiz-adv-x="1232" d="M152 -61v1527h966v-69q0 -59 -24.5 -92t-106.5 -33h-596v-430h664v-74q0 -49 -23.5 -84t-105.5 -35h-535v-518h752v-74q0 -49 -24.5 -83.5t-104.5 -34.5h-862zM270 1599l252 295h213l246 -295h-233l-119 164l-127 -164h-232z" />
<glyph unicode="&#xcb;" horiz-adv-x="1232" d="M152 -61v1527h966v-69q0 -59 -24.5 -92t-106.5 -33h-596v-430h664v-74q0 -49 -23.5 -84t-105.5 -35h-535v-518h752v-74q0 -49 -24.5 -83.5t-104.5 -34.5h-862zM319 1599v244h248v-244h-248zM719 1599v244h248v-244h-248z" />
<glyph unicode="&#xcc;" horiz-adv-x="577" d="M66 1905h249l177 -299h-101q-53 0 -82.5 14t-56.5 49zM172 63v1403h242v-1527h-113q-70 0 -99.5 27.5t-29.5 96.5z" />
<glyph unicode="&#xcd;" horiz-adv-x="577" d="M76 1606l176 299h250l-187 -236q-29 -35 -57.5 -49t-81.5 -14h-100zM172 63v1403h242v-1527h-113q-70 0 -99.5 27.5t-29.5 96.5z" />
<glyph unicode="&#xce;" horiz-adv-x="577" d="M-66 1599l252 295h213l246 -295h-233l-119 164l-127 -164h-232zM172 63v1403h242v-1527h-113q-70 0 -99.5 27.5t-29.5 96.5z" />
<glyph unicode="&#xcf;" horiz-adv-x="577" d="M-35 1599v244h248v-244h-248zM172 63v1403h242v-1527h-113q-70 0 -99.5 27.5t-29.5 96.5zM365 1599v244h247v-244h-247z" />
<glyph unicode="&#xd0;" horiz-adv-x="1486" d="M63 608v195h193v663h586q127 0 220 -31.5t154.5 -89t91 -134t29.5 -167.5v-688q0 -90 -29.5 -166.5t-91 -132t-154.5 -87t-220 -31.5h-586v669h-193zM494 131h348q121 0 189.5 60.5t68.5 164.5v688q0 113 -68.5 170.5t-189.5 57.5h-348v-469h335v-76q0 -25 -5 -46.5 t-20.5 -37.5t-45 -25.5t-78.5 -9.5h-186v-477z" />
<glyph unicode="&#xd1;" horiz-adv-x="1386" d="M152 63v1403h639q111 0 193.5 -17t138 -63.5t83 -125t27.5 -201.5v-1120h-109q-68 0 -99.5 27.5t-31.5 96.5v998q0 123 -45 167t-157 44h-400v-1333h-110q-70 0 -99.5 27.5t-29.5 96.5zM283 1587q0 133 72.5 205t183.5 72q51 0 97 -18.5t81 -37.5q29 -14 55.5 -27.5 t48.5 -13.5q39 0 55.5 26t16.5 71h188q0 -125 -67.5 -200t-182.5 -75q-57 0 -98 18.5t-80 39.5q-25 12 -50 26.5t-54 14.5q-33 0 -55.5 -24t-24.5 -77h-186z" />
<glyph unicode="&#xd2;" horiz-adv-x="1437" d="M121 549v307q0 307 146.5 473t449.5 166q307 0 451.5 -166t144.5 -473v-309q0 -305 -144.5 -471t-451.5 -166q-303 0 -449.5 166t-146.5 473zM360 547q0 -432 357 -432q356 0 356 434v309q0 94 -21.5 174t-66.5 138.5t-111.5 90t-156.5 31.5q-88 0 -154.5 -31.5 t-111.5 -90t-68 -138.5t-23 -176v-309zM483 1905h250l176 -299h-100q-53 0 -83 14t-56 49z" />
<glyph unicode="&#xd3;" horiz-adv-x="1437" d="M121 549v307q0 307 146.5 473t449.5 166q307 0 451.5 -166t144.5 -473v-309q0 -305 -144.5 -471t-451.5 -166q-303 0 -449.5 166t-146.5 473zM360 547q0 -432 357 -432q356 0 356 434v309q0 94 -21.5 174t-66.5 138.5t-111.5 90t-156.5 31.5q-88 0 -154.5 -31.5 t-111.5 -90t-68 -138.5t-23 -176v-309zM494 1606l176 299h250l-187 -236q-29 -35 -57.5 -49t-81.5 -14h-100z" />
<glyph unicode="&#xd4;" horiz-adv-x="1437" d="M121 549v307q0 307 146.5 473t449.5 166q307 0 451.5 -166t144.5 -473v-309q0 -305 -144.5 -471t-451.5 -166q-303 0 -449.5 166t-146.5 473zM352 1599l252 295h213l246 -295h-234l-118 164l-127 -164h-232zM360 547q0 -432 357 -432q356 0 356 434v309q0 94 -21.5 174 t-66.5 138.5t-111.5 90t-156.5 31.5q-88 0 -154.5 -31.5t-111.5 -90t-68 -138.5t-23 -176v-309z" />
<glyph unicode="&#xd5;" horiz-adv-x="1437" d="M121 549v307q0 307 146.5 473t449.5 166q307 0 451.5 -166t144.5 -473v-309q0 -305 -144.5 -471t-451.5 -166q-303 0 -449.5 166t-146.5 473zM301 1587q0 133 72.5 205t183.5 72q51 0 97 -18.5t81 -37.5q29 -14 55.5 -27.5t49.5 -13.5q39 0 55 26t16 71h189 q0 -125 -67.5 -200t-182.5 -75q-57 0 -98 18.5t-80 39.5q-25 12 -50.5 26.5t-54.5 14.5q-33 0 -55.5 -24t-24.5 -77h-186zM360 547q0 -432 357 -432q356 0 356 434v309q0 94 -21.5 174t-66.5 138.5t-111.5 90t-156.5 31.5q-88 0 -154.5 -31.5t-111.5 -90t-68 -138.5 t-23 -176v-309z" />
<glyph unicode="&#xd6;" horiz-adv-x="1437" d="M121 549v307q0 307 146.5 473t449.5 166q307 0 451.5 -166t144.5 -473v-309q0 -305 -144.5 -471t-451.5 -166q-303 0 -449.5 166t-146.5 473zM360 547q0 -432 357 -432q356 0 356 434v309q0 94 -21.5 174t-66.5 138.5t-111.5 90t-156.5 31.5q-88 0 -154.5 -31.5 t-111.5 -90t-68 -138.5t-23 -176v-309zM403 1599v244h248v-244h-248zM803 1599v244h248v-244h-248z" />
<glyph unicode="&#xd7;" horiz-adv-x="1222" d="M162 991l147 142l303 -302l303 302l142 -144l-301 -303l303 -303l-144 -145l-303 303l-305 -303l-143 143l301 305z" />
<glyph unicode="&#xd8;" horiz-adv-x="1437" d="M123 549v307q0 307 146.5 473t449.5 166q113 0 196 -20l52 124h241l-90 -221q100 -80 148.5 -211t48.5 -311v-309q0 -305 -144.5 -471t-451.5 -166q-104 0 -195 22l-57 -141h-242l97 236q-102 80 -150.5 211t-48.5 311zM362 547q0 -176 58 -279l414 1008q-56 16 -115 16 q-88 0 -154.5 -31.5t-111.5 -90t-68 -138.5t-23 -176v-309zM604 127q51 -12 115 -12q356 0 356 434v309q0 160 -61 268z" />
<glyph unicode="&#xd9;" horiz-adv-x="1400" d="M154 346v1120h239v-1122q0 -61 10.5 -102t34 -65.5t62.5 -35t96 -10.5h399v1335h240v-1527h-639q-111 0 -194 17t-138 63.5t-82.5 125t-27.5 201.5zM487 1905h250l176 -299h-100q-53 0 -83 14t-56 49z" />
<glyph unicode="&#xda;" horiz-adv-x="1400" d="M154 346v1120h239v-1122q0 -61 10.5 -102t34 -65.5t62.5 -35t96 -10.5h399v1335h240v-1527h-639q-111 0 -194 17t-138 63.5t-82.5 125t-27.5 201.5zM498 1606l176 299h250l-187 -236q-29 -35 -57.5 -49t-81.5 -14h-100z" />
<glyph unicode="&#xdb;" horiz-adv-x="1400" d="M154 346v1120h239v-1122q0 -61 10.5 -102t34 -65.5t62.5 -35t96 -10.5h399v1335h240v-1527h-639q-111 0 -194 17t-138 63.5t-82.5 125t-27.5 201.5zM356 1599l252 295h213l246 -295h-233l-119 164l-127 -164h-232z" />
<glyph unicode="&#xdc;" horiz-adv-x="1400" d="M154 346v1120h239v-1122q0 -61 10.5 -102t34 -65.5t62.5 -35t96 -10.5h399v1335h240v-1527h-639q-111 0 -194 17t-138 63.5t-82.5 125t-27.5 201.5zM406 1599v244h247v-244h-247zM805 1599v244h248v-244h-248z" />
<glyph unicode="&#xdd;" horiz-adv-x="1398" d="M33 1466h262l401 -694l404 694h262l-551 -919v-608h-106q-70 0 -102 26.5t-32 97.5v480zM496 1606l176 299h250l-187 -236q-29 -35 -57.5 -49t-81.5 -14h-100z" />
<glyph unicode="&#xde;" horiz-adv-x="1269" d="M154 63v1403h237v-321h268q123 0 218.5 -20.5t161 -70.5t99 -134t33.5 -209t-30.5 -211t-93 -139.5t-155.5 -77t-216 -23.5h-285v-321h-104q-70 0 -101.5 26.5t-31.5 97.5zM391 453h289q76 0 125 17t77.5 50t41 80t12.5 105q0 74 -16.5 120.5t-49 74.5t-82 38t-112.5 10 h-285v-495z" />
<glyph unicode="&#xdf;" horiz-adv-x="1288" d="M154 63v977q0 127 29.5 214t87 140.5t141.5 77t192 23.5q94 0 171 -24.5t131.5 -65.5t83 -98.5t28.5 -120.5q0 -59 -10.5 -118.5t-57.5 -145.5q-20 -35 -33.5 -58.5t-21.5 -40t-12 -30t-4 -27.5q0 -23 26.5 -58.5t100.5 -95.5q63 -51 104 -97t65.5 -89t34 -84t9.5 -84 q0 -74 -28 -137.5t-78 -110.5t-124 -73.5t-166 -26.5q-117 0 -209 41t-153 139l162 139q76 -123 198 -123q66 0 107 44.5t41 105.5q0 47 -19.5 89t-85.5 95q-123 102 -178 167t-55 130q0 29 11 78t63 135q51 86 63 135.5t12 81.5q0 53 -48 98.5t-132 45.5q-47 0 -86 -13.5 t-67.5 -46t-44 -86t-15.5 -133.5v-1093h-104q-68 0 -98.5 26.5t-30.5 97.5z" />
<glyph unicode="&#xe0;" horiz-adv-x="1114" d="M113 246v125q0 176 101 253.5t278 73.5q76 -2 132 -5t119 -11v68q0 57 -32.5 90.5t-104.5 33.5h-266q-47 0 -77 8.5t-45 24t-20 35t-5 43.5v80h413q197 0 286 -81t89 -234v-811h-489q-176 0 -277.5 76.5t-101.5 230.5zM332 1495h250l176 -299h-101q-53 0 -82.5 14.5 t-56.5 49.5zM350 254q0 -37 13.5 -61.5t35 -38t47 -18.5t48.5 -5h249v352q-72 8 -134 11.5t-115 3.5q-74 0 -109 -31t-35 -105v-108z" />
<glyph unicode="&#xe1;" horiz-adv-x="1114" d="M113 246v125q0 176 101 253.5t278 73.5q76 -2 132 -5t119 -11v68q0 57 -32.5 90.5t-104.5 33.5h-266q-47 0 -77 8.5t-45 24t-20 35t-5 43.5v80h413q197 0 286 -81t89 -234v-811h-489q-176 0 -277.5 76.5t-101.5 230.5zM342 1196l176 299h250l-186 -235 q-29 -35 -57.5 -49.5t-82.5 -14.5h-100zM350 254q0 -37 13.5 -61.5t35 -38t47 -18.5t48.5 -5h249v352q-72 8 -134 11.5t-115 3.5q-74 0 -109 -31t-35 -105v-108z" />
<glyph unicode="&#xe2;" horiz-adv-x="1114" d="M113 246v125q0 176 101 253.5t278 73.5q76 -2 132 -5t119 -11v68q0 57 -32.5 90.5t-104.5 33.5h-266q-47 0 -77 8.5t-45 24t-20 35t-5 43.5v80h413q197 0 286 -81t89 -234v-811h-489q-176 0 -277.5 76.5t-101.5 230.5zM201 1190l252 295h213l245 -295h-233l-119 164 l-127 -164h-231zM350 254q0 -37 13.5 -61.5t35 -38t47 -18.5t48.5 -5h249v352q-72 8 -134 11.5t-115 3.5q-74 0 -109 -31t-35 -105v-108z" />
<glyph unicode="&#xe3;" horiz-adv-x="1114" d="M113 246v125q0 176 101 253.5t278 73.5q76 -2 132 -5t119 -11v68q0 57 -32.5 90.5t-104.5 33.5h-266q-47 0 -77 8.5t-45 24t-20 35t-5 43.5v80h413q197 0 286 -81t89 -234v-811h-489q-176 0 -277.5 76.5t-101.5 230.5zM150 1178q0 133 72.5 204.5t183.5 71.5 q51 0 97 -18.5t81 -36.5q29 -14 55.5 -27.5t48.5 -13.5q39 0 55.5 25.5t16.5 70.5h188q0 -125 -67.5 -199.5t-182.5 -74.5q-57 0 -98 18.5t-80 38.5q-25 12 -50.5 26.5t-53.5 14.5q-33 0 -55.5 -23.5t-24.5 -76.5h-186zM350 254q0 -37 13.5 -61.5t35 -38t47 -18.5t48.5 -5 h249v352q-72 8 -134 11.5t-115 3.5q-74 0 -109 -31t-35 -105v-108z" />
<glyph unicode="&#xe4;" horiz-adv-x="1114" d="M113 246v125q0 176 101 253.5t278 73.5q76 -2 132 -5t119 -11v68q0 57 -32.5 90.5t-104.5 33.5h-266q-47 0 -77 8.5t-45 24t-20 35t-5 43.5v80h413q197 0 286 -81t89 -234v-811h-489q-176 0 -277.5 76.5t-101.5 230.5zM252 1190v244h248v-244h-248zM350 254 q0 -37 13.5 -61.5t35 -38t47 -18.5t48.5 -5h249v352q-72 8 -134 11.5t-115 3.5q-74 0 -109 -31t-35 -105v-108zM651 1190v244h248v-244h-248z" />
<glyph unicode="&#xe5;" horiz-adv-x="1114" d="M113 246v125q0 176 101 253.5t278 73.5q76 -2 132 -5t119 -11v68q0 57 -32.5 90.5t-104.5 33.5h-266q-47 0 -77 8.5t-45 24t-20 35t-5 43.5v80h413q197 0 286 -81t89 -234v-811h-489q-176 0 -277.5 76.5t-101.5 230.5zM315 1384q0 100 68 163t166 63q102 0 168.5 -62.5 t66.5 -163.5q0 -100 -66.5 -162.5t-168.5 -62.5q-98 0 -166 62.5t-68 162.5zM350 254q0 -37 13.5 -61.5t35 -38t47 -18.5t48.5 -5h249v352q-72 8 -134 11.5t-115 3.5q-74 0 -109 -31t-35 -105v-108zM465 1384q0 -37 24.5 -60.5t59.5 -23.5t60.5 24t25.5 60q0 35 -25.5 60.5 t-60.5 25.5t-59.5 -25.5t-24.5 -60.5z" />
<glyph unicode="&#xe6;" horiz-adv-x="1751" d="M113 246v125q0 176 101 253.5t278 73.5q76 -2 132 -5t119 -11v70q0 57 -32.5 89.5t-104.5 32.5h-266q-47 0 -77 8.5t-45 24t-20 35t-5 43.5v80h413q98 0 161.5 -19.5t109.5 -62.5q53 53 134 82t177 29q98 0 181 -27t143.5 -77t94 -121.5t33.5 -161.5v-129 q0 -78 -38.5 -125t-135.5 -47h-485v-111q0 -78 48 -121t114 -43h459v-82q0 -25 -5.5 -45t-20.5 -34.5t-44 -22.5t-78 -8h-311q-92 0 -162 23.5t-107 68.5q-35 -45 -92 -68.5t-120 -23.5h-170q-176 0 -277.5 76.5t-101.5 230.5zM350 254q0 -37 13.5 -61.5t35 -38t47 -18.5 t48.5 -5h133q47 0 81.5 35t34.5 84v233q-72 8 -134 11.5t-115 3.5q-74 0 -109 -31t-35 -105v-108zM981 598h387q35 0 35 41v68q0 82 -54.5 138t-160.5 56q-94 0 -150.5 -54t-56.5 -134v-115z" />
<glyph unicode="&#xe7;" horiz-adv-x="1034" d="M127 319v361q0 90 31.5 161.5t88 121t134.5 76t170 26.5h391v-70q0 -25 -4 -46t-18.5 -38.5t-42 -27t-76.5 -9.5h-250q-186 0 -186 -194v-358q0 -86 47 -138.5t139 -52.5h401v-76q0 -25 -5 -45t-20.5 -36.5t-44 -25.5t-77.5 -9h-68l-26 -86q82 -16 113.5 -53.5 t31.5 -92.5q0 -92 -78 -144t-227 -52q-82 0 -166 22l25 139q41 -8 77.5 -10t51.5 -2q66 0 88 14.5t22 40.5q0 8 -5 18.5t-21.5 17.5t-47 12.5t-83.5 5.5l51 170q-92 2 -168 27.5t-131.5 74.5t-86 118.5t-30.5 159.5z" />
<glyph unicode="&#xe8;" horiz-adv-x="1124" d="M113 305v381q0 109 35.5 186.5t96 127t141.5 72t171 22.5q98 0 181 -25t143.5 -71t94.5 -115.5t34 -157.5v-147q0 -74 -43 -123t-136 -49h-481v-101q0 -84 48 -129t114 -45h459v-82q0 -25 -4 -45t-19.5 -34.5t-44.5 -22.5t-78 -8h-313q-182 0 -290.5 98t-108.5 268z M340 1495h250l176 -299h-100q-53 0 -83 14.5t-57 49.5zM350 598h389q14 0 24.5 11.5t10.5 29.5v86q0 80 -55 128t-162 48q-94 0 -150.5 -48t-56.5 -128v-127z" />
<glyph unicode="&#xe9;" horiz-adv-x="1124" d="M113 305v381q0 109 35.5 186.5t96 127t141.5 72t171 22.5q98 0 181 -25t143.5 -71t94.5 -115.5t34 -157.5v-147q0 -74 -43 -123t-136 -49h-481v-101q0 -84 48 -129t114 -45h459v-82q0 -25 -4 -45t-19.5 -34.5t-44.5 -22.5t-78 -8h-313q-182 0 -290.5 98t-108.5 268z M350 598h389q14 0 24.5 11.5t10.5 29.5v86q0 80 -55 128t-162 48q-94 0 -150.5 -48t-56.5 -128v-127zM371 1196l176 299h250l-187 -235q-29 -35 -57.5 -49.5t-81.5 -14.5h-100z" />
<glyph unicode="&#xea;" horiz-adv-x="1124" d="M113 305v381q0 109 35.5 186.5t96 127t141.5 72t171 22.5q98 0 181 -25t143.5 -71t94.5 -115.5t34 -157.5v-147q0 -74 -43 -123t-136 -49h-481v-101q0 -84 48 -129t114 -45h459v-82q0 -25 -4 -45t-19.5 -34.5t-44.5 -22.5t-78 -8h-313q-182 0 -290.5 98t-108.5 268z M209 1190l252 295h213l246 -295h-234l-119 164l-127 -164h-231zM350 598h389q14 0 24.5 11.5t10.5 29.5v86q0 80 -55 128t-162 48q-94 0 -150.5 -48t-56.5 -128v-127z" />
<glyph unicode="&#xeb;" horiz-adv-x="1124" d="M113 305v381q0 109 35.5 186.5t96 127t141.5 72t171 22.5q98 0 181 -25t143.5 -71t94.5 -115.5t34 -157.5v-147q0 -74 -43 -123t-136 -49h-481v-101q0 -84 48 -129t114 -45h459v-82q0 -25 -4 -45t-19.5 -34.5t-44.5 -22.5t-78 -8h-313q-182 0 -290.5 98t-108.5 268z M260 1190v244h248v-244h-248zM350 598h389q14 0 24.5 11.5t10.5 29.5v86q0 80 -55 128t-162 48q-94 0 -150.5 -48t-56.5 -128v-127zM659 1190v244h248v-244h-248z" />
<glyph unicode="&#xec;" horiz-adv-x="526" d="M39 1495h250l176 -299h-100q-53 0 -83 14.5t-57 49.5zM141 66v999h238v-1126h-107q-72 0 -101.5 27.5t-29.5 99.5z" />
<glyph unicode="&#xed;" horiz-adv-x="526" d="M39 1196l176 299h250l-186 -235q-29 -35 -57.5 -49.5t-82.5 -14.5h-100zM141 66v999h238v-1126h-107q-72 0 -101.5 27.5t-29.5 99.5z" />
<glyph unicode="&#xee;" horiz-adv-x="526" d="M-92 1190l252 295h213l245 -295h-233l-119 164l-127 -164h-231zM141 66v999h238v-1126h-107q-72 0 -101.5 27.5t-29.5 99.5z" />
<glyph unicode="&#xef;" horiz-adv-x="526" d="M-59 1190v244h247v-244h-247zM141 66v999h238v-1126h-107q-72 0 -101.5 27.5t-29.5 99.5zM340 1190v244h248v-244h-248z" />
<glyph unicode="&#xf0;" horiz-adv-x="1206" d="M125 330v252q0 190 118.5 304.5t348.5 114.5q78 0 147.5 -23.5t104.5 -53.5v51q0 29 -3 63.5t-13.5 70.5t-30 68.5t-49.5 59.5l-218 -190l-139 141l129 115q-43 0 -83 -4.5t-93 -4.5q-49 0 -82 13.5t-33 72.5v97q45 6 83 9t73 5t71 3t76 1q51 0 96.5 -5t86.5 -15l164 145 l139 -143l-107 -95q86 -72 124 -180t38 -248v-624q0 -209 -126 -314.5t-353 -103.5q-225 4 -347 107.5t-122 310.5zM356 356q0 -129 60.5 -187t177.5 -58q135 0 192.5 56t57.5 187v209q0 127 -61.5 184.5t-186.5 57.5q-111 0 -175.5 -57.5t-64.5 -192.5v-199z" />
<glyph unicode="&#xf1;" horiz-adv-x="1169" d="M143 66v999h494q109 0 183.5 -19.5t120.5 -62.5t65.5 -111.5t19.5 -164.5v-768h-108q-68 0 -99 27.5t-31 99.5v641q0 98 -32.5 132.5t-118.5 34.5h-256v-935h-105q-72 0 -102.5 27.5t-30.5 99.5zM154 1178q0 133 72.5 204.5t183.5 71.5q51 0 97 -18.5t81 -36.5 q29 -14 55.5 -27.5t48.5 -13.5q39 0 55.5 25.5t16.5 70.5h188q0 -125 -67.5 -199.5t-182.5 -74.5q-57 0 -98 18.5t-80 38.5q-25 12 -50 26.5t-54 14.5q-33 0 -55.5 -23.5t-24.5 -76.5h-186z" />
<glyph unicode="&#xf2;" horiz-adv-x="1175" d="M123 356v293q0 229 120 337t343 108q225 0 344 -107.5t119 -337.5v-293q0 -229 -117 -337.5t-346 -108.5q-223 0 -343 106.5t-120 339.5zM346 1495h250l176 -299h-100q-53 0 -83 14.5t-57 49.5zM360 356q0 -123 58.5 -189.5t167.5 -66.5t167 63.5t58 192.5v293 q0 51 -12.5 97.5t-40 81t-69.5 54t-103 19.5q-104 0 -165 -63.5t-61 -188.5v-293z" />
<glyph unicode="&#xf3;" horiz-adv-x="1175" d="M123 356v293q0 229 120 337t343 108q225 0 344 -107.5t119 -337.5v-293q0 -229 -117 -337.5t-346 -108.5q-223 0 -343 106.5t-120 339.5zM356 1196l176 299h250l-186 -235q-29 -35 -57.5 -49.5t-81.5 -14.5h-101zM360 356q0 -123 58.5 -189.5t167.5 -66.5t167 63.5 t58 192.5v293q0 51 -12.5 97.5t-40 81t-69.5 54t-103 19.5q-104 0 -165 -63.5t-61 -188.5v-293z" />
<glyph unicode="&#xf4;" horiz-adv-x="1175" d="M123 356v293q0 229 120 337t343 108q225 0 344 -107.5t119 -337.5v-293q0 -229 -117 -337.5t-346 -108.5q-223 0 -343 106.5t-120 339.5zM231 1190l252 295h213l246 -295h-233l-119 164l-127 -164h-232zM360 356q0 -123 58.5 -189.5t167.5 -66.5t167 63.5t58 192.5v293 q0 51 -12.5 97.5t-40 81t-69.5 54t-103 19.5q-104 0 -165 -63.5t-61 -188.5v-293z" />
<glyph unicode="&#xf5;" horiz-adv-x="1175" d="M123 356v293q0 229 120 337t343 108q225 0 344 -107.5t119 -337.5v-293q0 -229 -117 -337.5t-346 -108.5q-223 0 -343 106.5t-120 339.5zM184 1178q0 133 72.5 204.5t183.5 71.5q51 0 97.5 -18.5t80.5 -36.5q29 -14 55.5 -27.5t49.5 -13.5q39 0 55.5 25.5t16.5 70.5h188 q0 -125 -67.5 -199.5t-182.5 -74.5q-57 0 -98 18.5t-80 38.5q-25 12 -50.5 26.5t-53.5 14.5q-33 0 -55.5 -23.5t-24.5 -76.5h-187zM360 356q0 -123 58.5 -189.5t167.5 -66.5t167 63.5t58 192.5v293q0 51 -12.5 97.5t-40 81t-69.5 54t-103 19.5q-104 0 -165 -63.5t-61 -188.5 v-293z" />
<glyph unicode="&#xf6;" horiz-adv-x="1175" d="M123 356v293q0 229 120 337t343 108q225 0 344 -107.5t119 -337.5v-293q0 -229 -117 -337.5t-346 -108.5q-223 0 -343 106.5t-120 339.5zM266 1190v244h248v-244h-248zM360 356q0 -123 58.5 -189.5t167.5 -66.5t167 63.5t58 192.5v293q0 51 -12.5 97.5t-40 81t-69.5 54 t-103 19.5q-104 0 -165 -63.5t-61 -188.5v-293zM666 1190v244h247v-244h-247z" />
<glyph unicode="&#xf7;" horiz-adv-x="1038" d="M59 602v191h918v-191h-918zM383 205v260h258v-260h-258zM383 932v260h258v-260h-258z" />
<glyph unicode="&#xf8;" horiz-adv-x="1167" d="M123 356v293q0 229 120 337t343 108q61 0 108 -9l70 177h225l-96 -246q156 -109 156 -367v-293q0 -229 -117 -337.5t-346 -108.5q-35 0 -66 3t-59 7l-72 -184h-223l102 262q-145 106 -145 358zM360 356q0 -49 11 -96l250 639q-8 0 -16.5 1t-18.5 1q-104 0 -165 -63.5 t-61 -188.5v-293zM532 104q12 -4 25.5 -4h28.5q109 0 167 63.5t58 192.5v293q0 61 -18 115z" />
<glyph unicode="&#xf9;" horiz-adv-x="1150" d="M133 348v717h236v-717q0 -68 10 -109.5t31.5 -66.5t56.5 -33t86 -8h219v934h238v-1126h-457q-109 0 -187.5 20.5t-131 68.5t-77 125.5t-24.5 194.5zM346 1495h250l176 -299h-100q-53 0 -83 14.5t-57 49.5z" />
<glyph unicode="&#xfa;" horiz-adv-x="1150" d="M133 348v717h236v-717q0 -68 10 -109.5t31.5 -66.5t56.5 -33t86 -8h219v934h238v-1126h-457q-109 0 -187.5 20.5t-131 68.5t-77 125.5t-24.5 194.5zM356 1196l176 299h250l-186 -235q-29 -35 -57.5 -49.5t-81.5 -14.5h-101z" />
<glyph unicode="&#xfb;" horiz-adv-x="1150" d="M133 348v717h236v-717q0 -68 10 -109.5t31.5 -66.5t56.5 -33t86 -8h219v934h238v-1126h-457q-109 0 -187.5 20.5t-131 68.5t-77 125.5t-24.5 194.5zM215 1190l252 295h213l246 -295h-234l-119 164l-127 -164h-231z" />
<glyph unicode="&#xfc;" horiz-adv-x="1150" d="M133 348v717h236v-717q0 -68 10 -109.5t31.5 -66.5t56.5 -33t86 -8h219v934h238v-1126h-457q-109 0 -187.5 20.5t-131 68.5t-77 125.5t-24.5 194.5zM252 1190v244h248v-244h-248zM651 1190v244h248v-244h-248z" />
<glyph unicode="&#xfd;" horiz-adv-x="1150" d="M131 305v760h238v-758q0 -88 26.5 -132t102.5 -42q78 2 143.5 7t130.5 12v913h238v-1245q0 -66 -20.5 -122t-63.5 -98t-112 -65.5t-165 -23.5h-467v81q0 66 32 92.5t112 26.5h323q72 0 97.5 30t25.5 81v133q-68 -6 -132.5 -9t-147.5 -7q-188 -6 -274.5 92t-86.5 274z M338 1196l176 299h250l-186 -235q-29 -35 -57.5 -49.5t-82.5 -14.5h-100z" />
<glyph unicode="&#xfe;" horiz-adv-x="1124" d="M154 -362v1839h237v-412h199q209 0 317.5 -91t108.5 -274v-395q0 -186 -108.5 -276t-317.5 -90h-199v-428h-110q-66 0 -96.5 28.5t-30.5 98.5zM391 131h199q86 0 138 47t52 146v356q0 100 -52 147t-136 47h-201v-743z" />
<glyph unicode="&#xff;" horiz-adv-x="1150" d="M131 305v760h238v-758q0 -88 26.5 -132t102.5 -42q78 2 143.5 7t130.5 12v913h238v-1245q0 -66 -20.5 -122t-63.5 -98t-112 -65.5t-165 -23.5h-467v81q0 66 32 92.5t112 26.5h323q72 0 97.5 30t25.5 81v133q-68 -6 -132.5 -9t-147.5 -7q-188 -6 -274.5 92t-86.5 274z M246 1190v244h248v-244h-248zM645 1190v244h248v-244h-248z" />
<glyph unicode="&#x100;" horiz-adv-x="1368" d="M35 -61l512 1527h184q41 0 74 -24.5t43 -59.5l487 -1443h-243l-164 510q-27 -29 -72 -50.5t-102 -21.5h-334l-139 -438h-246zM334 1636v179h680v-179h-680zM483 575h400l-199 621z" />
<glyph unicode="&#x101;" horiz-adv-x="1114" d="M113 246v125q0 176 101 253.5t278 73.5q76 -2 132 -5t119 -11v68q0 57 -32.5 90.5t-104.5 33.5h-266q-47 0 -77 8.5t-45 24t-20 35t-5 43.5v80h413q197 0 286 -81t89 -234v-811h-489q-176 0 -277.5 76.5t-101.5 230.5zM207 1227v178h680v-178h-680zM350 254 q0 -37 13.5 -61.5t35 -38t47 -18.5t48.5 -5h249v352q-72 8 -134 11.5t-115 3.5q-74 0 -109 -31t-35 -105v-108z" />
<glyph unicode="&#x102;" horiz-adv-x="1368" d="M35 -61l512 1527h184q41 0 74 -24.5t43 -59.5l487 -1443h-243l-164 510q-27 -29 -72 -50.5t-102 -21.5h-334l-139 -438h-246zM354 1876h189q2 -37 15 -60.5t31.5 -38t41 -19.5t45.5 -5q20 0 42.5 5t41 18.5t32 38t15.5 61.5h188q-4 -135 -89 -211t-236 -76 q-141 0 -226.5 76t-89.5 211zM483 575h400l-199 621z" />
<glyph unicode="&#x103;" horiz-adv-x="1114" d="M113 246v125q0 176 101 253.5t278 73.5q76 -2 132 -5t119 -11v68q0 57 -32.5 90.5t-104.5 33.5h-266q-47 0 -77 8.5t-45 24t-20 35t-5 43.5v80h413q197 0 286 -81t89 -234v-811h-489q-176 0 -277.5 76.5t-101.5 230.5zM227 1466h189q2 -37 15 -60.5t31.5 -37.5t41 -19.5 t45.5 -5.5q20 0 42.5 5.5t41 18.5t32 38t15.5 61h188q-4 -135 -89 -210.5t-236 -75.5q-141 0 -226.5 75.5t-89.5 210.5zM350 254q0 -37 13.5 -61.5t35 -38t47 -18.5t48.5 -5h249v352q-72 8 -134 11.5t-115 3.5q-74 0 -109 -31t-35 -105v-108z" />
<glyph unicode="&#x104;" horiz-adv-x="1368" d="M35 -61l512 1527h184q41 0 74 -24.5t43 -59.5l487 -1443h-59q-41 -39 -67.5 -87.5t-26.5 -91.5q0 -35 18.5 -57t59.5 -22q18 0 48.5 2t63.5 18v-160q-45 -23 -86 -26.5t-74 -3.5q-111 0 -166 59t-55 141q0 57 26.5 120t74.5 110l-164 508q-27 -29 -72 -50.5t-102 -21.5 h-334l-139 -438h-246zM483 575h400l-199 621z" />
<glyph unicode="&#x105;" horiz-adv-x="1114" d="M113 246v125q0 176 101 253.5t278 73.5q76 -2 132 -5t119 -11v68q0 57 -32.5 90.5t-104.5 33.5h-266q-47 0 -77 8.5t-45 24t-20 35t-5 43.5v80h413q197 0 286 -81t89 -234v-811h-59q-41 -39 -68 -87.5t-27 -91.5q0 -35 18.5 -57t59.5 -22q18 0 49 2t64 18v-160 q-45 -23 -86 -26.5t-74 -3.5q-111 0 -166 59t-55 141q0 57 25.5 118.5t72.5 109.5h-243q-176 0 -277.5 76.5t-101.5 230.5zM350 254q0 -37 13.5 -61.5t35 -38t47 -18.5t48.5 -5h249v352q-72 8 -134 11.5t-115 3.5q-74 0 -109 -31t-35 -105v-108z" />
<glyph unicode="&#x106;" horiz-adv-x="1193" d="M125 340v731q0 184 123 289.5t346 105.5h506v-73q0 -25 -5 -47.5t-21.5 -39t-46.5 -25.5t-79 -9h-348q-236 0 -235 -228v-690q0 -43 12 -84t35.5 -71.5t59.5 -49t83 -18.5h565v-76q0 -47 -28.5 -81.5t-124.5 -34.5h-420q-92 0 -169 28.5t-133.5 80.5t-88 127t-31.5 165z M459 1606l176 299h250l-187 -236q-29 -35 -57.5 -49t-81.5 -14h-100z" />
<glyph unicode="&#x107;" horiz-adv-x="1034" d="M127 319v361q0 90 31.5 161.5t88 121t134.5 76t170 26.5h391v-70q0 -25 -4 -46t-18.5 -38.5t-42 -27t-76.5 -9.5h-250q-186 0 -186 -194v-358q0 -86 47 -138.5t139 -52.5h401v-76q0 -25 -5 -45t-20.5 -36.5t-44 -25.5t-77.5 -9h-254q-92 0 -170 25.5t-134.5 74.5 t-88 119.5t-31.5 160.5zM381 1196l176 299h250l-186 -235q-29 -35 -57.5 -49.5t-82.5 -14.5h-100z" />
<glyph unicode="&#x108;" horiz-adv-x="1193" d="M125 340v731q0 184 123 289.5t346 105.5h506v-73q0 -25 -5 -47.5t-21.5 -39t-46.5 -25.5t-79 -9h-348q-236 0 -235 -228v-690q0 -43 12 -84t35.5 -71.5t59.5 -49t83 -18.5h565v-76q0 -47 -28.5 -81.5t-124.5 -34.5h-420q-92 0 -169 28.5t-133.5 80.5t-88 127t-31.5 165z M276 1599l252 295h213l246 -295h-233l-119 164l-127 -164h-232z" />
<glyph unicode="&#x109;" horiz-adv-x="1034" d="M127 319v361q0 90 31.5 161.5t88 121t134.5 76t170 26.5h391v-70q0 -25 -4 -46t-18.5 -38.5t-42 -27t-76.5 -9.5h-250q-186 0 -186 -194v-358q0 -86 47 -138.5t139 -52.5h401v-76q0 -25 -5 -45t-20.5 -36.5t-44 -25.5t-77.5 -9h-254q-92 0 -170 25.5t-134.5 74.5 t-88 119.5t-31.5 160.5zM199 1190l252 295h213l245 -295h-233l-119 164l-127 -164h-231z" />
<glyph unicode="&#x10a;" horiz-adv-x="1193" d="M125 340v731q0 184 123 289.5t346 105.5h506v-73q0 -25 -5 -47.5t-21.5 -39t-46.5 -25.5t-79 -9h-348q-236 0 -235 -228v-690q0 -43 12 -84t35.5 -71.5t59.5 -49t83 -18.5h565v-76q0 -47 -28.5 -81.5t-124.5 -34.5h-420q-92 0 -169 28.5t-133.5 80.5t-88 127t-31.5 165z M526 1608v235h242v-235h-242z" />
<glyph unicode="&#x10b;" horiz-adv-x="1034" d="M127 319v361q0 90 31.5 161.5t88 121t134.5 76t170 26.5h391v-70q0 -25 -4 -46t-18.5 -38.5t-42 -27t-76.5 -9.5h-250q-186 0 -186 -194v-358q0 -86 47 -138.5t139 -52.5h401v-76q0 -25 -5 -45t-20.5 -36.5t-44 -25.5t-77.5 -9h-254q-92 0 -170 25.5t-134.5 74.5 t-88 119.5t-31.5 160.5zM449 1198v236h241v-236h-241z" />
<glyph unicode="&#x10c;" horiz-adv-x="1193" d="M125 340v731q0 184 123 289.5t346 105.5h506v-73q0 -25 -5 -47.5t-21.5 -39t-46.5 -25.5t-79 -9h-348q-236 0 -235 -228v-690q0 -43 12 -84t35.5 -71.5t59.5 -49t83 -18.5h565v-76q0 -47 -28.5 -81.5t-124.5 -34.5h-420q-92 0 -169 28.5t-133.5 80.5t-88 127t-31.5 165z M317 1894h232l127 -163l119 163h233l-246 -295h-213z" />
<glyph unicode="&#x10d;" horiz-adv-x="1034" d="M127 319v361q0 90 31.5 161.5t88 121t134.5 76t170 26.5h391v-70q0 -25 -4 -46t-18.5 -38.5t-42 -27t-76.5 -9.5h-250q-186 0 -186 -194v-358q0 -86 47 -138.5t139 -52.5h401v-76q0 -25 -5 -45t-20.5 -36.5t-44 -25.5t-77.5 -9h-254q-92 0 -170 25.5t-134.5 74.5 t-88 119.5t-31.5 160.5zM240 1485h231l127 -164l119 164h233l-245 -295h-213z" />
<glyph unicode="&#x10e;" horiz-adv-x="1361" d="M152 -61v1527h565q131 0 228 -33.5t161.5 -93t95.5 -140.5t31 -175v-647q0 -94 -31 -175t-95.5 -139.5t-161.5 -91t-228 -32.5h-565zM317 1894h232l127 -163l119 163h233l-246 -295h-213zM389 131h328q129 0 203.5 65.5t74.5 180.5v647q0 123 -74.5 185.5t-203.5 62.5 h-328v-1141z" />
<glyph unicode="&#x10f;" horiz-adv-x="1488" d="M131 324v395q0 182 108.5 273t317.5 91h201v412h237v-1538h-438q-209 0 -317.5 90t-108.5 277zM369 342q0 -98 51 -145t137 -47h201v743h-203q-84 0 -135 -47t-51 -148v-356zM1112 1067q49 27 81 73t36 97h-113v258h283v-192q0 -106 -56.5 -197.5t-158.5 -132.5z" />
<glyph unicode="&#x110;" horiz-adv-x="1486" d="M63 608v195h193v663h586q127 0 220 -31.5t154.5 -89t91 -134t29.5 -167.5v-688q0 -90 -29.5 -166.5t-91 -132t-154.5 -87t-220 -31.5h-586v669h-193zM494 131h348q121 0 189.5 60.5t68.5 164.5v688q0 113 -68.5 170.5t-189.5 57.5h-348v-469h335v-76q0 -25 -5 -46.5 t-20.5 -37.5t-45 -25.5t-78.5 -9.5h-186v-477z" />
<glyph unicode="&#x111;" horiz-adv-x="1220" d="M129 324v395q0 182 108.5 273t317.5 91h201v101h-316v188h316v123h237v-123h168v-72q0 -25 -5 -45t-20.5 -36.5t-45 -25.5t-78.5 -9h-19v-1227h-438q-209 0 -317.5 90t-108.5 277zM367 342q0 -98 51 -145t137 -47h201v743h-203q-84 0 -135 -47t-51 -148v-356z" />
<glyph unicode="&#x112;" horiz-adv-x="1232" d="M152 -61v1527h966v-69q0 -59 -24.5 -92t-106.5 -33h-596v-430h664v-74q0 -49 -23.5 -84t-105.5 -35h-535v-518h752v-74q0 -49 -24.5 -83.5t-104.5 -34.5h-862zM276 1636v179h680v-179h-680z" />
<glyph unicode="&#x113;" horiz-adv-x="1124" d="M113 305v381q0 109 35.5 186.5t96 127t141.5 72t171 22.5q98 0 181 -25t143.5 -71t94.5 -115.5t34 -157.5v-147q0 -74 -43 -123t-136 -49h-481v-101q0 -84 48 -129t114 -45h459v-82q0 -25 -4 -45t-19.5 -34.5t-44.5 -22.5t-78 -8h-313q-182 0 -290.5 98t-108.5 268z M215 1227v178h680v-178h-680zM350 598h389q14 0 24.5 11.5t10.5 29.5v86q0 80 -55 128t-162 48q-94 0 -150.5 -48t-56.5 -128v-127z" />
<glyph unicode="&#x114;" horiz-adv-x="1232" d="M152 -61v1527h966v-69q0 -59 -24.5 -92t-106.5 -33h-596v-430h664v-74q0 -49 -23.5 -84t-105.5 -35h-535v-518h752v-74q0 -49 -24.5 -83.5t-104.5 -34.5h-862zM297 1876h188q2 -37 15.5 -60.5t32 -38t41 -19.5t44.5 -5q20 0 43 5t41.5 18.5t32 38t15.5 61.5h188 q-4 -135 -89 -211t-237 -76q-141 0 -226 76t-89 211z" />
<glyph unicode="&#x115;" horiz-adv-x="1124" d="M113 305v381q0 109 35.5 186.5t96 127t141.5 72t171 22.5q98 0 181 -25t143.5 -71t94.5 -115.5t34 -157.5v-147q0 -74 -43 -123t-136 -49h-481v-101q0 -84 48 -129t114 -45h459v-82q0 -25 -4 -45t-19.5 -34.5t-44.5 -22.5t-78 -8h-313q-182 0 -290.5 98t-108.5 268z M236 1466h188q2 -37 15.5 -60.5t31.5 -37.5t41 -19.5t45 -5.5q20 0 43 5.5t41 18.5t31.5 38t15.5 61h189q-4 -135 -89.5 -210.5t-236.5 -75.5q-141 0 -226 75.5t-89 210.5zM350 598h389q14 0 24.5 11.5t10.5 29.5v86q0 80 -55 128t-162 48q-94 0 -150.5 -48t-56.5 -128v-127 z" />
<glyph unicode="&#x116;" horiz-adv-x="1232" d="M152 -61v1527h966v-69q0 -59 -24.5 -92t-106.5 -33h-596v-430h664v-74q0 -49 -23.5 -84t-105.5 -35h-535v-518h752v-74q0 -49 -24.5 -83.5t-104.5 -34.5h-862zM504 1608v235h241v-235h-241z" />
<glyph unicode="&#x117;" horiz-adv-x="1124" d="M113 305v381q0 109 35.5 186.5t96 127t141.5 72t171 22.5q98 0 181 -25t143.5 -71t94.5 -115.5t34 -157.5v-147q0 -74 -43 -123t-136 -49h-481v-101q0 -84 48 -129t114 -45h459v-82q0 -25 -4 -45t-19.5 -34.5t-44.5 -22.5t-78 -8h-313q-182 0 -290.5 98t-108.5 268z M350 598h389q14 0 24.5 11.5t10.5 29.5v86q0 80 -55 128t-162 48q-94 0 -150.5 -48t-56.5 -128v-127zM442 1198v236h242v-236h-242z" />
<glyph unicode="&#x118;" horiz-adv-x="1232" d="M152 -61v1527h966v-69q0 -59 -24.5 -92t-106.5 -33h-596v-430h664v-74q0 -49 -23.5 -84t-105.5 -35h-535v-518h752v-74q0 -49 -24.5 -83.5t-104.5 -34.5h-15q-41 -39 -67.5 -87.5t-26.5 -91.5q0 -35 18.5 -57t59.5 -22q18 0 49 2t64 18v-160q-45 -23 -86 -26.5t-74 -3.5 q-111 0 -166 59t-55 141q0 57 25.5 118.5t72.5 109.5h-661z" />
<glyph unicode="&#x119;" horiz-adv-x="1124" d="M113 305v381q0 109 35.5 186.5t96 127t141.5 72t171 22.5q98 0 181 -25t143.5 -71t94.5 -115.5t34 -157.5v-147q0 -74 -43 -123t-136 -49h-481v-101q0 -84 48 -129t114 -45h459v-82q0 -25 -4 -44t-18.5 -33.5t-41 -22.5t-69.5 -10q-41 -39 -68 -87.5t-27 -91.5 q0 -35 18.5 -57t59.5 -22q18 0 49 2t64 18v-160q-45 -23 -86 -26.5t-74 -3.5q-111 0 -166 59t-55 141q0 57 25.5 118.5t72.5 109.5h-139q-182 0 -290.5 98t-108.5 268zM350 598h389q14 0 24.5 11.5t10.5 29.5v86q0 80 -55 128t-162 48q-94 0 -150.5 -48t-56.5 -128v-127z " />
<glyph unicode="&#x11a;" horiz-adv-x="1232" d="M152 -61v1527h966v-69q0 -59 -24.5 -92t-106.5 -33h-596v-430h664v-74q0 -49 -23.5 -84t-105.5 -35h-535v-518h752v-74q0 -49 -24.5 -83.5t-104.5 -34.5h-862zM270 1894h232l127 -163l119 163h233l-246 -295h-213z" />
<glyph unicode="&#x11b;" horiz-adv-x="1124" d="M113 305v381q0 109 35.5 186.5t96 127t141.5 72t171 22.5q98 0 181 -25t143.5 -71t94.5 -115.5t34 -157.5v-147q0 -74 -43 -123t-136 -49h-481v-101q0 -84 48 -129t114 -45h459v-82q0 -25 -4 -45t-19.5 -34.5t-44.5 -22.5t-78 -8h-313q-182 0 -290.5 98t-108.5 268z M209 1485h231l127 -164l119 164h234l-246 -295h-213zM350 598h389q14 0 24.5 11.5t10.5 29.5v86q0 80 -55 128t-162 48q-94 0 -150.5 -48t-56.5 -128v-127z" />
<glyph unicode="&#x11c;" horiz-adv-x="1376" d="M137 348v715q0 96 35 172t95.5 127t142.5 77.5t176 26.5h622v-71q0 -63 -30.5 -93t-114.5 -30h-477q-90 0 -149.5 -55.5t-59.5 -153.5v-717q0 -90 52 -152.5t157 -62.5h243q88 0 131.5 58.5t43.5 138.5v247q0 16 -10.5 28.5t-37.5 12.5h-163q-74 0 -108 21.5t-34 87.5v86 h416q96 0 136 -43t40 -129v-311q0 -98 -30.5 -171t-85 -122t-130 -72.5t-166.5 -23.5h-245q-98 0 -180 25.5t-142.5 76.5t-93.5 128t-33 179zM344 1599l252 295h213l246 -295h-234l-119 164l-127 -164h-231z" />
<glyph unicode="&#x11d;" horiz-adv-x="1148" d="M123 303v399q0 180 111.5 271.5t297.5 91.5h474v-1247q0 -55 -16.5 -110.5t-55.5 -99.5t-105.5 -70.5t-166.5 -26.5h-445v81q0 59 34 85t105 26h299q59 0 87 33t28 86v117h-238q-193 0 -301 92t-108 272zM229 1190l252 295h213l246 -295h-233l-119 164l-127 -164h-232z M360 303q0 -53 16.5 -87t42 -52.5t56.5 -25.5t57 -7h238v743h-238q-88 0 -130 -50t-42 -124v-397z" />
<glyph unicode="&#x11e;" horiz-adv-x="1376" d="M137 348v715q0 96 35 172t95.5 127t142.5 77.5t176 26.5h622v-71q0 -63 -30.5 -93t-114.5 -30h-477q-90 0 -149.5 -55.5t-59.5 -153.5v-717q0 -90 52 -152.5t157 -62.5h243q88 0 131.5 58.5t43.5 138.5v247q0 16 -10.5 28.5t-37.5 12.5h-163q-74 0 -108 21.5t-34 87.5v86 h416q96 0 136 -43t40 -129v-311q0 -98 -30.5 -171t-85 -122t-130 -72.5t-166.5 -23.5h-245q-98 0 -180 25.5t-142.5 76.5t-93.5 128t-33 179zM371 1876h188q2 -37 15.5 -60.5t32 -38t41 -19.5t44.5 -5q20 0 43 5t41.5 18.5t31.5 38t15 61.5h189q-4 -135 -89 -211t-237 -76 q-141 0 -226 76t-89 211z" />
<glyph unicode="&#x11f;" horiz-adv-x="1148" d="M123 303v399q0 180 111.5 271.5t297.5 91.5h474v-1247q0 -55 -16.5 -110.5t-55.5 -99.5t-105.5 -70.5t-166.5 -26.5h-445v81q0 59 34 85t105 26h299q59 0 87 33t28 86v117h-238q-193 0 -301 92t-108 272zM256 1466h188q2 -37 15.5 -60.5t32 -37.5t41 -19.5t45.5 -5.5 q20 0 42.5 5.5t41 18.5t32 38t15.5 61h188q-4 -135 -89 -210.5t-237 -75.5q-141 0 -226 75.5t-89 210.5zM360 303q0 -53 16.5 -87t42 -52.5t56.5 -25.5t57 -7h238v743h-238q-88 0 -130 -50t-42 -124v-397z" />
<glyph unicode="&#x120;" horiz-adv-x="1376" d="M137 348v715q0 96 35 172t95.5 127t142.5 77.5t176 26.5h622v-71q0 -63 -30.5 -93t-114.5 -30h-477q-90 0 -149.5 -55.5t-59.5 -153.5v-717q0 -90 52 -152.5t157 -62.5h243q88 0 131.5 58.5t43.5 138.5v247q0 16 -10.5 28.5t-37.5 12.5h-163q-74 0 -108 21.5t-34 87.5v86 h416q96 0 136 -43t40 -129v-311q0 -98 -30.5 -171t-85 -122t-130 -72.5t-166.5 -23.5h-245q-98 0 -180 25.5t-142.5 76.5t-93.5 128t-33 179zM578 1608v235h241v-235h-241z" />
<glyph unicode="&#x121;" horiz-adv-x="1148" d="M123 303v399q0 180 111.5 271.5t297.5 91.5h474v-1247q0 -55 -16.5 -110.5t-55.5 -99.5t-105.5 -70.5t-166.5 -26.5h-445v81q0 59 34 85t105 26h299q59 0 87 33t28 86v117h-238q-193 0 -301 92t-108 272zM360 303q0 -53 16.5 -87t42 -52.5t56.5 -25.5t57 -7h238v743h-238 q-88 0 -130 -50t-42 -124v-397zM442 1198v236h242v-236h-242z" />
<glyph unicode="&#x122;" horiz-adv-x="1376" d="M137 348v715q0 96 35 172t95.5 127t142.5 77.5t176 26.5h622v-71q0 -63 -30.5 -93t-114.5 -30h-477q-90 0 -149.5 -55.5t-59.5 -153.5v-717q0 -90 52 -152.5t157 -62.5h243q88 0 131.5 58.5t43.5 138.5v247q0 16 -10.5 28.5t-37.5 12.5h-163q-74 0 -108 21.5t-34 87.5v86 h416q96 0 136 -43t40 -129v-311q0 -98 -30.5 -171t-85 -122t-130 -72.5t-166.5 -23.5h-245q-98 0 -180 25.5t-142.5 76.5t-93.5 128t-33 179zM571 -590q49 27 81 73t36 97h-113v258h283v-192q0 -106 -56.5 -197.5t-158.5 -132.5z" />
<glyph unicode="&#x123;" horiz-adv-x="1148" d="M123 303v399q0 180 111.5 271.5t297.5 91.5h474v-1247q0 -55 -16.5 -110.5t-55.5 -99.5t-105.5 -70.5t-166.5 -26.5h-445v81q0 59 34 85t105 26h299q59 0 87 33t28 86v117h-238q-193 0 -301 92t-108 272zM360 303q0 -53 16.5 -87t42 -52.5t56.5 -25.5t57 -7h238v743h-238 q-88 0 -130 -50t-42 -124v-397zM459 1190v192q0 106 56 197.5t159 132.5l71 -94q-49 -27 -80.5 -73t-35.5 -97h112v-258h-282z" />
<glyph unicode="&#x124;" horiz-adv-x="1392" d="M152 63v1403h239v-622h604v622h240v-1527h-109q-70 0 -100.5 27.5t-30.5 96.5v642q-25 -29 -65.5 -41.5t-87.5 -12.5h-451v-712h-110q-70 0 -99.5 27.5t-29.5 96.5zM332 1599l252 295h213l245 -295h-233l-119 164l-127 -164h-231z" />
<glyph unicode="&#x125;" horiz-adv-x="1175" d="M152 66v1411h237v-412h266q385 0 385 -344v-782h-106q-68 0 -99.5 27.5t-31.5 99.5v653q0 84 -40 119.5t-108 35.5h-266v-935h-108q-70 0 -99.5 27.5t-29.5 99.5zM229 1599l252 295h213l246 -295h-233l-119 164l-127 -164h-232z" />
<glyph unicode="&#x126;" horiz-adv-x="1466" d="M39 1063v197h145v206h240v-206h604v206h240v-206h162v-80q0 -25 -5.5 -45.5t-20.5 -37t-45 -25.5t-79 -9h-12v-1124h-109q-70 0 -100.5 27.5t-30.5 96.5v642q-25 -29 -65.5 -41.5t-88.5 -12.5h-450v-712h-111q-70 0 -99.5 27.5t-29.5 96.5v1000h-145zM424 844h604v219 h-604v-219z" />
<glyph unicode="&#x127;" horiz-adv-x="1224" d="M47 1186v192h141v99h238v-99h381v-75q0 -25 -5 -45.5t-20.5 -37t-44 -25.5t-78.5 -9h-233v-121h266q385 0 385 -344v-782h-106q-68 0 -99.5 27.5t-31.5 99.5v653q0 84 -40 119.5t-108 35.5h-266v-935h-109q-70 0 -99.5 27.5t-29.5 99.5v1120h-141z" />
<glyph unicode="&#x128;" horiz-adv-x="577" d="M-119 1587q0 133 72.5 205t183.5 72q51 0 97.5 -18.5t80.5 -37.5q29 -14 55.5 -27.5t49.5 -13.5q39 0 55.5 26t16.5 71h188q0 -125 -67.5 -200t-182.5 -75q-57 0 -98 18.5t-80 39.5q-25 12 -50.5 26.5t-54.5 14.5q-33 0 -55 -24t-24 -77h-187zM172 63v1403h242v-1527 h-113q-70 0 -99.5 27.5t-29.5 96.5z" />
<glyph unicode="&#x129;" horiz-adv-x="526" d="M-156 1178q0 133 72.5 204.5t183.5 71.5q51 0 97.5 -18.5t81.5 -36.5q29 -14 55 -27.5t49 -13.5q39 0 55.5 25.5t16.5 70.5h188q0 -125 -67.5 -199.5t-182.5 -74.5q-57 0 -98 18.5t-80 38.5q-25 12 -50.5 26.5t-53.5 14.5q-33 0 -55.5 -23.5t-24.5 -76.5h-187zM141 66 v999h238v-1126h-107q-72 0 -101.5 27.5t-29.5 99.5z" />
<glyph unicode="&#x12a;" horiz-adv-x="577" d="M-55 1636v179h680v-179h-680zM172 63v1403h242v-1527h-113q-70 0 -99.5 27.5t-29.5 96.5z" />
<glyph unicode="&#x12b;" horiz-adv-x="526" d="M-106 1227v178h679v-178h-679zM141 66v999h238v-1126h-107q-72 0 -101.5 27.5t-29.5 99.5z" />
<glyph unicode="&#x12c;" horiz-adv-x="577" d="M-39 1876h189q2 -37 15 -60.5t31.5 -38t41 -19.5t45.5 -5q20 0 42.5 5t41 18.5t32 38t15.5 61.5h188q-4 -135 -89 -211t-237 -76q-141 0 -226 76t-89 211zM172 63v1403h242v-1527h-113q-70 0 -99.5 27.5t-29.5 96.5z" />
<glyph unicode="&#x12d;" horiz-adv-x="526" d="M-74 1466h189q2 -37 15 -60.5t31.5 -37.5t41 -19.5t45.5 -5.5q20 0 42.5 5.5t41 18.5t32 38t15.5 61h188q-4 -135 -89 -210.5t-236 -75.5q-141 0 -226.5 75.5t-89.5 210.5zM141 66v999h238v-1126h-107q-72 0 -101.5 27.5t-29.5 99.5z" />
<glyph unicode="&#x12e;" horiz-adv-x="577" d="M106 -289q0 61 31 128t82 116q-47 23 -47 108v1403h242v-1527h-23q-41 -39 -67.5 -87.5t-26.5 -91.5q0 -35 18.5 -57t59.5 -22q18 0 49 2t63 18v-160q-45 -23 -86 -26.5t-73 -3.5q-111 0 -166.5 59t-55.5 141z" />
<glyph unicode="&#x12f;" horiz-adv-x="546" d="M78 -289q0 61 30.5 128t84.5 116h4q-45 25 -45 111v999h237v-1126h-27q-41 -39 -67.5 -87.5t-26.5 -91.5q0 -35 18.5 -57t59.5 -22q18 0 49 2t64 18v-160q-45 -23 -86 -26.5t-74 -3.5q-111 0 -166 59t-55 141zM147 1360v135h246v-274h-90q-63 0 -109.5 35.5t-46.5 103.5z " />
<glyph unicode="&#x130;" horiz-adv-x="577" d="M172 63v1403h242v-1527h-113q-70 0 -99.5 27.5t-29.5 96.5zM172 1608v235h242v-235h-242z" />
<glyph unicode="&#x131;" horiz-adv-x="526" d="M141 66v999h238v-1126h-107q-72 0 -101.5 27.5t-29.5 99.5z" />
<glyph unicode="&#x132;" horiz-adv-x="1423" d="M172 63v1403h242v-1527h-113q-70 0 -99.5 27.5t-29.5 96.5zM565 18q0 66 31 89.5t106 23.5h127q96 0 141.5 45t45.5 158v1132h241v-1132q0 -203 -100 -299t-328 -96h-264v79z" />
<glyph unicode="&#x133;" horiz-adv-x="1157" d="M147 1360v135h246v-274h-90q-63 0 -109.5 35.5t-46.5 103.5zM152 66v999h237v-1126h-106q-72 0 -101.5 27.5t-29.5 99.5zM463 -410q0 57 34.5 86t92.5 29h49q63 0 94 36t31 101v1223h237v-1223q0 -174 -95 -252.5t-267 -78.5h-176v79zM760 1360v135h246v-274h-91 q-66 0 -110.5 35.5t-44.5 103.5z" />
<glyph unicode="&#x134;" horiz-adv-x="872" d="M27 18q0 66 30.5 89.5t106.5 23.5h127q96 0 141 45t45 158v1132h242v-1132q0 -203 -100.5 -299t-327.5 -96h-264v79zM229 1599l252 295h213l246 -295h-233l-119 164l-127 -164h-232z" />
<glyph unicode="&#x135;" horiz-adv-x="675" d="M-23 -410q0 57 35 86t92 29h50q63 0 94 36t31 101v1223h237v-1223q0 -174 -95 -252.5t-267 -78.5h-177v79zM25 1190l251 295h213l246 -295h-233l-119 164l-127 -164h-231z" />
<glyph unicode="&#x136;" horiz-adv-x="1320" d="M152 66v1400h239v-1527h-112q-68 0 -97.5 29.5t-29.5 97.5zM436 727l559 739h291l-561 -737l588 -790h-287zM506 -590q49 27 80.5 73t36.5 97h-113v258h283v-192q0 -106 -56.5 -197.5t-158.5 -132.5z" />
<glyph unicode="&#x137;" horiz-adv-x="1175" d="M154 66v1411h237v-1538h-106q-72 0 -101.5 27.5t-29.5 99.5zM424 -590q49 27 81 73t36 97h-113v258h283v-192q0 -106 -56.5 -197.5t-158.5 -132.5zM432 543l428 522h277l-437 -524l459 -602h-266z" />
<glyph unicode="&#x138;" horiz-adv-x="1163" d="M154 66v999h237v-1126h-106q-72 0 -101.5 27.5t-29.5 99.5zM438 543l410 522h276l-417 -524l440 -602h-266z" />
<glyph unicode="&#x139;" horiz-adv-x="1122" d="M152 -61v1527h239v-1335h694v-74q0 -63 -26.5 -90.5t-97.5 -27.5h-809zM356 1606l176 299h250l-186 -236q-29 -35 -57.5 -49t-81.5 -14h-101z" />
<glyph unicode="&#x13a;" horiz-adv-x="550" d="M53 1606l176 299h250l-186 -236q-29 -35 -57.5 -49t-81.5 -14h-101zM150 66v1411h237v-1538h-108q-68 0 -98.5 27.5t-30.5 99.5z" />
<glyph unicode="&#x13b;" horiz-adv-x="1122" d="M152 -61v1527h239v-1335h694v-74q0 -63 -26.5 -90.5t-97.5 -27.5h-809zM483 -590q49 27 81 73t36 97h-113v258h283v-192q0 -106 -56.5 -197.5t-158.5 -132.5z" />
<glyph unicode="&#x13c;" horiz-adv-x="550" d="M125 -590q49 27 81 73t36 97h-113v258h283v-192q0 -106 -56.5 -197.5t-158.5 -132.5zM150 66v1411h237v-1538h-108q-68 0 -98.5 27.5t-30.5 99.5z" />
<glyph unicode="&#x13d;" horiz-adv-x="1122" d="M152 -61v1527h239v-1335h694v-74q0 -63 -26.5 -90.5t-97.5 -27.5h-809zM635 1067q49 27 81 73t36 97h-113v258h283v-192q0 -106 -56.5 -197.5t-158.5 -132.5z" />
<glyph unicode="&#x13e;" horiz-adv-x="915" d="M150 66v1411h237v-1538h-108q-68 0 -98.5 27.5t-30.5 99.5zM532 1067q49 27 81 73t36 97h-112v258h282v-192q0 -106 -56 -197.5t-159 -132.5z" />
<glyph unicode="&#x13f;" horiz-adv-x="1122" d="M152 -61v1527h239v-1335h694v-74q0 -63 -26.5 -90.5t-97.5 -27.5h-809zM592 627v262h260v-262h-260z" />
<glyph unicode="&#x140;" horiz-adv-x="903" d="M150 66v1411h237v-1538h-108q-68 0 -98.5 27.5t-30.5 99.5zM530 594v262h261v-262h-261z" />
<glyph unicode="&#x141;" horiz-adv-x="1343" d="M53 592l293 227v647h240v-460l135 106l131 -158l-266 -206v-617h694v-74q0 -63 -26.5 -90.5t-98.5 -27.5h-809v622l-162 -125z" />
<glyph unicode="&#x142;" horiz-adv-x="872" d="M43 602l279 217v658h237v-473l148 114l127 -157l-275 -216v-806h-108q-68 0 -98.5 27.5t-30.5 99.5v495l-148 -115z" />
<glyph unicode="&#x143;" horiz-adv-x="1386" d="M152 63v1403h639q111 0 193.5 -17t138 -63.5t83 -125t27.5 -201.5v-1120h-109q-68 0 -99.5 27.5t-31.5 96.5v998q0 123 -45 167t-157 44h-400v-1333h-110q-70 0 -99.5 27.5t-29.5 96.5zM469 1606l176 299h250l-186 -236q-29 -35 -57.5 -49t-82.5 -14h-100z" />
<glyph unicode="&#x144;" horiz-adv-x="1169" d="M143 66v999h494q109 0 183.5 -19.5t120.5 -62.5t65.5 -111.5t19.5 -164.5v-768h-108q-68 0 -99 27.5t-31 99.5v641q0 98 -32.5 132.5t-118.5 34.5h-256v-935h-105q-72 0 -102.5 27.5t-30.5 99.5zM346 1196l176 299h250l-186 -235q-29 -35 -57.5 -49.5t-82.5 -14.5h-100z " />
<glyph unicode="&#x145;" horiz-adv-x="1386" d="M152 63v1403h639q111 0 193.5 -17t138 -63.5t83 -125t27.5 -201.5v-1120h-109q-68 0 -99.5 27.5t-31.5 96.5v998q0 123 -45 167t-157 44h-400v-1333h-110q-70 0 -99.5 27.5t-29.5 96.5zM543 -590q49 27 80.5 73t35.5 97h-112v258h282v-192q0 -106 -56 -197.5t-159 -132.5 z" />
<glyph unicode="&#x146;" horiz-adv-x="1169" d="M143 66v999h494q109 0 183.5 -19.5t120.5 -62.5t65.5 -111.5t19.5 -164.5v-768h-108q-68 0 -99 27.5t-31 99.5v641q0 98 -32.5 132.5t-118.5 34.5h-256v-935h-105q-72 0 -102.5 27.5t-30.5 99.5zM434 -590q49 27 81 73t36 97h-113v258h283v-192q0 -106 -56.5 -197.5 t-158.5 -132.5z" />
<glyph unicode="&#x147;" horiz-adv-x="1386" d="M152 63v1403h639q111 0 193.5 -17t138 -63.5t83 -125t27.5 -201.5v-1120h-109q-68 0 -99.5 27.5t-31.5 96.5v998q0 123 -45 167t-157 44h-400v-1333h-110q-70 0 -99.5 27.5t-29.5 96.5zM322 1894h231l127 -163l119 163h233l-246 -295h-213z" />
<glyph unicode="&#x148;" horiz-adv-x="1169" d="M143 66v999h494q109 0 183.5 -19.5t120.5 -62.5t65.5 -111.5t19.5 -164.5v-768h-108q-68 0 -99 27.5t-31 99.5v641q0 98 -32.5 132.5t-118.5 34.5h-256v-935h-105q-72 0 -102.5 27.5t-30.5 99.5zM205 1485h231l127 -164l119 164h233l-245 -295h-213z" />
<glyph unicode="&#x149;" horiz-adv-x="1503" d="M82 1038q49 27 81 73t36 97h-113v258h283v-192q0 -106 -56.5 -197.5t-158.5 -132.5zM463 66v999h493q109 0 183.5 -19.5t121 -62.5t66 -111.5t19.5 -164.5v-768h-109q-68 0 -98.5 27.5t-30.5 99.5v641q0 98 -33 132.5t-119 34.5h-256v-935h-104q-72 0 -102.5 27.5 t-30.5 99.5z" />
<glyph unicode="&#x14a;" horiz-adv-x="1386" d="M152 63v1403h639q111 0 193.5 -17t138 -63.5t83 -125t27.5 -201.5v-1153q0 -203 -103.5 -299t-326.5 -96h-262v79q0 66 29.5 90.5t107.5 24.5h125q98 0 144 44t46 157v1155q0 123 -45 167t-157 44h-400v-1333h-110q-70 0 -99.5 27.5t-29.5 96.5z" />
<glyph unicode="&#x14b;" horiz-adv-x="1169" d="M143 66v999h494q109 0 183.5 -19.5t120.5 -62.5t65.5 -111.5t19.5 -164.5v-805q0 -199 -104.5 -295t-323.5 -96h-262v79q0 63 30.5 88t106.5 25h125q96 0 143 44t47 155v805q0 98 -32.5 132.5t-118.5 34.5h-256v-935h-105q-72 0 -102.5 27.5t-30.5 99.5z" />
<glyph unicode="&#x14c;" horiz-adv-x="1437" d="M121 549v307q0 307 146.5 473t449.5 166q307 0 451.5 -166t144.5 -473v-309q0 -305 -144.5 -471t-451.5 -166q-303 0 -449.5 166t-146.5 473zM358 1636v179h680v-179h-680zM360 547q0 -432 357 -432q356 0 356 434v309q0 94 -21.5 174t-66.5 138.5t-111.5 90t-156.5 31.5 q-88 0 -154.5 -31.5t-111.5 -90t-68 -138.5t-23 -176v-309z" />
<glyph unicode="&#x14d;" horiz-adv-x="1175" d="M123 356v293q0 229 120 337t343 108q225 0 344 -107.5t119 -337.5v-293q0 -229 -117 -337.5t-346 -108.5q-223 0 -343 106.5t-120 339.5zM221 1227v178h680v-178h-680zM360 356q0 -123 58.5 -189.5t167.5 -66.5t167 63.5t58 192.5v293q0 51 -12.5 97.5t-40 81t-69.5 54 t-103 19.5q-104 0 -165 -63.5t-61 -188.5v-293z" />
<glyph unicode="&#x14e;" horiz-adv-x="1437" d="M121 549v307q0 307 146.5 473t449.5 166q307 0 451.5 -166t144.5 -473v-309q0 -305 -144.5 -471t-451.5 -166q-303 0 -449.5 166t-146.5 473zM360 547q0 -432 357 -432q356 0 356 434v309q0 94 -21.5 174t-66.5 138.5t-111.5 90t-156.5 31.5q-88 0 -154.5 -31.5 t-111.5 -90t-68 -138.5t-23 -176v-309zM379 1876h188q2 -37 15.5 -60.5t32 -38t41 -19.5t44.5 -5q20 0 43 5t41.5 18.5t31.5 38t15 61.5h189q-4 -135 -89 -211t-237 -76q-141 0 -226 76t-89 211z" />
<glyph unicode="&#x14f;" horiz-adv-x="1175" d="M123 356v293q0 229 120 337t343 108q225 0 344 -107.5t119 -337.5v-293q0 -229 -117 -337.5t-346 -108.5q-223 0 -343 106.5t-120 339.5zM242 1466h188q2 -37 15.5 -60.5t32 -37.5t41 -19.5t44.5 -5.5q20 0 43 5.5t41.5 18.5t31.5 38t15 61h189q-4 -135 -89 -210.5 t-237 -75.5q-141 0 -226 75.5t-89 210.5zM360 356q0 -123 58.5 -189.5t167.5 -66.5t167 63.5t58 192.5v293q0 51 -12.5 97.5t-40 81t-69.5 54t-103 19.5q-104 0 -165 -63.5t-61 -188.5v-293z" />
<glyph unicode="&#x150;" horiz-adv-x="1437" d="M121 549v307q0 307 146.5 473t449.5 166q307 0 451.5 -166t144.5 -473v-309q0 -305 -144.5 -471t-451.5 -166q-303 0 -449.5 166t-146.5 473zM352 1606l158 299h240l-166 -236q-27 -37 -53.5 -50t-77.5 -13h-101zM360 547q0 -432 357 -432q356 0 356 434v309 q0 94 -21.5 174t-66.5 138.5t-111.5 90t-156.5 31.5q-88 0 -154.5 -31.5t-111.5 -90t-68 -138.5t-23 -176v-309zM678 1606l158 299h241l-166 -236q-27 -37 -53.5 -50t-79.5 -13h-100z" />
<glyph unicode="&#x151;" horiz-adv-x="1175" d="M123 356v293q0 229 120 337t343 108q225 0 344 -107.5t119 -337.5v-293q0 -229 -117 -337.5t-346 -108.5q-223 0 -343 106.5t-120 339.5zM223 1196l158 299h240l-166 -235q-27 -37 -53.5 -50.5t-77.5 -13.5h-101zM360 356q0 -123 58.5 -189.5t167.5 -66.5t167 63.5 t58 192.5v293q0 51 -12.5 97.5t-40 81t-69.5 54t-103 19.5q-104 0 -165 -63.5t-61 -188.5v-293zM549 1196l158 299h241l-166 -235q-27 -37 -53.5 -50.5t-79.5 -13.5h-100z" />
<glyph unicode="&#x152;" horiz-adv-x="1976" d="M123 541v323q0 313 145.5 472t448.5 159q109 0 211 -29h954v-69q0 -59 -24.5 -92t-106.5 -33h-596v-428h664v-74q0 -49 -23.5 -84t-105.5 -35h-535v-520h752v-74q0 -49 -24.5 -83.5t-106.5 -34.5h-844q-102 -29 -215 -29q-303 0 -448.5 158.5t-145.5 472.5zM362 539 q0 -217 88.5 -320.5t266.5 -103.5q53 0 103 11t95 38v1085q-45 23 -95 33t-103 10q-88 0 -154.5 -30.5t-110.5 -87t-67 -135t-23 -175.5v-325z" />
<glyph unicode="&#x153;" horiz-adv-x="1839" d="M123 356v293q0 229 119.5 337t343.5 108q111 0 196.5 -27t145.5 -80q61 55 146 81t181 26q98 0 181.5 -25t143.5 -71t94 -115.5t34 -157.5v-147q0 -74 -43 -123t-135 -49h-481v-50v-22v-29q0 -84 48 -129t113 -45h459v-82q0 -25 -4 -45t-19.5 -34.5t-44 -22.5t-77.5 -8 h-314q-86 0 -154.5 21.5t-119.5 62.5q-115 -113 -350 -113q-223 0 -343 106.5t-120 339.5zM360 356q0 -123 58.5 -189.5t167.5 -66.5t167 63.5t58 192.5v314q-4 96 -57 163.5t-168 67.5q-104 0 -165 -63.5t-61 -188.5v-293zM1049 598h389q14 0 24.5 11.5t10.5 29.5v86 q0 80 -55.5 128t-162.5 48q-94 0 -150 -48t-56 -128v-127z" />
<glyph unicode="&#x154;" horiz-adv-x="1316" d="M150 63v1403h608q109 0 190.5 -26.5t136 -72.5t82 -110.5t27.5 -138.5v-162q0 -55 -14.5 -108t-44 -99.5t-76.5 -81t-113 -53.5q74 -166 156 -339t158 -336h-261l-294 647h-316v-647h-113q-68 0 -97 27.5t-29 96.5zM389 782h369q96 0 146 48.5t50 144.5v110 q0 86 -48 134.5t-148 48.5h-369v-486zM449 1606l176 299h249l-186 -236q-29 -35 -57.5 -49t-81.5 -14h-100z" />
<glyph unicode="&#x155;" horiz-adv-x="856" d="M137 66v710q0 139 71 214t236 75h373v-59q0 -76 -46 -104t-116 -28h-211q-41 0 -55 -28.5t-14 -69.5v-837h-109q-68 0 -98.5 27.5t-30.5 99.5zM229 1196l177 299h249l-186 -235q-29 -35 -57.5 -49.5t-81.5 -14.5h-101z" />
<glyph unicode="&#x156;" horiz-adv-x="1316" d="M150 63v1403h608q109 0 190.5 -26.5t136 -72.5t82 -110.5t27.5 -138.5v-162q0 -55 -14.5 -108t-44 -99.5t-76.5 -81t-113 -53.5q74 -166 156 -339t158 -336h-261l-294 647h-316v-647h-113q-68 0 -97 27.5t-29 96.5zM389 782h369q96 0 146 48.5t50 144.5v110 q0 86 -48 134.5t-148 48.5h-369v-486zM516 -590q49 27 81 73t36 97h-113v258h283v-192q0 -106 -56.5 -197.5t-158.5 -132.5z" />
<glyph unicode="&#x157;" horiz-adv-x="856" d="M137 66v710q0 139 71 214t236 75h373v-59q0 -76 -46 -104t-116 -28h-211q-41 0 -55 -28.5t-14 -69.5v-837h-109q-68 0 -98.5 27.5t-30.5 99.5zM233 -590q49 27 81 73t36 97h-112v258h282v-192q0 -106 -56 -197.5t-159 -132.5z" />
<glyph unicode="&#x158;" horiz-adv-x="1316" d="M150 63v1403h608q109 0 190.5 -26.5t136 -72.5t82 -110.5t27.5 -138.5v-162q0 -55 -14.5 -108t-44 -99.5t-76.5 -81t-113 -53.5q74 -166 156 -339t158 -336h-261l-294 647h-316v-647h-113q-68 0 -97 27.5t-29 96.5zM246 1894h231l127 -163l119 163h233l-245 -295h-213z M389 782h369q96 0 146 48.5t50 144.5v110q0 86 -48 134.5t-148 48.5h-369v-486z" />
<glyph unicode="&#x159;" horiz-adv-x="856" d="M109 1485h231l127 -164l119 164h233l-246 -295h-213zM137 66v710q0 139 71 214t236 75h373v-59q0 -76 -46 -104t-116 -28h-211q-41 0 -55 -28.5t-14 -69.5v-837h-109q-68 0 -98.5 27.5t-30.5 99.5z" />
<glyph unicode="&#x15a;" horiz-adv-x="1183" d="M82 18q0 59 29.5 86t109.5 27h346q139 0 211 52.5t72 154.5q0 72 -48 127t-167 108l-258 115q-150 66 -214.5 166t-64.5 229q0 86 29 156t88 121t150.5 78.5t218.5 27.5h458v-84q0 -68 -34.5 -89t-108.5 -21h-315q-47 0 -91 -9.5t-78 -31t-54.5 -57t-20.5 -91.5 q0 -80 43 -131t131 -92l246 -110q96 -43 159.5 -87.5t102.5 -93.5t54.5 -105t15.5 -124q0 -119 -46.5 -196.5t-121 -123t-166.5 -63.5t-185 -18h-491v79zM408 1606l176 299h250l-187 -236q-29 -35 -57.5 -49t-81.5 -14h-100z" />
<glyph unicode="&#x15b;" horiz-adv-x="970" d="M98 756q0 53 21.5 108.5t67.5 99.5t117 72.5t171 28.5h361v-82q0 -59 -35 -84t-113 -25h-213q-76 0 -107.5 -35.5t-31.5 -82.5q0 -39 22.5 -73t77.5 -50l189 -62q145 -45 203.5 -122.5t58.5 -188.5q0 -154 -105.5 -237.5t-289.5 -83.5h-388v75q0 117 140 117h248 q70 0 113.5 32t43.5 97q0 45 -21.5 77t-74.5 48l-180 59q-137 47 -206 118t-69 194zM283 1196l176 299h250l-187 -235q-29 -35 -57.5 -49.5t-81.5 -14.5h-100z" />
<glyph unicode="&#x15c;" horiz-adv-x="1183" d="M82 18q0 59 29.5 86t109.5 27h346q139 0 211 52.5t72 154.5q0 72 -48 127t-167 108l-258 115q-150 66 -214.5 166t-64.5 229q0 86 29 156t88 121t150.5 78.5t218.5 27.5h458v-84q0 -68 -34.5 -89t-108.5 -21h-315q-47 0 -91 -9.5t-78 -31t-54.5 -57t-20.5 -91.5 q0 -80 43 -131t131 -92l246 -110q96 -43 159.5 -87.5t102.5 -93.5t54.5 -105t15.5 -124q0 -119 -46.5 -196.5t-121 -123t-166.5 -63.5t-185 -18h-491v79zM246 1599l252 295h213l245 -295h-233l-119 164l-127 -164h-231z" />
<glyph unicode="&#x15d;" horiz-adv-x="970" d="M98 756q0 53 21.5 108.5t67.5 99.5t117 72.5t171 28.5h361v-82q0 -59 -35 -84t-113 -25h-213q-76 0 -107.5 -35.5t-31.5 -82.5q0 -39 22.5 -73t77.5 -50l189 -62q145 -45 203.5 -122.5t58.5 -188.5q0 -154 -105.5 -237.5t-289.5 -83.5h-388v75q0 117 140 117h248 q70 0 113.5 32t43.5 97q0 45 -21.5 77t-74.5 48l-180 59q-137 47 -206 118t-69 194zM141 1190l252 295h213l246 -295h-234l-118 164l-127 -164h-232z" />
<glyph unicode="&#x15e;" horiz-adv-x="1183" d="M82 18q0 59 29.5 86t109.5 27h346q139 0 211 52.5t72 154.5q0 72 -48 127t-167 108l-258 115q-150 66 -214.5 166t-64.5 229q0 86 29 156t88 121t150.5 78.5t218.5 27.5h458v-84q0 -68 -34.5 -89t-108.5 -21h-315q-47 0 -91 -9.5t-78 -31t-54.5 -57t-20.5 -91.5 q0 -80 43 -131t131 -92l246 -110q96 -43 159.5 -87.5t102.5 -93.5t54.5 -105t15.5 -124q0 -119 -46.5 -196.5t-121 -123t-166.5 -63.5t-185 -18h-491v79zM455 -590q49 27 80.5 73t35.5 97h-112v258h282v-192q0 -106 -56 -197.5t-159 -132.5z" />
<glyph unicode="&#x15f;" horiz-adv-x="970" d="M98 756q0 53 21.5 108.5t67.5 99.5t117 72.5t171 28.5h361v-82q0 -59 -35 -84t-113 -25h-213q-76 0 -107.5 -35.5t-31.5 -82.5q0 -39 22.5 -73t77.5 -50l189 -62q145 -45 203.5 -122.5t58.5 -188.5q0 -154 -105.5 -237.5t-289.5 -83.5h-388v75q0 117 140 117h248 q70 0 113.5 32t43.5 97q0 45 -21.5 77t-74.5 48l-180 59q-137 47 -206 118t-69 194zM348 -590q49 27 81 73t36 97h-113v258h283v-192q0 -106 -56.5 -197.5t-158.5 -132.5z" />
<glyph unicode="&#x160;" horiz-adv-x="1183" d="M82 18q0 59 29.5 86t109.5 27h346q139 0 211 52.5t72 154.5q0 72 -48 127t-167 108l-258 115q-150 66 -214.5 166t-64.5 229q0 86 29 156t88 121t150.5 78.5t218.5 27.5h458v-84q0 -68 -34.5 -89t-108.5 -21h-315q-47 0 -91 -9.5t-78 -31t-54.5 -57t-20.5 -91.5 q0 -80 43 -131t131 -92l246 -110q96 -43 159.5 -87.5t102.5 -93.5t54.5 -105t15.5 -124q0 -119 -46.5 -196.5t-121 -123t-166.5 -63.5t-185 -18h-491v79zM246 1894h231l127 -163l119 163h233l-245 -295h-213z" />
<glyph unicode="&#x161;" horiz-adv-x="970" d="M98 756q0 53 21.5 108.5t67.5 99.5t117 72.5t171 28.5h361v-82q0 -59 -35 -84t-113 -25h-213q-76 0 -107.5 -35.5t-31.5 -82.5q0 -39 22.5 -73t77.5 -50l189 -62q145 -45 203.5 -122.5t58.5 -188.5q0 -154 -105.5 -237.5t-289.5 -83.5h-388v75q0 117 140 117h248 q70 0 113.5 32t43.5 97q0 45 -21.5 77t-74.5 48l-180 59q-137 47 -206 118t-69 194zM141 1485h232l127 -164l118 164h234l-246 -295h-213z" />
<glyph unicode="&#x162;" horiz-adv-x="1234" d="M37 1272v194h1167v-71q0 -66 -24.5 -94.5t-110.5 -28.5h-330v-1333h-110q-68 0 -98.5 27.5t-30.5 96.5v1209h-463zM481 -590q49 27 81 73t36 97h-113v258h283v-192q0 -106 -56.5 -197.5t-158.5 -132.5z" />
<glyph unicode="&#x163;" horiz-adv-x="751" d="M29 874v191h178v369h237v-369h254v-78q0 -49 -28.5 -81t-122.5 -32h-103v-622q0 -68 27 -94.5t74 -26.5h170v-78q0 -47 -31 -80.5t-117 -33.5h-51q-170 0 -239.5 79.5t-69.5 233.5v622h-178zM242 -590q49 27 80.5 73t35.5 97h-112v258h282v-192q0 -106 -56 -197.5 t-159 -132.5z" />
<glyph unicode="&#x164;" horiz-adv-x="1234" d="M37 1272v194h1167v-71q0 -66 -24.5 -94.5t-110.5 -28.5h-330v-1333h-110q-68 0 -98.5 27.5t-30.5 96.5v1209h-463zM264 1894h232l127 -163l118 163h234l-246 -295h-213z" />
<glyph unicode="&#x165;" horiz-adv-x="1150" d="M29 874v191h178v369h237v-369h254v-78q0 -49 -28.5 -81t-122.5 -32h-103v-622q0 -68 27 -94.5t74 -26.5h170v-78q0 -47 -31 -80.5t-117 -33.5h-51q-170 0 -239.5 79.5t-69.5 233.5v622h-178zM774 1008q49 27 81 72.5t36 97.5h-113v258h283v-193q0 -106 -56.5 -197.5 t-158.5 -132.5z" />
<glyph unicode="&#x166;" horiz-adv-x="1234" d="M37 1272v194h1167v-71q0 -66 -24.5 -94.5t-110.5 -28.5h-330v-475h312v-76q0 -49 -25 -85t-106 -36h-181v-661h-110q-68 0 -98.5 27.5t-30.5 96.5v537h-336v197h336v475h-463z" />
<glyph unicode="&#x167;" horiz-adv-x="751" d="M27 436v195h180v262h-178v190h178v369h237v-369h254v-77q0 -49 -28.5 -81t-122.5 -32h-103v-262h240v-76q0 -49 -24.5 -84t-104.5 -35h-111v-166q0 -68 27 -94t74 -26h170v-78q0 -47 -31 -81t-117 -34h-51q-170 0 -239.5 80t-69.5 233v166h-180z" />
<glyph unicode="&#x168;" horiz-adv-x="1400" d="M154 346v1120h239v-1122q0 -61 10.5 -102t34 -65.5t62.5 -35t96 -10.5h399v1335h240v-1527h-639q-111 0 -194 17t-138 63.5t-82.5 125t-27.5 201.5zM303 1587q0 133 72.5 205t183.5 72q51 0 97 -18.5t81 -37.5q29 -14 55.5 -27.5t49.5 -13.5q39 0 55 26t16 71h189 q0 -125 -67.5 -200t-182.5 -75q-57 0 -98 18.5t-80 39.5q-25 12 -50.5 26.5t-54.5 14.5q-33 0 -55 -24t-25 -77h-186z" />
<glyph unicode="&#x169;" horiz-adv-x="1150" d="M133 348v717h236v-717q0 -68 10 -109.5t31.5 -66.5t56.5 -33t86 -8h219v934h238v-1126h-457q-109 0 -187.5 20.5t-131 68.5t-77 125.5t-24.5 194.5zM162 1178q0 133 72.5 204.5t183.5 71.5q51 0 97 -18.5t81 -36.5q29 -14 55.5 -27.5t48.5 -13.5q39 0 55.5 25.5 t16.5 70.5h189q0 -125 -68 -199.5t-182 -74.5q-57 0 -98.5 18.5t-80.5 38.5q-25 12 -50 26.5t-54 14.5q-33 0 -55.5 -23.5t-24.5 -76.5h-186z" />
<glyph unicode="&#x16a;" horiz-adv-x="1400" d="M154 346v1120h239v-1122q0 -61 10.5 -102t34 -65.5t62.5 -35t96 -10.5h399v1335h240v-1527h-639q-111 0 -194 17t-138 63.5t-82.5 125t-27.5 201.5zM362 1636v179h680v-179h-680z" />
<glyph unicode="&#x16b;" horiz-adv-x="1150" d="M133 348v717h236v-717q0 -68 10 -109.5t31.5 -66.5t56.5 -33t86 -8h219v934h238v-1126h-457q-109 0 -187.5 20.5t-131 68.5t-77 125.5t-24.5 194.5zM221 1227v178h680v-178h-680z" />
<glyph unicode="&#x16c;" horiz-adv-x="1400" d="M154 346v1120h239v-1122q0 -61 10.5 -102t34 -65.5t62.5 -35t96 -10.5h399v1335h240v-1527h-639q-111 0 -194 17t-138 63.5t-82.5 125t-27.5 201.5zM383 1876h188q2 -37 15.5 -60.5t32 -38t41 -19.5t45.5 -5q20 0 42.5 5t41 18.5t32 38t15.5 61.5h188q-4 -135 -89 -211 t-237 -76q-141 0 -226 76t-89 211z" />
<glyph unicode="&#x16d;" horiz-adv-x="1150" d="M133 348v717h236v-717q0 -68 10 -109.5t31.5 -66.5t56.5 -33t86 -8h219v934h238v-1126h-457q-109 0 -187.5 20.5t-131 68.5t-77 125.5t-24.5 194.5zM242 1466h188q2 -37 15.5 -60.5t32 -37.5t41 -19.5t44.5 -5.5q20 0 43 5.5t41.5 18.5t31.5 38t15 61h189 q-4 -135 -89 -210.5t-237 -75.5q-141 0 -226 75.5t-89 210.5z" />
<glyph unicode="&#x16e;" horiz-adv-x="1400" d="M154 346v1120h239v-1122q0 -61 10.5 -102t34 -65.5t62.5 -35t96 -10.5h399v1335h240v-1527h-639q-111 0 -194 17t-138 63.5t-82.5 125t-27.5 201.5zM469 1794q0 100 67.5 162.5t165.5 62.5q102 0 169 -62.5t67 -162.5t-66.5 -162.5t-169.5 -62.5q-98 0 -165.5 62.5 t-67.5 162.5zM618 1794q0 -37 25 -60.5t59 -23.5q35 0 60.5 23.5t25.5 60.5q0 35 -25.5 60.5t-60.5 25.5t-59.5 -25.5t-24.5 -60.5z" />
<glyph unicode="&#x16f;" horiz-adv-x="1150" d="M133 348v717h236v-717q0 -68 10 -109.5t31.5 -66.5t56.5 -33t86 -8h219v934h238v-1126h-457q-109 0 -187.5 20.5t-131 68.5t-77 125.5t-24.5 194.5zM328 1384q0 100 67.5 163t165.5 63q102 0 169 -62.5t67 -163.5q0 -100 -66.5 -162.5t-169.5 -62.5q-98 0 -165.5 62.5 t-67.5 162.5zM477 1384q0 -37 24.5 -60.5t59.5 -23.5t60.5 24t25.5 60q0 35 -25.5 60.5t-60.5 25.5t-59.5 -25.5t-24.5 -60.5z" />
<glyph unicode="&#x170;" horiz-adv-x="1400" d="M154 346v1120h239v-1122q0 -61 10.5 -102t34 -65.5t62.5 -35t96 -10.5h399v1335h240v-1527h-639q-111 0 -194 17t-138 63.5t-82.5 125t-27.5 201.5zM344 1606l158 299h239l-166 -236q-27 -37 -53 -50t-78 -13h-100zM670 1606l157 299h242l-166 -236q-27 -37 -53.5 -50 t-79.5 -13h-100z" />
<glyph unicode="&#x171;" horiz-adv-x="1150" d="M133 348v717h236v-717q0 -68 10 -109.5t31.5 -66.5t56.5 -33t86 -8h219v934h238v-1126h-457q-109 0 -187.5 20.5t-131 68.5t-77 125.5t-24.5 194.5zM203 1196l157 299h240l-166 -235q-27 -37 -53.5 -50.5t-77.5 -13.5h-100zM528 1196l158 299h242l-166 -235 q-27 -37 -53.5 -50.5t-79.5 -13.5h-101z" />
<glyph unicode="&#x172;" horiz-adv-x="1400" d="M154 346v1120h239v-1122q0 -61 10.5 -102t34 -65.5t62.5 -35t96 -10.5h399v1335h240v-1527h-299q-41 -39 -67.5 -87.5t-26.5 -91.5q0 -35 18.5 -57t59.5 -22q18 0 48.5 2t63.5 18v-160q-45 -23 -86 -26.5t-74 -3.5q-111 0 -166 59t-55 141q0 57 25.5 118.5t73.5 109.5 h-154q-111 0 -194 17t-138 63.5t-82.5 125t-27.5 201.5z" />
<glyph unicode="&#x173;" horiz-adv-x="1150" d="M133 348v717h236v-717q0 -68 10 -109.5t31.5 -66.5t56.5 -33t86 -8h219v934h238v-1126h-295q-41 -39 -67.5 -87.5t-26.5 -91.5q0 -35 18 -57t59 -22q18 0 49 2t64 18v-160q-45 -23 -86 -26.5t-74 -3.5q-111 0 -166 59t-55 141q0 57 25.5 118.5t72.5 109.5 q-102 2 -177 24.5t-123 69.5t-71.5 124.5t-23.5 190.5z" />
<glyph unicode="&#x174;" horiz-adv-x="1869" d="M29 1466h241l269 -1226l284 1095h236l282 -1093l271 1224h241l-360 -1527h-156q-135 0 -170 143l-227 893l-264 -1036h-148q-82 0 -119.5 33.5t-54.5 105.5zM584 1599l252 295h213l245 -295h-233l-119 164l-127 -164h-231z" />
<glyph unicode="&#x175;" horiz-adv-x="1507" d="M10 1065h221l193 -844l221 799h213l219 -797l195 842h221l-289 -1126h-129q-57 0 -92 30.5t-49 83.5l-182 678l-217 -792h-121q-78 0 -104.5 31.5t-41.5 88.5zM399 1190l252 295h213l246 -295h-233l-119 164l-127 -164h-232z" />
<glyph unicode="&#x176;" horiz-adv-x="1398" d="M33 1466h262l401 -694l404 694h262l-551 -919v-608h-106q-70 0 -102 26.5t-32 97.5v480zM342 1599l252 295h213l246 -295h-234l-119 164l-127 -164h-231z" />
<glyph unicode="&#x177;" horiz-adv-x="1150" d="M131 305v760h238v-758q0 -88 26.5 -132t102.5 -42q78 2 143.5 7t130.5 12v913h238v-1245q0 -66 -20.5 -122t-63.5 -98t-112 -65.5t-165 -23.5h-467v81q0 66 32 92.5t112 26.5h323q72 0 97.5 30t25.5 81v133q-68 -6 -132.5 -9t-147.5 -7q-188 -6 -274.5 92t-86.5 274z M197 1190l252 295h213l245 -295h-233l-119 164l-127 -164h-231z" />
<glyph unicode="&#x178;" horiz-adv-x="1398" d="M33 1466h262l401 -694l404 694h262l-551 -919v-608h-106q-70 0 -102 26.5t-32 97.5v480zM375 1599v244h248v-244h-248zM774 1599v244h248v-244h-248z" />
<glyph unicode="&#x179;" horiz-adv-x="1282" d="M68 -61v188l825 1145h-801v194h1077v-182l-827 -1153h862v-117q0 -43 -23.5 -59t-64.5 -16h-1048zM453 1606l176 299h250l-187 -236q-29 -35 -57.5 -49t-81.5 -14h-100z" />
<glyph unicode="&#x17a;" horiz-adv-x="1034" d="M74 -61v180l577 755h-551v191h822v-180l-580 -754h604v-106q0 -86 -94 -86h-778zM319 1196l177 299h249l-186 -235q-29 -35 -57.5 -49.5t-81.5 -14.5h-101z" />
<glyph unicode="&#x17b;" horiz-adv-x="1282" d="M68 -61v188l825 1145h-801v194h1077v-182l-827 -1153h862v-117q0 -43 -23.5 -59t-64.5 -16h-1048zM545 1608v235h241v-235h-241z" />
<glyph unicode="&#x17c;" horiz-adv-x="1034" d="M74 -61v180l577 755h-551v191h822v-180l-580 -754h604v-106q0 -86 -94 -86h-778zM391 1198v236h242v-236h-242z" />
<glyph unicode="&#x17d;" horiz-adv-x="1282" d="M68 -61v188l825 1145h-801v194h1077v-182l-827 -1153h862v-117q0 -43 -23.5 -59t-64.5 -16h-1048zM291 1894h231l127 -163l119 163h233l-245 -295h-213z" />
<glyph unicode="&#x17e;" horiz-adv-x="1034" d="M74 -61v180l577 755h-551v191h822v-180l-580 -754h604v-106q0 -86 -94 -86h-778zM158 1485h231l127 -164l119 164h233l-245 -295h-213z" />
<glyph unicode="&#x17f;" horiz-adv-x="897" d="M57 874v191h209v125q0 66 12.5 119t46 90t91 57.5t147.5 20.5h275v-66q0 -125 -150 -125h-125q-39 0 -49 -27.5t-10 -54.5v-1265h-109q-68 0 -98.5 27.5t-30.5 99.5v808h-209z" />
<glyph unicode="&#x180;" horiz-adv-x="1196" d="M31 1186v192h170v99h237v-99h373v-73q0 -49 -24.5 -84t-104.5 -35h-244v-121h199q209 0 317.5 -91t108.5 -274v-395q0 -186 -108.5 -276t-317.5 -90h-436v1247h-170zM438 131h199q86 0 138 47t52 146v356q0 100 -52 147t-136 47h-201v-743z" />
<glyph unicode="&#x181;" horiz-adv-x="1693" d="M63 1038v107q0 90 26 151.5t78 99.5t134 54t197 16h598q106 0 185 -27.5t131 -76.5t76.5 -115.5t24.5 -144.5v-96q0 -82 -38.5 -159t-108.5 -112q92 -37 140 -111.5t48 -166.5v-135q0 -102 -37.5 -175t-101 -119t-146.5 -67.5t-173 -21.5h-598v1333q-92 -2 -144.5 -26.5 t-52.5 -100.5v-107h-238zM735 131h359q115 0 168 59.5t53 141.5v96q0 41 -12.5 78t-38 64.5t-67.5 44t-101 16.5h-361v-500zM735 825h363q53 0 88 17.5t54.5 44t27.5 60.5t8 67v78q0 74 -44 127t-134 53h-363v-447z" />
<glyph unicode="&#x182;" horiz-adv-x="1320" d="M150 -61v1527h921v-75q0 -51 -24.5 -86t-104.5 -35h-555v-447h361q98 0 182 -19.5t145.5 -62.5t96 -114.5t34.5 -175.5v-129q0 -102 -36.5 -175t-99 -119t-146.5 -67.5t-176 -21.5h-598zM387 131h358q115 0 168.5 59.5t53.5 141.5v94q0 41 -12.5 78t-38 64.5t-67.5 44 t-101 16.5h-361v-498z" />
<glyph unicode="&#x183;" horiz-adv-x="1155" d="M154 -61v1527h768v-73q0 -49 -24 -84t-105 -35h-402v-209h199q209 0 317.5 -91t108.5 -274v-395q0 -186 -108.5 -276t-317.5 -90h-436zM391 131h199q86 0 138 47t52 146v356q0 100 -52 147t-136 47h-201v-743z" />
<glyph unicode="&#x184;" horiz-adv-x="1363" d="M33 1174v47l319 274h72v-670h362q98 0 182.5 -19.5t146 -62.5t96 -114.5t34.5 -175.5v-131q0 -102 -35.5 -175t-99 -119t-147.5 -67.5t-179 -21.5h-598v1073zM424 131h358q115 0 169.5 59.5t54.5 141.5v96q0 41 -12.5 78t-39 64.5t-68.5 44t-102 16.5h-360v-500z" />
<glyph unicode="&#x185;" horiz-adv-x="1189" d="M37 1178v45l317 272h72v-430h199q209 0 317.5 -91t108.5 -274v-393q0 -186 -108.5 -276t-317.5 -90h-435v1075zM426 133h199q86 0 138 47t52 146v354q0 100 -52 147t-136 47h-201v-741z" />
<glyph unicode="&#x186;" horiz-adv-x="1191" d="M61 18q0 59 30 86t110 27h426q47 0 82.5 18.5t59.5 49t35 71.5t11 84v690q0 227 -233 228h-500v194h506q223 0 345 -108.5t122 -286.5v-731q0 -88 -32 -162t-87 -127t-132 -82.5t-169 -29.5h-574v79z" />
<glyph unicode="&#x187;" horiz-adv-x="1292" d="M125 340v731q0 178 123 286.5t344 108.5h268q10 160 96 222.5t254 62.5h41v-192h-43q-49 0 -78.5 -23t-29.5 -104v-39q0 -51 -28 -86t-124 -35h-350q-233 0 -233 -228v-690q0 -43 11 -84t34.5 -71.5t59.5 -49t85 -18.5h563v-76q0 -23 -5 -44t-22.5 -37.5t-47 -25.5 t-78.5 -9h-418q-92 0 -169 29.5t-133.5 82.5t-88 127t-31.5 162z" />
<glyph unicode="&#x188;" horiz-adv-x="1148" d="M143 319v361q0 88 32 158.5t88 121t134 78t172 27.5h154q8 160 94 222.5t252 62.5h41v-193h-43q-47 0 -76.5 -20.5t-29.5 -89.5v-52q0 -25 -4.5 -46t-19.5 -38.5t-43 -27t-77 -9.5h-248q-92 0 -140 -49t-48 -145v-358q0 -86 48 -138.5t140 -52.5h400v-76q0 -25 -5.5 -45 t-20.5 -36.5t-45 -25.5t-79 -9h-250q-94 0 -172 26.5t-134 75.5t-88 119.5t-32 158.5z" />
<glyph unicode="&#x189;" horiz-adv-x="1482" d="M63 608v195h193v663h586q127 0 220 -31.5t154.5 -89t91 -134t29.5 -167.5v-688q0 -90 -29.5 -166.5t-91 -132t-154.5 -87t-220 -31.5h-586v669h-193zM494 131h348q121 0 189.5 60.5t68.5 164.5v688q0 113 -68.5 170.5t-189.5 57.5h-348v-469h335v-76q0 -25 -5 -46.5 t-20.5 -37.5t-45 -25.5t-78.5 -9.5h-186v-477z" />
<glyph unicode="&#x18a;" horiz-adv-x="1695" d="M57 1038v95q0 182 104.5 257.5t334.5 75.5h563q127 0 220 -31.5t154.5 -89t91 -134t29.5 -167.5v-688q0 -90 -29.5 -166.5t-91 -132t-154.5 -87t-220 -31.5h-586v1331q-86 -4 -132 -37t-46 -100v-95h-238zM711 131h348q121 0 189.5 60.5t68.5 164.5v688 q0 113 -68.5 170.5t-189.5 57.5h-348v-1141z" />
<glyph unicode="&#x18b;" horiz-adv-x="1308" d="M102 322v137q0 104 35 176t95.5 115t144.5 62t182 19h365v441h-686v194h923v-1527h-600q-90 0 -173 21.5t-146.5 67.5t-101.5 118.5t-38 175.5zM342 332q0 -82 53.5 -141.5t167.5 -59.5h361v506h-363q-59 0 -101 -16.5t-67.5 -44t-38 -64.5t-12.5 -78v-102z" />
<glyph unicode="&#x18c;" horiz-adv-x="1118" d="M113 305v395q0 182 108.5 273.5t319.5 91.5h198v209h-532v192h770v-1527h-436q-211 0 -319.5 90t-108.5 276zM350 324q0 -98 52.5 -145.5t138.5 -47.5h198v743h-200q-86 0 -137.5 -47t-51.5 -147v-356z" />
<glyph unicode="&#x18d;" horiz-adv-x="1181" d="M125 356v293q0 229 120 337t343 108q225 0 344 -107.5t119 -337.5v-293q0 -248 -140 -356q49 -41 77 -91t28 -108q0 -80 -33 -131t-84 -79.5t-114.5 -39t-122.5 -10.5h-340v189h319q74 0 105.5 19.5t31.5 51.5q0 41 -50 75t-142 34q-223 2 -342 107.5t-119 338.5z M362 356q0 -123 57.5 -189.5t166.5 -66.5h2q109 0 167 63.5t58 192.5v293q0 51 -12.5 97.5t-40 81t-69.5 54t-103 19.5q-104 0 -165 -63.5t-61 -188.5v-293z" />
<glyph unicode="&#x18e;" horiz-adv-x="1230" d="M86 51v80l748 2v518h-523q-80 0 -109.5 27t-29.5 86v80h662v430h-586q-80 0 -109.5 26.5t-29.5 85.5v80h964v-1527h-848q-80 0 -109.5 26.5t-29.5 85.5z" />
<glyph unicode="&#x18f;" horiz-adv-x="1392" d="M121 328v303q0 86 43 134t141 48h692v250q0 98 -59 153.5t-150 55.5h-514q-47 0 -76.5 8t-46 23.5t-21.5 36t-5 44.5v82h663q92 0 174 -26.5t143.5 -77.5t96.5 -127t35 -172v-715q0 -102 -34 -179t-93 -128t-141 -76.5t-181 -25.5h-256q-90 0 -165.5 23.5t-130 72.5 t-85 121.5t-30.5 171.5zM360 328q0 -80 43 -138.5t132 -58.5h253q104 0 156.5 62.5t52.5 152.5v338q-16 -33 -57 -49.5t-76 -16.5h-467q-37 0 -37 -40v-250z" />
<glyph unicode="&#x190;" horiz-adv-x="1087" d="M76 385q0 111 52 205t157 143q-82 49 -126 136t-46 206q-2 115 37.5 195t107.5 130t158 72.5t190 22.5q94 0 188.5 -11t200.5 -40v-184q-98 18 -190 30.5t-197 12.5q-115 0 -185.5 -56.5t-70.5 -167.5q0 -135 61.5 -194.5t190.5 -59.5h324v-123q0 -41 -18.5 -56 t-63.5 -15h-242q-141 0 -215 -58.5t-74 -199.5q0 -80 26 -132.5t70 -81t105.5 -39.5t134.5 -11q96 0 173 7t175 23l13 -112q4 -43 -20.5 -60.5t-71.5 -29.5q-20 -4 -94 -15.5t-173 -11.5q-127 0 -233.5 21.5t-183 75.5t-118.5 145.5t-42 232.5z" />
<glyph unicode="&#x191;" horiz-adv-x="1239" d="M41 -266h49q57 0 92 38t35 113v1581h991v-71q0 -53 -27.5 -88t-111.5 -35h-612v-428h686v-74q0 -51 -30 -85t-114 -34h-542v-764q0 -164 -90.5 -255t-260.5 -91h-65v193z" />
<glyph unicode="&#x192;" horiz-adv-x="901" d="M57 874v191h209v125q0 66 12.5 119t46 90t91 57.5t147.5 20.5h275v-66q0 -125 -150 -125h-125q-39 0 -49 -27.5t-10 -54.5v-139h293v-88q0 -29 -13.5 -48.5t-34 -31.5t-45 -17.5t-47.5 -5.5h-153v-989q0 -162 -90 -253t-258 -91h-64v191h49q55 0 90 37.5t35 113.5v991 h-209z" />
<glyph unicode="&#x193;" horiz-adv-x="1415" d="M133 348v715q0 96 35 172t95.5 127t142 77.5t176.5 26.5h385q12 152 99 218.5t249 66.5h61v-192h-63q-49 0 -79 -33t-30 -115v-16q0 -63 -30.5 -93t-114.5 -30h-477q-90 0 -149.5 -55.5t-59.5 -153.5v-717q0 -90 52 -152.5t157 -62.5h243q88 0 131 58.5t43 138.5v247 q0 16 -10 28.5t-37 12.5h-164q-74 0 -107.5 21.5t-33.5 87.5v86h416q96 0 136 -43t40 -129v-311q0 -98 -30.5 -171t-85 -122t-130 -72.5t-166.5 -23.5h-245q-98 0 -180.5 25.5t-142.5 76.5t-93 128t-33 179z" />
<glyph unicode="&#x194;" horiz-adv-x="1310" d="M14 1466h256l385 -909l385 909h256l-514 -1187q20 -47 48 -101.5t50.5 -113t39 -114.5t16.5 -106q0 -133 -72.5 -203.5t-208.5 -70.5q-129 0 -202.5 70.5t-73.5 203.5q0 49 16.5 106.5t40 115t50 111.5t49.5 97zM604 -160q0 -72 51 -71q23 0 38.5 17t15.5 54 q0 23 -12.5 57.5t-41.5 96.5q-16 -33 -33.5 -76t-17.5 -78z" />
<glyph unicode="&#x195;" horiz-adv-x="1843" d="M160 66v1411h235v-412h269q385 0 385 -344v-373q0 -66 10 -107.5t33.5 -66t58.5 -34t84 -9.5h18q117 0 158 53.5t41 165.5v715h238v-729q0 -203 -101.5 -300t-335.5 -97h-18q-109 0 -188.5 20.5t-132 68.5t-78 125.5t-25.5 194.5v371q0 84 -40 119.5t-107 35.5h-269v-935 h-108q-68 0 -97.5 27.5t-29.5 99.5z" />
<glyph unicode="&#x196;" horiz-adv-x="651" d="M172 248v1218l238 -2v-1216q0 -49 23.5 -84t68.5 -35h114v-78q0 -23 -4 -44t-17 -36.5t-39 -24.5t-69 -9h-6q-170 0 -239.5 81.5t-69.5 229.5z" />
<glyph unicode="&#x197;" horiz-adv-x="892" d="M41 659v195h289v612h241v-612h277v-119q0 -41 -19.5 -58.5t-66.5 -17.5h-191v-720h-112q-70 0 -99.5 27.5t-29.5 96.5v596h-289z" />
<glyph unicode="&#x198;" horiz-adv-x="1353" d="M133 66v1400h240v-1527h-113q-66 0 -96.5 29.5t-30.5 97.5zM434 729l395 543q35 49 70 90t82 70.5t112.5 46t163.5 16.5h62v-192h-64q-47 0 -79.5 -10.5t-59 -30t-50.5 -49t-50 -68.5l-299 -416l577 -790h-286z" />
<glyph unicode="&#x199;" horiz-adv-x="1153" d="M154 66v1091q0 182 86 260t260 78h141v-192h-143q-47 0 -77 -32t-30 -112v-1220h-106q-72 0 -101.5 27.5t-29.5 99.5zM428 543l410 522h276l-418 -524l441 -602h-267z" />
<glyph unicode="&#x19a;" horiz-adv-x="884" d="M41 662v192h285v612h239v-612h275v-123q0 -41 -17.5 -55t-62.5 -14h-195v-723h-110q-68 0 -98.5 27.5t-30.5 96.5v599h-285z" />
<glyph unicode="&#x19b;" horiz-adv-x="1150" d="M133 -61v718q0 176 86 274.5t275 92.5q45 -2 78.5 -4t64.5 -4t60.5 -5t66.5 -5v178q0 29 -8 51t-27 37l-266 -213l-131 153l104 84h-108q-80 0 -112 26t-32 91v82h274.5h146.5t60.5 -1t18.5 -1l219 176l129 -156l-125 -98q49 -43 71.5 -101.5t22.5 -127.5v-1247h-237v874 q-66 8 -131.5 11t-130.5 5q-78 2 -104.5 -42t-26.5 -132v-716h-238z" />
<glyph unicode="&#x19c;" horiz-adv-x="1773" d="M147 266v1200h240v-1200q0 -135 123 -135h250v1335h239v-1335h373v1335h240v-1527h-1102q-193 0 -278 77.5t-85 249.5z" />
<glyph unicode="&#x19d;" horiz-adv-x="1472" d="M25 -266h49q57 0 93 38t36 113v1581h639q111 0 193.5 -17t138 -63.5t83 -125t27.5 -201.5v-1120h-108q-68 0 -100 27.5t-32 96.5v998q0 123 -45 167t-157 44h-400v-1385q0 -164 -91 -255t-261 -91h-65v193z" />
<glyph unicode="&#x19e;" horiz-adv-x="1097" d="M102 66v999h465q219 0 319.5 -95.5t100.5 -293.5v-1135h-108q-70 0 -100.5 28t-30.5 99v1008q0 102 -47.5 150t-133.5 48h-227v-935h-104q-70 0 -102 27.5t-32 99.5z" />
<glyph unicode="&#x19f;" horiz-adv-x="1445" d="M123 549v307q0 307 146.5 473t449.5 166q307 0 451.5 -166t144.5 -473v-309q0 -305 -144.5 -471t-451.5 -166q-303 0 -449.5 166t-146.5 473zM362 547q1 -432 357 -432t356 434v61h-713v-63zM362 805h713v53q0 94 -21.5 174t-66.5 138.5t-111.5 90t-156.5 31.5 q-88 0 -154.5 -31.5t-111.5 -90t-68 -138.5t-23 -176v-51z" />
<glyph unicode="&#x1a0;" horiz-adv-x="1746" d="M121 549v307q0 307 146.5 473t449.5 166q248 0 388 -108.5t185 -313.5q111 8 165 50t61 114h-113v258h283v-197q0 -150 -87.5 -238.5t-289.5 -94.5q2 -27 3 -53.5t1 -55.5v-309q0 -305 -144.5 -471t-451.5 -166q-303 0 -449.5 166t-146.5 473zM360 547q0 -432 357 -432 q356 0 356 434v309q0 94 -21.5 174t-66.5 138.5t-111.5 90t-156.5 31.5q-88 0 -154.5 -31.5t-111.5 -90t-68 -138.5t-23 -176v-309z" />
<glyph unicode="&#x1a1;" horiz-adv-x="1513" d="M123 356v293q0 229 120 337t343 108q219 0 337.5 -101.5t125.5 -318.5q100 10 150 52t56 110h-112v258h282v-197q0 -150 -87 -239t-289 -95v-207q0 -229 -117 -337.5t-346 -108.5q-223 0 -343 106.5t-120 339.5zM360 356q0 -123 58.5 -189.5t167.5 -66.5t167 63.5 t58 192.5v293q0 51 -12.5 97.5t-40 81t-69.5 54t-103 19.5q-104 0 -165 -63.5t-61 -188.5v-293z" />
<glyph unicode="&#x1a2;" horiz-adv-x="1857" d="M123 561v281q0 313 145.5 468.5t450.5 155.5h600q86 0 155.5 -13t117.5 -48t74 -93.5t26 -150.5v-1620h-113q-68 0 -98.5 28t-30.5 97v1495q0 41 -11.5 63.5t-29.5 33t-40.5 12.5t-47.5 2h-145v-1333h-457q-305 0 -450.5 154.5t-145.5 467.5zM362 559q0 -217 89.5 -317.5 t267.5 -100.5h217v1121h-217q-178 0 -267.5 -107.5t-89.5 -312.5v-283z" />
<glyph unicode="&#x1a3;" horiz-adv-x="1554" d="M129 385v236q0 229 120 336.5t341 107.5h457q86 0 154.5 -15.5t116.5 -52t73.5 -98t25.5 -151.5v-1207h-110q-70 0 -99.5 28t-29.5 97v1084q0 39 -11.5 63.5t-30 37.5t-41 17t-46.5 4h-74v-933h-385q-221 0 -341 106.5t-120 339.5zM365 385q0 -123 58 -189.5t167 -66.5 h147v743h-147q-104 0 -164.5 -63.5t-60.5 -187.5v-236z" />
<glyph unicode="&#x1a4;" horiz-adv-x="1619" d="M57 1038v95q0 174 104.5 253.5t334.5 79.5h557q106 0 190 -20.5t142.5 -66.5t89 -119.5t30.5 -180.5v-192q0 -55 -12 -122t-57 -126t-136.5 -99t-246.5 -40h-326v-561h-106q-72 0 -103 27.5t-31 96.5v1209q-92 -4 -142 -32t-50 -107v-95h-238zM727 696h326q213 0 213 191 v192q0 86 -48.5 137.5t-164.5 51.5h-326v-572z" />
<glyph unicode="&#x1a5;" horiz-adv-x="1144" d="M154 -330v1506q0 176 86 247.5t260 71.5h139v-192h-141q-47 0 -77 -28t-30 -99v-111h207q418 0 418 -381v-305q0 -199 -108.5 -289t-309.5 -90h-207v-459h-108q-70 0 -99.5 29t-29.5 100zM391 193h207q180 0 180 186v305q0 92 -44 141t-136 49h-207v-681z" />
<glyph unicode="&#x1a6;" horiz-adv-x="1316" d="M143 63v1403h238l2 -200h369q109 0 190.5 -27t136 -73t82 -109.5t27.5 -138.5v-162q0 -55 -13.5 -108.5t-43 -98.5t-76.5 -80t-115 -53l315 -682h-260l-297 651h-315v-446h-113q-68 0 -97.5 27.5t-29.5 96.5zM383 584h369q96 0 146 48t50 142v113q0 84 -48 133t-148 49 h-369v-485z" />
<glyph unicode="&#x1a7;" horiz-adv-x="1200" d="M100 340q0 68 15.5 124t54.5 105t102.5 93.5t159.5 87.5l246 110q88 41 131 92.5t43 130.5q0 55 -20.5 91t-54.5 57.5t-78 31t-91 9.5h-315q-74 0 -108.5 21.5t-34.5 88.5v84h458q125 0 217.5 -27.5t151.5 -78.5t88 -121t29 -156q0 -129 -64.5 -229t-214.5 -166 l-258 -115q-119 -53 -167 -108t-48 -127q0 -102 71.5 -154.5t211.5 -52.5h346q80 0 109.5 -26.5t29.5 -86.5v-79h-492q-92 0 -184 18t-166.5 63.5t-121 123t-46.5 196.5z" />
<glyph unicode="&#x1a8;" horiz-adv-x="970" d="M86 260q0 111 58.5 188.5t203.5 122.5l189 62q55 16 77.5 50t22.5 73q0 47 -32 82.5t-107 35.5h-213q-78 0 -113 25t-35 84v82h361q100 0 170.5 -28.5t116.5 -72.5t67.5 -99.5t21.5 -108.5q0 -123 -68.5 -193.5t-205.5 -118.5l-180 -59q-53 -16 -74.5 -48t-21.5 -77 q0 -66 44 -97.5t113 -31.5h248q139 0 139 -117v-75h-387q-184 0 -289.5 83.5t-105.5 237.5z" />
<glyph unicode="&#x1a9;" horiz-adv-x="1159" d="M113 -61v186l444 584l-444 567v190h950v-73q0 -51 -24.5 -86t-106.5 -35h-547l444 -559l-448 -582h698v-74q0 -49 -23.5 -83.5t-105.5 -34.5h-837z" />
<glyph unicode="&#x1aa;" horiz-adv-x="817" d="M43 1262q0 53 19.5 96t52 73.5t78 47t96.5 16.5q133 0 213 -68.5t80 -193.5v-1380q0 -49 23.5 -85t68.5 -36h160v-76q0 -47 -31 -81t-119 -34h-31q-170 0 -239.5 82t-69.5 230v1179q-16 -4 -29.5 -4h-29.5q-104 0 -173 64.5t-69 169.5zM217 1262q0 -31 17.5 -51.5 t50.5 -20.5q29 0 48 19.5t19 52.5q0 35 -19.5 54t-47.5 19q-29 0 -48.5 -19t-19.5 -54z" />
<glyph unicode="&#x1ab;" horiz-adv-x="782" d="M31 874v191h178v369h237v-369h254v-78q0 -49 -28.5 -81t-122.5 -32h-103v-622q0 -49 13.5 -85t60.5 -36h197v-246q0 -162 -100.5 -253t-268.5 -91h-65v191h51q55 0 100 37.5t45 113.5v58q-147 10 -208.5 90t-61.5 221v622h-178z" />
<glyph unicode="&#x1ac;" horiz-adv-x="1394" d="M57 1038v95q0 86 18.5 148t62.5 104t120 61.5t191 19.5h897v-71q0 -66 -25 -94.5t-113 -28.5h-350v-1333h-110q-68 0 -99 27.5t-31 96.5v1209h-182q-84 0 -112.5 -40t-28.5 -99v-95h-238z" />
<glyph unicode="&#x1ad;" horiz-adv-x="780" d="M29 874v191h178v111q0 172 86 245.5t260 73.5h145v-192h-147q-47 0 -77 -28t-30 -99v-111h254v-78q0 -49 -28.5 -81t-122.5 -32h-103v-622q0 -121 115 -121h156v-78q0 -47 -30 -80.5t-118 -33.5h-49q-170 0 -240.5 81.5t-70.5 231.5v622h-178z" />
<glyph unicode="&#x1ae;" horiz-adv-x="1234" d="M37 1272v194h1167v-71q0 -66 -24.5 -94.5t-110.5 -28.5h-352v-1387q0 -80 41 -115.5t106 -35.5h31v-193h-45q-170 0 -271.5 80t-101.5 266v1385h-440z" />
<glyph unicode="&#x1af;" horiz-adv-x="1738" d="M154 346v1120h239v-1122q0 -61 10.5 -102t34 -65.5t62.5 -35t96 -10.5h399v1335h240v-393q117 4 174 47t64 117h-113v258h282v-197q0 -156 -93 -244.5t-314 -88.5v-1026h-639q-111 0 -194 17t-138 63.5t-82.5 125t-27.5 201.5z" />
<glyph unicode="&#x1b0;" horiz-adv-x="1507" d="M133 348v717h236v-717q0 -68 10 -109.5t31.5 -66.5t56.5 -33t86 -8h219v934h238v-393q113 6 170 49t63 115h-113v258h283v-197q0 -154 -93 -244t-310 -90v-624h-457q-109 0 -187.5 20.5t-131 68.5t-77 125.5t-24.5 194.5z" />
<glyph unicode="&#x1b1;" horiz-adv-x="1447" d="M78 1272v194h536v-194h-4q-135 -37 -192.5 -151.5t-57.5 -278.5v-283q0 -217 89.5 -330.5t267.5 -113.5q180 0 268 113.5t88 332.5v283q0 160 -55 274.5t-189 153.5h-10v194h545v-71q0 -66 -24.5 -94.5t-112.5 -28.5h-60q68 -78 107 -184.5t39 -245.5v-283 q0 -311 -144.5 -480t-451.5 -169q-303 0 -449.5 170t-146.5 481v281q0 135 39 242.5t108 187.5h-190z" />
<glyph unicode="&#x1b2;" horiz-adv-x="1400" d="M150 463v1003h239v-1003q0 -104 19.5 -173t57.5 -110t96.5 -58.5t137.5 -17.5q154 0 232 123t78 336v608q0 72 -34 102t-95 30h-144v192h142q193 0 281.5 -76t88.5 -248v-608q0 -152 -30.5 -272.5t-97 -204.5t-171 -130t-250.5 -46q-293 0 -421.5 136t-128.5 417z" />
<glyph unicode="&#x1b3;" horiz-adv-x="1449" d="M51 1466h262l402 -694l264 455q37 61 67.5 107t70.5 75t97.5 43t143.5 14h61v-194h-63q-35 0 -55.5 -5t-39 -20.5t-37 -44t-44.5 -74.5l-351 -583v-606h-106q-70 0 -101.5 26.5t-31.5 97.5v480z" />
<glyph unicode="&#x1b4;" horiz-adv-x="1220" d="M133 346v719h238v-717q0 -88 26.5 -132t102.5 -42q78 2 143.5 7t130.5 12v983q0 172 88 245.5t262 73.5h56v-192h-58q-47 0 -78.5 -28t-31.5 -99v-1356q0 -66 -20.5 -122t-63.5 -98t-111.5 -65.5t-165.5 -23.5h-467v81q0 66 32 92.5t112 26.5h323q72 0 97.5 30t25.5 81 v174q-68 -6 -132 -9t-148 -7q-188 -6 -274.5 92t-86.5 274z" />
<glyph unicode="&#x1b5;" horiz-adv-x="1302" d="M61 639v197h533l315 436h-800v194h1077v-182l-322 -448h357v-121q0 -43 -23.5 -59.5t-64.5 -16.5h-410l-365 -508h863v-117q0 -43 -23.5 -59t-64.5 -16h-1049v188l369 512h-392z" />
<glyph unicode="&#x1b6;" horiz-adv-x="1015" d="M68 416v192h376l203 266h-551v191h822v-180l-213 -277h202v-108q0 -84 -96 -84h-256l-217 -283h604v-108q0 -86 -94 -86h-778v180l227 297h-229z" />
<glyph unicode="&#x1b7;" horiz-adv-x="1179" d="M55 -342q0 53 32 79.5t97 16.5q57 -8 121 -12t133 -4q74 0 149 19.5t135 66.5t97 128t37 202q0 231 -85 334.5t-284 103.5h-63q-45 0 -63.5 14.5t-18.5 57.5v118l416 488h-682v196h981v-184l-441 -504q137 -20 229.5 -72.5t148 -131t79 -182t23.5 -226.5q0 -166 -46 -285 t-132.5 -195.5t-208 -111.5t-273.5 -33q-49 0 -91 2t-86 6.5t-93 9.5t-111 15v84z" />
<glyph unicode="&#x1b8;" horiz-adv-x="1179" d="M76 166q0 102 23.5 203.5t78.5 185.5t147.5 143.5t231.5 81.5q-111 129 -221.5 251t-220.5 251v184h981v-196h-682q102 -121 206.5 -243t208.5 -241v-122q0 -43 -18 -57.5t-63 -14.5h-64q-180 0 -274.5 -102.5t-94.5 -335.5q0 -121 37 -202t97.5 -128t135 -66.5 t148.5 -19.5q98 0 191.5 9t195.5 30l13 -107q4 -41 -17.5 -58.5t-50.5 -27.5q-18 -6 -54 -14t-81 -14.5t-96.5 -10.5t-98.5 -4q-147 0 -268 38t-208 115t-135 194.5t-48 277.5z" />
<glyph unicode="&#x1b9;" horiz-adv-x="1105" d="M76 66q0 92 29.5 176t87 150.5t140.5 111.5t187 59q-102 80 -204.5 160t-202.5 160v182h893v-193h-560q92 -74 187.5 -149.5t187.5 -147.5v-116q0 -41 -18.5 -56.5t-63.5 -15.5h-61q-188 0 -276.5 -77t-88.5 -257q0 -80 28 -140t76 -99t112.5 -58.5t136.5 -19.5 q94 0 170.5 8t173.5 25l12 -109q4 -41 -17.5 -59.5t-68.5 -30.5q-20 -4 -95 -16.5t-173 -12.5q-276 0 -434 130t-158 395z" />
<glyph unicode="&#x1ba;" horiz-adv-x="1107" d="M96 872v193h895v-180l-385 -281q92 -2 170 -20.5t134.5 -55t87 -96t30.5 -141.5q0 -88 -31.5 -148.5t-93 -99.5t-151.5 -59.5t-207 -30.5q-211 -18 -211 -127q0 -20 6 -42t26.5 -40t61.5 -29.5t109 -11.5h428v-106q0 -86 -95 -86h-338q-129 0 -211.5 25.5t-131 68.5 t-67 100t-18.5 123q0 80 31 136t87.5 94t136 58.5t176.5 30.5q123 14 189.5 44t66.5 98q0 76 -53.5 106.5t-192.5 30.5h-168q-45 0 -63.5 15.5t-18.5 56.5v114l358 260h-557z" />
<glyph unicode="&#x1bb;" horiz-adv-x="1077" d="M61 647v193h588q47 47 64.5 98t17.5 104q0 102 -72.5 168t-197.5 66q-80 0 -167 -9.5t-198 -39.5v192q47 12 89 21.5t85 15.5t89.5 8t101.5 2q117 0 212 -29.5t160.5 -84t101.5 -133t34 -177.5q-2 -119 -45 -202h94v-78q0 -49 -25.5 -82t-103.5 -33h-144l-380 -276 q-35 -25 -47.5 -58.5t-12.5 -72.5v-109h678v-78q0 -49 -26.5 -81.5t-102.5 -32.5h-629q-84 0 -119.5 27.5t-35.5 111.5v174q0 90 35.5 151.5t103.5 110.5l182 133h-330z" />
<glyph unicode="&#x1bc;" horiz-adv-x="1140" d="M35 1272v194h981v-94q0 -59 -33 -79.5t-82 -20.5h-475v-410h133q135 0 228.5 -32.5t151.5 -93t84 -145.5t26 -188q0 -238 -115 -365.5t-381 -127.5q-66 0 -172.5 9t-212.5 28v84q0 33 11 51t27.5 28.5t36 12.5t38.5 0q59 -4 128.5 -10.5t125.5 -8.5q80 -2 133 15.5 t84.5 54.5t44 94.5t12.5 134.5q0 47 -11.5 95.5t-41 86.5t-79.5 61.5t-130 23.5h-361v602h-151z" />
<glyph unicode="&#x1bd;" horiz-adv-x="1019" d="M35 874v191h852v-92q0 -59 -32 -79t-81 -20h-352v-212h90q408 0 408 -361q0 -184 -111 -287.5t-334 -103.5q-63 0 -141 8t-182 27v82q0 33 11 51t28.5 27.5t38 10.5t36.5 1q47 -4 97.5 -10.5t93.5 -6.5q113 0 169 43t56 158q0 27 -6 56.5t-25.5 55t-55.5 42t-93 16.5 h-318v403h-149z" />
<glyph unicode="&#x1be;" horiz-adv-x="1019" d="M29 874v191h178v289h237v-289h265v-92q0 -59 -32 -79t-81 -20h-152v-90q0 -49 20.5 -79.5t88.5 -36.5q193 -16 290 -108.5t97 -258.5q0 -184 -103.5 -287.5t-328.5 -103.5q-66 0 -141.5 8t-180.5 27v82q0 33 11.5 51t28 27.5t37 10.5t36.5 1q45 -4 96 -10.5t94 -6.5 q111 0 162 43t51 158q0 27 -7 54.5t-26.5 51t-56.5 42t-96 24.5q-168 18 -238.5 91t-70.5 220v90h-178z" />
<glyph unicode="&#x1bf;" horiz-adv-x="1116" d="M154 -330v1395h436q418 0 418 -381v-264q0 -88 -29 -154.5t-75 -118t-103.5 -92.5t-116.5 -78l-295 -184v-252h-106q-70 0 -99.5 29t-29.5 100zM389 33l248 157q47 31 90 90.5t43 139.5v264q0 92 -44 141t-136 49h-201v-841z" />
<glyph unicode="&#x1c0;" horiz-adv-x="575" d="M172 63v1403h240v-1527h-111q-70 0 -99.5 27.5t-29.5 96.5z" />
<glyph unicode="&#x1c1;" horiz-adv-x="976" d="M172 63v1403h240v-1527h-111q-68 0 -98.5 27.5t-30.5 96.5zM569 63v1403h240v-1527h-111q-70 0 -99.5 27.5t-29.5 96.5z" />
<glyph unicode="&#x1c2;" horiz-adv-x="884" d="M41 440v195h285v246h-285v194h285v391h239v-391h275v-96q0 -59 -32 -78.5t-81 -19.5h-162v-246h275v-96q0 -59 -32 -79t-81 -20h-162v-501h-110q-68 0 -98.5 27.5t-30.5 96.5v377h-285z" />
<glyph unicode="&#x1c3;" horiz-adv-x="710" d="M217 1516h277l-37 -1080h-207zM221 -61v260h260v-260h-260z" />
<glyph unicode="&#x1c4;" horiz-adv-x="2621" d="M152 -61v1527h565q131 0 228 -33.5t161.5 -93t95.5 -140.5t31 -175v-647q0 -94 -31 -175t-95.5 -139.5t-161.5 -91t-228 -32.5h-565zM389 131h328q129 0 203.5 65.5t74.5 180.5v647q0 123 -74.5 185.5t-203.5 62.5h-328v-1141zM1378 -61v188l826 1145h-801v194h1077v-182 l-827 -1153h862v-117q0 -43 -23.5 -59t-64.5 -16h-1049zM1595 1886h232l127 -164l119 164h233l-246 -295h-213z" />
<glyph unicode="&#x1c5;" horiz-adv-x="2338" d="M152 -61v1527h565q131 0 228 -33.5t161.5 -93t95.5 -140.5t31 -175v-647q0 -94 -31 -175t-95.5 -139.5t-161.5 -91t-228 -32.5h-565zM389 131h328q129 0 203.5 65.5t74.5 180.5v647q0 123 -74.5 185.5t-203.5 62.5h-328v-1141zM1382 -61v180l578 755h-551v191h821v-180 l-579 -754h604v-106q0 -86 -94 -86h-779zM1470 1485h232l127 -164l119 164h233l-246 -295h-213z" />
<glyph unicode="&#x1c6;" horiz-adv-x="2084" d="M119 305v395q0 182 108.5 273.5t317.5 91.5h200v412h238v-1538h-438q-209 0 -317.5 90t-108.5 276zM356 324q0 -98 51.5 -145.5t137.5 -47.5h200v743h-202q-84 0 -135.5 -47t-51.5 -147v-356zM1116 -61v180l578 755h-551v191h821v-180l-580 -754h605v-106q0 -86 -95 -86 h-778zM1225 1485h231l127 -164l119 164h233l-245 -295h-213z" />
<glyph unicode="&#x1c7;" horiz-adv-x="2004" d="M152 -61v1527h239v-1335h694v-74q0 -63 -26.5 -90.5t-97.5 -27.5h-809zM1169 18q0 66 31 89.5t107 23.5h127q96 0 141 45t45 158v1132h242v-1132q0 -203 -100.5 -299t-327.5 -96h-265v79z" />
<glyph unicode="&#x1c8;" horiz-adv-x="1785" d="M152 -61v1527h239v-1335h694v-74q0 -63 -26.5 -90.5t-97.5 -27.5h-809zM1100 -410q0 57 34.5 86t92.5 29h49q63 0 94 36t31 101v1223h237v-1223q0 -174 -95 -252.5t-267 -78.5h-176v79zM1397 1360v135h245v-274h-90q-66 0 -110.5 35.5t-44.5 103.5z" />
<glyph unicode="&#x1c9;" horiz-adv-x="1148" d="M150 66v1411h237v-1538h-108q-68 0 -98.5 27.5t-30.5 99.5zM461 -410q0 57 34.5 86t92.5 29h49q63 0 94 36t31 101v1223h237v-1223q0 -174 -95 -252.5t-267 -78.5h-176v79zM758 1360v135h246v-274h-91q-66 0 -110.5 35.5t-44.5 103.5z" />
<glyph unicode="&#x1ca;" horiz-adv-x="2267" d="M152 63v1403h639q111 0 193.5 -17t138 -63.5t83 -125t27.5 -201.5v-1120h-109q-68 0 -99.5 27.5t-31.5 96.5v998q0 123 -45 167t-157 44h-400v-1333h-110q-70 0 -99.5 27.5t-29.5 96.5zM1430 18q0 66 30.5 89.5t106.5 23.5h127q96 0 141 45t45 158v1132h242v-1132 q0 -203 -100.5 -299t-327.5 -96h-264v79z" />
<glyph unicode="&#x1cb;" horiz-adv-x="2068" d="M152 63v1403h639q111 0 193.5 -17t138 -63.5t83 -125t27.5 -201.5v-1120h-109q-68 0 -99.5 27.5t-31.5 96.5v998q0 123 -45 167t-157 44h-400v-1333h-110q-70 0 -99.5 27.5t-29.5 96.5zM1380 -410q0 57 35 86t92 29h49q63 0 94 36t31 101v1223h238v-1223 q0 -174 -95 -252.5t-268 -78.5h-176v79zM1677 1360v135h246v-274h-90q-66 0 -111 35.5t-45 103.5z" />
<glyph unicode="&#x1cc;" horiz-adv-x="1742" d="M143 66v999h494q109 0 183.5 -19.5t120.5 -62.5t65.5 -111.5t19.5 -164.5v-768h-108q-68 0 -99 27.5t-31 99.5v641q0 98 -32.5 132.5t-118.5 34.5h-256v-935h-105q-72 0 -102.5 27.5t-30.5 99.5zM1061 -410q0 57 34.5 86t92.5 29h49q63 0 94 36t31 101v1223h237v-1223 q0 -174 -95 -252.5t-267 -78.5h-176v79zM1358 1360v135h246v-274h-91q-66 0 -110.5 35.5t-44.5 103.5z" />
<glyph unicode="&#x1cd;" horiz-adv-x="1368" d="M35 -61l512 1527h184q41 0 74 -24.5t43 -59.5l487 -1443h-243l-164 510q-27 -29 -72 -50.5t-102 -21.5h-334l-139 -438h-246zM328 1894h231l127 -163l119 163h233l-245 -295h-213zM483 575h400l-199 621z" />
<glyph unicode="&#x1ce;" horiz-adv-x="1114" d="M113 246v125q0 176 101 253.5t278 73.5q76 -2 132 -5t119 -11v68q0 57 -32.5 90.5t-104.5 33.5h-266q-47 0 -77 8.5t-45 24t-20 35t-5 43.5v80h413q197 0 286 -81t89 -234v-811h-489q-176 0 -277.5 76.5t-101.5 230.5zM201 1485h231l127 -164l119 164h233l-245 -295h-213 zM350 254q0 -37 13.5 -61.5t35 -38t47 -18.5t48.5 -5h249v352q-72 8 -134 11.5t-115 3.5q-74 0 -109 -31t-35 -105v-108z" />
<glyph unicode="&#x1cf;" horiz-adv-x="577" d="M-66 1894h232l127 -163l119 163h233l-246 -295h-213zM172 63v1403h242v-1527h-113q-70 0 -99.5 27.5t-29.5 96.5z" />
<glyph unicode="&#x1d0;" horiz-adv-x="526" d="M-98 1485h231l127 -164l119 164h233l-245 -295h-213zM141 66v999h238v-1126h-107q-72 0 -101.5 27.5t-29.5 99.5z" />
<glyph unicode="&#x1d1;" horiz-adv-x="1437" d="M121 549v307q0 307 146.5 473t449.5 166q307 0 451.5 -166t144.5 -473v-309q0 -305 -144.5 -471t-451.5 -166q-303 0 -449.5 166t-146.5 473zM352 1894h232l127 -163l118 163h234l-246 -295h-213zM360 547q0 -432 357 -432q356 0 356 434v309q0 94 -21.5 174t-66.5 138.5 t-111.5 90t-156.5 31.5q-88 0 -154.5 -31.5t-111.5 -90t-68 -138.5t-23 -176v-309z" />
<glyph unicode="&#x1d2;" horiz-adv-x="1175" d="M123 356v293q0 229 120 337t343 108q225 0 344 -107.5t119 -337.5v-293q0 -229 -117 -337.5t-346 -108.5q-223 0 -343 106.5t-120 339.5zM215 1485h231l127 -164l119 164h234l-246 -295h-213zM360 356q0 -123 58.5 -189.5t167.5 -66.5t167 63.5t58 192.5v293 q0 51 -12.5 97.5t-40 81t-69.5 54t-103 19.5q-104 0 -165 -63.5t-61 -188.5v-293z" />
<glyph unicode="&#x1d3;" horiz-adv-x="1400" d="M154 346v1120h239v-1122q0 -61 10.5 -102t34 -65.5t62.5 -35t96 -10.5h399v1335h240v-1527h-639q-111 0 -194 17t-138 63.5t-82.5 125t-27.5 201.5zM356 1894h232l127 -163l119 163h233l-246 -295h-213z" />
<glyph unicode="&#x1d4;" horiz-adv-x="1150" d="M133 348v717h236v-717q0 -68 10 -109.5t31.5 -66.5t56.5 -33t86 -8h219v934h238v-1126h-457q-109 0 -187.5 20.5t-131 68.5t-77 125.5t-24.5 194.5zM215 1485h231l127 -164l119 164h234l-246 -295h-213z" />
<glyph unicode="&#x1d5;" horiz-adv-x="1400" d="M154 346v1120h239v-1122q0 -61 10.5 -102t34 -65.5t62.5 -35t96 -10.5h399v1335h240v-1527h-639q-111 0 -194 17t-138 63.5t-82.5 125t-27.5 201.5zM362 1890v178h680v-178h-680zM387 1563v219h248v-219h-248zM786 1563v219h248v-219h-248z" />
<glyph unicode="&#x1d6;" horiz-adv-x="1150" d="M133 348v717h236v-717q0 -68 10 -109.5t31.5 -66.5t56.5 -33t86 -8h219v934h238v-1126h-457q-109 0 -187.5 20.5t-131 68.5t-77 125.5t-24.5 194.5zM221 1550v179h680v-179h-680zM244 1190v244h248v-244h-248zM643 1190v244h248v-244h-248z" />
<glyph unicode="&#x1d7;" horiz-adv-x="1400" d="M154 346v1120h239v-1122q0 -61 10.5 -102t34 -65.5t62.5 -35t96 -10.5h399v1335h240v-1527h-639q-111 0 -194 17t-138 63.5t-82.5 125t-27.5 201.5zM406 1542v219h247v-219h-247zM498 1810l176 299h250l-187 -235q-29 -35 -57.5 -49.5t-81.5 -14.5h-100zM805 1542v219 h248v-219h-248z" />
<glyph unicode="&#x1d8;" horiz-adv-x="1150" d="M133 348v717h236v-717q0 -68 10 -109.5t31.5 -66.5t56.5 -33t86 -8h219v934h238v-1126h-457q-109 0 -187.5 20.5t-131 68.5t-77 125.5t-24.5 194.5zM244 1190v244h248v-244h-248zM356 1522l176 299h250l-186 -236q-29 -35 -57.5 -49t-81.5 -14h-101zM643 1190v244h248 v-244h-248z" />
<glyph unicode="&#x1d9;" horiz-adv-x="1400" d="M154 346v1120h239v-1122q0 -61 10.5 -102t34 -65.5t62.5 -35t96 -10.5h399v1335h240v-1527h-639q-111 0 -194 17t-138 63.5t-82.5 125t-27.5 201.5zM336 2126h231l127 -164l119 164h234l-246 -295h-213zM379 1542v219h248v-219h-248zM778 1542v219h248v-219h-248z" />
<glyph unicode="&#x1da;" horiz-adv-x="1150" d="M133 348v717h236v-717q0 -68 10 -109.5t31.5 -66.5t56.5 -33t86 -8h219v934h238v-1126h-457q-109 0 -187.5 20.5t-131 68.5t-77 125.5t-24.5 194.5zM209 1821h231l127 -164l119 164h234l-246 -295h-213zM244 1190v244h248v-244h-248zM643 1190v244h248v-244h-248z" />
<glyph unicode="&#x1db;" horiz-adv-x="1400" d="M154 346v1120h239v-1122q0 -61 10.5 -102t34 -65.5t62.5 -35t96 -10.5h399v1335h240v-1527h-639q-111 0 -194 17t-138 63.5t-82.5 125t-27.5 201.5zM385 1542v219h248v-219h-248zM467 2130h250l176 -299h-100q-53 0 -83 14.5t-57 48.5zM784 1542v219h248v-219h-248z" />
<glyph unicode="&#x1dc;" horiz-adv-x="1150" d="M133 348v717h236v-717q0 -68 10 -109.5t31.5 -66.5t56.5 -33t86 -8h219v934h238v-1126h-457q-109 0 -187.5 20.5t-131 68.5t-77 125.5t-24.5 194.5zM244 1190v244h248v-244h-248zM346 1823h250l176 -299h-100q-53 0 -83 14t-57 49zM643 1190v244h248v-244h-248z" />
<glyph unicode="&#x1dd;" horiz-adv-x="1134" d="M121 307v158q0 78 40 120t136 42h485v121q0 84 -43 118.5t-121 34.5h-317q-47 0 -76.5 8.5t-45 23.5t-20.5 34.5t-5 44.5v82h464q182 0 291 -88t109 -258v-402q0 -109 -36 -186.5t-96.5 -126.5t-141 -71.5t-171.5 -22.5q-98 0 -181 23.5t-143.5 69.5t-94 114.5 t-33.5 160.5zM358 307q0 -82 55.5 -129t159.5 -47q96 0 152.5 47t56.5 129v127h-389q-14 0 -24.5 -9t-10.5 -32v-86z" />
<glyph unicode="&#x1de;" horiz-adv-x="1368" d="M35 -61l512 1527h184q41 0 74 -24.5t43 -59.5l487 -1443h-243l-164 510q-27 -29 -72 -50.5t-102 -21.5h-334l-139 -438h-246zM344 1851v179h680v-179h-680zM362 1542v219h248v-219h-248zM483 575h400l-199 621zM762 1542v219h248v-219h-248z" />
<glyph unicode="&#x1df;" horiz-adv-x="1114" d="M113 246v125q0 176 101 253.5t278 73.5q76 -2 132 -5t119 -11v68q0 57 -32.5 90.5t-104.5 33.5h-266q-47 0 -77 8.5t-45 24t-20 35t-5 43.5v80h413q197 0 286 -81t89 -234v-811h-489q-176 0 -277.5 76.5t-101.5 230.5zM207 1550v179h680v-179h-680zM229 1190v244h248 v-244h-248zM350 254q0 -37 13.5 -61.5t35 -38t47 -18.5t48.5 -5h249v352q-72 8 -134 11.5t-115 3.5q-74 0 -109 -31t-35 -105v-108zM629 1190v244h248v-244h-248z" />
<glyph unicode="&#x1e0;" horiz-adv-x="1368" d="M35 -61l512 1527h184q41 0 74 -24.5t43 -59.5l487 -1443h-243l-164 510q-27 -29 -72 -50.5t-102 -21.5h-334l-139 -438h-246zM334 1872v178h680v-178h-680zM483 575h400l-199 621zM563 1544v236h242v-236h-242z" />
<glyph unicode="&#x1e1;" horiz-adv-x="1114" d="M113 246v125q0 176 101 253.5t278 73.5q76 -2 132 -5t119 -11v68q0 57 -32.5 90.5t-104.5 33.5h-266q-47 0 -77 8.5t-45 24t-20 35t-5 43.5v80h413q197 0 286 -81t89 -234v-811h-489q-176 0 -277.5 76.5t-101.5 230.5zM207 1571v178h680v-178h-680zM350 254 q0 -37 13.5 -61.5t35 -38t47 -18.5t48.5 -5h249v352q-72 8 -134 11.5t-115 3.5q-74 0 -109 -31t-35 -105v-108zM436 1200v236h242v-236h-242z" />
<glyph unicode="&#x1e2;" horiz-adv-x="2070" d="M35 -61l676 1527h1274v-69q0 -59 -25 -92t-107 -33h-596v-430h664v-74q0 -49 -23.5 -84t-105.5 -35h-535v-518h752v-74q0 -49 -24.5 -83.5t-104.5 -34.5h-862v493q-29 -25 -69 -40t-91 -15h-371l-192 -438h-260zM575 575h443v697h-135zM768 1638v179h680v-179h-680z" />
<glyph unicode="&#x1e3;" horiz-adv-x="1751" d="M113 246v125q0 176 101 253.5t278 73.5q76 -2 132 -5t119 -11v70q0 57 -32.5 89.5t-104.5 32.5h-266q-47 0 -77 8.5t-45 24t-20 35t-5 43.5v80h413q98 0 161.5 -19.5t109.5 -62.5q53 53 134 82t177 29q98 0 181 -27t143.5 -77t94 -121.5t33.5 -161.5v-129 q0 -78 -38.5 -125t-135.5 -47h-485v-111q0 -78 48 -121t114 -43h459v-82q0 -25 -5.5 -45t-20.5 -34.5t-44 -22.5t-78 -8h-311q-92 0 -162 23.5t-107 68.5q-35 -45 -92 -68.5t-120 -23.5h-170q-176 0 -277.5 76.5t-101.5 230.5zM350 254q0 -37 13.5 -61.5t35 -38t47 -18.5 t48.5 -5h133q47 0 81.5 35t34.5 84v233q-72 8 -134 11.5t-115 3.5q-74 0 -109 -31t-35 -105v-108zM537 1227v178h680v-178h-680zM981 598h387q35 0 35 41v68q0 82 -54.5 138t-160.5 56q-94 0 -150.5 -54t-56.5 -134v-115z" />
<glyph unicode="&#x1e4;" horiz-adv-x="1462" d="M121 348v715q0 96 34.5 172t95 127t142.5 77.5t176 26.5h623v-71q0 -63 -31 -93t-114 -30h-478q-90 0 -149.5 -55.5t-59.5 -153.5v-717q0 -90 52.5 -152.5t156.5 -62.5h244q76 0 118 44t52 110h-340v196h344v94q0 16 -10 28.5t-37 12.5h-164q-74 0 -107.5 21.5 t-33.5 87.5v86h416q96 0 136 -43t40 -129v-158h182v-71q0 -66 -30.5 -95.5t-114.5 -29.5h-39q-14 -176 -126 -261t-284 -85h-246q-98 0 -180 25.5t-142.5 76.5t-93 128t-32.5 179z" />
<glyph unicode="&#x1e5;" horiz-adv-x="1228" d="M133 367v335q0 180 111.5 271.5t298.5 91.5h473v-1126h162v-52q0 -63 -32 -93t-114 -30h-20q-6 -49 -26.5 -95t-60.5 -80.5t-102.5 -56t-150.5 -21.5h-445v81q0 59 34 85t106 26h299q41 0 66.5 16.5t37.5 44.5h-481v175h491v63h-237q-193 0 -301.5 92t-108.5 273z M371 365q0 -53 16 -87t42 -52.5t56.5 -25.5t57.5 -7h237v681h-237q-88 0 -130 -50t-42 -124v-335z" />
<glyph unicode="&#x1e6;" horiz-adv-x="1376" d="M137 348v715q0 96 35 172t95.5 127t142.5 77.5t176 26.5h622v-71q0 -63 -30.5 -93t-114.5 -30h-477q-90 0 -149.5 -55.5t-59.5 -153.5v-717q0 -90 52 -152.5t157 -62.5h243q88 0 131.5 58.5t43.5 138.5v247q0 16 -10.5 28.5t-37.5 12.5h-163q-74 0 -108 21.5t-34 87.5v86 h416q96 0 136 -43t40 -129v-311q0 -98 -30.5 -171t-85 -122t-130 -72.5t-166.5 -23.5h-245q-98 0 -180 25.5t-142.5 76.5t-93.5 128t-33 179zM344 1894h231l127 -163l119 163h234l-246 -295h-213z" />
<glyph unicode="&#x1e7;" horiz-adv-x="1148" d="M123 303v399q0 180 111.5 271.5t297.5 91.5h474v-1247q0 -55 -16.5 -110.5t-55.5 -99.5t-105.5 -70.5t-166.5 -26.5h-445v81q0 59 34 85t105 26h299q59 0 87 33t28 86v117h-238q-193 0 -301 92t-108 272zM229 1485h232l127 -164l119 164h233l-246 -295h-213zM360 303 q0 -53 16.5 -87t42 -52.5t56.5 -25.5t57 -7h238v743h-238q-88 0 -130 -50t-42 -124v-397z" />
<glyph unicode="&#x1e8;" horiz-adv-x="1320" d="M152 66v1400h239v-1527h-112q-68 0 -97.5 29.5t-29.5 97.5zM297 1894h231l127 -163l119 163h234l-246 -295h-213zM436 727l559 739h291l-561 -737l588 -790h-287z" />
<glyph unicode="&#x1e9;" horiz-adv-x="1175" d="M154 66v1411h237v-1538h-106q-72 0 -101.5 27.5t-29.5 99.5zM303 1849h232l127 -163l118 163h234l-246 -295h-213zM432 543l428 522h277l-437 -524l459 -602h-266z" />
<glyph unicode="&#x1ea;" horiz-adv-x="1437" d="M121 549v307q0 307 146.5 473t449.5 166q307 0 451.5 -166t144.5 -473v-309q0 -256 -97.5 -411.5t-306.5 -205.5q-37 -37 -61.5 -83t-24.5 -87q0 -35 18.5 -57t59.5 -22q18 0 49 2t64 18v-160q-45 -23 -86 -26.5t-74 -3.5q-111 0 -166 59t-55 141q0 49 19.5 101.5 t54.5 97.5q-299 4 -442.5 168t-143.5 471zM360 547q0 -432 357 -432q356 0 356 434v309q0 94 -21.5 174t-66.5 138.5t-111.5 90t-156.5 31.5q-88 0 -154.5 -31.5t-111.5 -90t-68 -138.5t-23 -176v-309z" />
<glyph unicode="&#x1eb;" horiz-adv-x="1175" d="M123 356v293q0 229 120 337t343 108q225 0 344 -107.5t119 -337.5v-293q0 -186 -76 -289.5t-223 -138.5q-37 -37 -60.5 -82t-23.5 -86q0 -35 18 -57t59 -22q18 0 49 2t64 18v-160q-45 -23 -86 -26.5t-74 -3.5q-111 0 -166 59t-55 141q0 49 19.5 101.5t54.5 99.5 q-205 8 -315.5 114.5t-110.5 329.5zM360 356q0 -123 58.5 -189.5t167.5 -66.5t167 63.5t58 192.5v293q0 51 -12.5 97.5t-40 81t-69.5 54t-103 19.5q-104 0 -165 -63.5t-61 -188.5v-293z" />
<glyph unicode="&#x1ec;" horiz-adv-x="1437" d="M121 549v307q0 307 146.5 473t449.5 166q307 0 451.5 -166t144.5 -473v-309q0 -262 -103.5 -420t-324.5 -201q-35 -37 -58.5 -81t-23.5 -85q0 -35 18.5 -57t59.5 -22q18 0 49 2t63 18v-160q-45 -23 -86 -26.5t-73 -3.5q-111 0 -166.5 59t-55.5 141q0 49 19.5 101.5 t54.5 97.5q-289 10 -427 174t-138 465zM360 547q0 -432 357 -432q356 0 356 434v309q0 94 -21.5 174t-66.5 138.5t-111.5 90t-156.5 31.5q-88 0 -154.5 -31.5t-111.5 -90t-68 -138.5t-23 -176v-309zM371 1636v179h680v-179h-680z" />
<glyph unicode="&#x1ed;" horiz-adv-x="1175" d="M123 356v293q0 229 120 337t343 108q225 0 344 -107.5t119 -337.5v-293q0 -199 -86 -304t-254 -132q-35 -37 -55.5 -79t-20.5 -81q0 -35 18.5 -57t59.5 -22q18 0 49 2t63 18v-160q-45 -23 -86 -26.5t-73 -3.5q-111 0 -166.5 59t-55.5 141q0 49 20.5 102.5t55.5 98.5 q-193 16 -294 122.5t-101 321.5zM242 1227v178h680v-178h-680zM360 356q0 -123 58.5 -189.5t167.5 -66.5t167 63.5t58 192.5v293q0 51 -12.5 97.5t-40 81t-69.5 54t-103 19.5q-104 0 -165 -63.5t-61 -188.5v-293z" />
<glyph unicode="&#x1ee;" horiz-adv-x="1179" d="M55 -342q0 53 32 79.5t97 16.5q57 -8 121 -12t133 -4q74 0 149 19.5t135 66.5t97 128t37 202q0 231 -85 334.5t-284 103.5h-63q-45 0 -63.5 14.5t-18.5 57.5v118l416 488h-682v196h981v-184l-441 -504q137 -20 229.5 -72.5t148 -131t79 -182t23.5 -226.5q0 -166 -46 -285 t-132.5 -195.5t-208 -111.5t-273.5 -33q-49 0 -91 2t-86 6.5t-93 9.5t-111 15v84zM199 1894h231l127 -163l119 163h233l-245 -295h-213z" />
<glyph unicode="&#x1ef;" horiz-adv-x="1105" d="M68 -342q0 53 30.5 78.5t96.5 15.5q55 -8 109 -12t122 -4q74 0 138.5 16.5t112.5 52t75.5 93t27.5 137.5q0 182 -92 258t-272 76h-54q-45 0 -63 15t-18 56v117l368 315h-563v193h895v-182l-397 -338q211 -29 322.5 -159t111.5 -339q0 -268 -158 -389t-436 -117 q-47 0 -86 1t-79 4t-85 9.5t-106 16.5v86zM178 1485h232l127 -164l118 164h234l-246 -295h-213z" />
<glyph unicode="&#x1f0;" horiz-adv-x="669" d="M-23 -410q0 57 35 86t92 29h50q63 0 94 36t31 101v1223h237v-1223q0 -174 -95 -252.5t-267 -78.5h-177v79zM29 1485h231l127 -164l119 164h233l-245 -295h-213z" />
<glyph unicode="&#x1f1;" horiz-adv-x="2603" d="M152 -61v1527h565q131 0 228 -33.5t161.5 -93t95.5 -140.5t31 -175v-647q0 -94 -31 -175t-95.5 -139.5t-161.5 -91t-228 -32.5h-565zM389 131h328q129 0 203.5 65.5t74.5 180.5v647q0 123 -74.5 185.5t-203.5 62.5h-328v-1141zM1376 -61v188l826 1145h-801v194h1077v-182 l-827 -1153h862v-117q0 -43 -23.5 -59t-64.5 -16h-1049z" />
<glyph unicode="&#x1f2;" horiz-adv-x="2355" d="M152 -61v1527h565q131 0 228 -33.5t161.5 -93t95.5 -140.5t31 -175v-647q0 -94 -31 -175t-95.5 -139.5t-161.5 -91t-228 -32.5h-565zM389 131h328q129 0 203.5 65.5t74.5 180.5v647q0 123 -74.5 185.5t-203.5 62.5h-328v-1141zM1382 -61v180l578 755h-551v191h821v-180 l-579 -754h604v-106q0 -86 -94 -86h-779z" />
<glyph unicode="&#x1f3;" horiz-adv-x="2115" d="M119 305v395q0 182 108.5 273.5t317.5 91.5h200v412h238v-1538h-438q-209 0 -317.5 90t-108.5 276zM356 324q0 -98 51.5 -145.5t137.5 -47.5h200v743h-202q-84 0 -135.5 -47t-51.5 -147v-356zM1137 -61v180l577 755h-551v191h822v-180l-580 -754h604v-106q0 -86 -94 -86 h-778z" />
<glyph unicode="&#x1f4;" horiz-adv-x="1376" d="M137 348v715q0 96 35 172t95.5 127t142.5 77.5t176 26.5h622v-71q0 -63 -30.5 -93t-114.5 -30h-477q-90 0 -149.5 -55.5t-59.5 -153.5v-717q0 -90 52 -152.5t157 -62.5h243q88 0 131.5 58.5t43.5 138.5v247q0 16 -10.5 28.5t-37.5 12.5h-163q-74 0 -108 21.5t-34 87.5v86 h416q96 0 136 -43t40 -129v-311q0 -98 -30.5 -171t-85 -122t-130 -72.5t-166.5 -23.5h-245q-98 0 -180 25.5t-142.5 76.5t-93.5 128t-33 179zM485 1606l177 299h249l-186 -236q-29 -35 -57.5 -49t-81.5 -14h-101z" />
<glyph unicode="&#x1f5;" horiz-adv-x="1148" d="M123 303v399q0 180 111.5 271.5t297.5 91.5h474v-1247q0 -55 -16.5 -110.5t-55.5 -99.5t-105.5 -70.5t-166.5 -26.5h-445v81q0 59 34 85t105 26h299q59 0 87 33t28 86v117h-238q-193 0 -301 92t-108 272zM350 1196l176 299h250l-186 -235q-29 -35 -57.5 -49.5 t-81.5 -14.5h-101zM360 303q0 -53 16.5 -87t42 -52.5t56.5 -25.5t57 -7h238v743h-238q-88 0 -130 -50t-42 -124v-397z" />
<glyph unicode="&#x1f6;" horiz-adv-x="2150" d="M152 63v1403h239v-622h604v622h240v-1112q0 -66 14.5 -108.5t41 -68t65.5 -36t88 -10.5h119q119 0 159.5 55.5t40.5 169.5v709h240v-723q0 -207 -101.5 -305t-338.5 -98h-119q-111 0 -194 20.5t-140 69.5t-86 129t-29 196v355q-25 -31 -65.5 -44.5t-87.5 -13.5h-451v-712 h-110q-70 0 -99.5 27.5t-29.5 96.5z" />
<glyph unicode="&#x1f7;" horiz-adv-x="1288" d="M150 -334v1800h565q106 0 190 -20.5t142.5 -66.5t89 -119.5t30.5 -180.5v-252q0 -115 -21.5 -200.5t-71.5 -159.5t-135 -144.5t-212 -152.5l-338 -219v-410h-106q-72 0 -102.5 28t-30.5 97zM389 211l313 205q43 27 84 68.5t72 95t50.5 116t19.5 131.5v252 q0 86 -48.5 137.5t-164.5 51.5h-326v-1057z" />
<glyph unicode="&#x1f8;" horiz-adv-x="1386" d="M152 63v1403h639q111 0 193.5 -17t138 -63.5t83 -125t27.5 -201.5v-1120h-109q-68 0 -99.5 27.5t-31.5 96.5v998q0 123 -45 167t-157 44h-400v-1333h-110q-70 0 -99.5 27.5t-29.5 96.5zM506 1905h250l176 -299h-101q-53 0 -82.5 14t-56.5 49z" />
<glyph unicode="&#x1f9;" horiz-adv-x="1169" d="M143 66v999h494q109 0 183.5 -19.5t120.5 -62.5t65.5 -111.5t19.5 -164.5v-768h-108q-68 0 -99 27.5t-31 99.5v641q0 98 -32.5 132.5t-118.5 34.5h-256v-935h-105q-72 0 -102.5 27.5t-30.5 99.5zM336 1495h250l176 -299h-100q-53 0 -83 14.5t-57 49.5z" />
<glyph unicode="&#x1fa;" horiz-adv-x="1368" d="M35 -61l483 1443q-35 31 -55.5 75t-20.5 97q0 100 68 163t166 63q102 0 168.5 -62.5t66.5 -163.5q0 -100 -67 -163q2 -2 2 -4.5t2 -4.5l487 -1443h-243l-164 510q-27 -29 -72 -50.5t-102 -21.5h-334l-139 -438h-246zM469 1835l176 299h250l-186 -236q-29 -35 -57.5 -49 t-82.5 -14h-100zM483 575h400l-199 621zM592 1554q0 -37 24.5 -60.5t59.5 -23.5t60.5 24t25.5 60q0 35 -25.5 60.5t-60.5 25.5t-59.5 -25.5t-24.5 -60.5z" />
<glyph unicode="&#x1fb;" horiz-adv-x="1114" d="M113 246v125q0 176 101 253.5t278 73.5q76 -2 132 -5t119 -11v68q0 57 -32.5 90.5t-104.5 33.5h-266q-47 0 -77 8.5t-45 24t-20 35t-5 43.5v80h413q197 0 286 -81t89 -234v-811h-489q-176 0 -277.5 76.5t-101.5 230.5zM315 1384q0 100 68 163t166 63q102 0 168.5 -62.5 t66.5 -163.5q0 -100 -66.5 -162.5t-168.5 -62.5q-98 0 -166 62.5t-68 162.5zM342 1638l176 299h250l-186 -235q-29 -35 -57.5 -49.5t-82.5 -14.5h-100zM350 254q0 -37 13.5 -61.5t35 -38t47 -18.5t48.5 -5h249v352q-72 8 -134 11.5t-115 3.5q-74 0 -109 -31t-35 -105v-108z M465 1384q0 -37 24.5 -60.5t59.5 -23.5t60.5 24t25.5 60q0 35 -25.5 60.5t-60.5 25.5t-59.5 -25.5t-24.5 -60.5z" />
<glyph unicode="&#x1fc;" horiz-adv-x="2070" d="M35 -61l676 1527h1274v-69q0 -59 -25 -92t-107 -33h-596v-430h664v-74q0 -49 -23.5 -84t-105.5 -35h-535v-518h752v-74q0 -49 -24.5 -83.5t-104.5 -34.5h-862v493q-29 -25 -69 -40t-91 -15h-371l-192 -438h-260zM575 575h443v697h-135zM930 1606l176 299h250l-187 -236 q-29 -35 -57.5 -49t-81.5 -14h-100z" />
<glyph unicode="&#x1fd;" horiz-adv-x="1751" d="M113 246v125q0 176 101 253.5t278 73.5q76 -2 132 -5t119 -11v70q0 57 -32.5 89.5t-104.5 32.5h-266q-47 0 -77 8.5t-45 24t-20 35t-5 43.5v80h413q98 0 161.5 -19.5t109.5 -62.5q53 53 134 82t177 29q98 0 181 -27t143.5 -77t94 -121.5t33.5 -161.5v-129 q0 -78 -38.5 -125t-135.5 -47h-485v-111q0 -78 48 -121t114 -43h459v-82q0 -25 -5.5 -45t-20.5 -34.5t-44 -22.5t-78 -8h-311q-92 0 -162 23.5t-107 68.5q-35 -45 -92 -68.5t-120 -23.5h-170q-176 0 -277.5 76.5t-101.5 230.5zM350 254q0 -37 13.5 -61.5t35 -38t47 -18.5 t48.5 -5h133q47 0 81.5 35t34.5 84v233q-72 8 -134 11.5t-115 3.5q-74 0 -109 -31t-35 -105v-108zM702 1196l177 299h249l-186 -235q-29 -35 -57.5 -49.5t-81.5 -14.5h-101zM981 598h387q35 0 35 41v68q0 82 -54.5 138t-160.5 56q-94 0 -150.5 -54t-56.5 -134v-115z" />
<glyph unicode="&#x1fe;" horiz-adv-x="1437" d="M123 549v307q0 307 146.5 473t449.5 166q113 0 196 -20l52 124h241l-90 -221q100 -80 148.5 -211t48.5 -311v-309q0 -305 -144.5 -471t-451.5 -166q-104 0 -195 22l-57 -141h-242l97 236q-102 80 -150.5 211t-48.5 311zM362 547q0 -176 58 -279l414 1008q-56 16 -115 16 q-88 0 -154.5 -31.5t-111.5 -90t-68 -138.5t-23 -176v-309zM494 1606l176 299h250l-187 -236q-29 -35 -57.5 -49t-81.5 -14h-100zM604 127q51 -12 115 -12q356 0 356 434v309q0 160 -61 268z" />
<glyph unicode="&#x1ff;" horiz-adv-x="1167" d="M123 356v293q0 229 120 337t343 108q61 0 108 -9l70 177h225l-96 -246q156 -109 156 -367v-293q0 -229 -117 -337.5t-346 -108.5q-35 0 -66 3t-59 7l-72 -184h-223l102 262q-145 106 -145 358zM356 1196l176 299h250l-186 -235q-29 -35 -57.5 -49.5t-81.5 -14.5h-101z M360 356q0 -49 11 -96l250 639q-8 0 -16.5 1t-18.5 1q-104 0 -165 -63.5t-61 -188.5v-293zM532 104q12 -4 25.5 -4h28.5q109 0 167 63.5t58 192.5v293q0 61 -18 115z" />
<glyph unicode="&#x200;" horiz-adv-x="1368" d="M35 -61l512 1527h184q41 0 74 -24.5t43 -59.5l487 -1443h-243l-164 510q-27 -29 -72 -50.5t-102 -21.5h-334l-139 -438h-246zM289 1884h241l158 -299h-100q-53 0 -80 13.5t-53 50.5zM483 575h400l-199 621zM616 1884h240l158 -299h-101q-51 0 -77.5 13.5t-53.5 50.5z" />
<glyph unicode="&#x201;" horiz-adv-x="1114" d="M113 246v125q0 176 101 253.5t278 73.5q76 -2 132 -5t119 -11v68q0 57 -32.5 90.5t-104.5 33.5h-266q-47 0 -77 8.5t-45 24t-20 35t-5 43.5v80h413q197 0 286 -81t89 -234v-811h-489q-176 0 -277.5 76.5t-101.5 230.5zM186 1495h242l158 -299h-101q-53 0 -79.5 13.5 t-53.5 50.5zM350 254q0 -37 13.5 -61.5t35 -38t47 -18.5t48.5 -5h249v352q-72 8 -134 11.5t-115 3.5q-74 0 -109 -31t-35 -105v-108zM514 1495h240l157 -299h-100q-51 0 -77.5 13.5t-53.5 50.5z" />
<glyph unicode="&#x202;" horiz-adv-x="1368" d="M35 -61l512 1527h184q41 0 74 -24.5t43 -59.5l487 -1443h-243l-164 510q-27 -29 -72 -50.5t-102 -21.5h-334l-139 -438h-246zM360 1575q4 135 89.5 211t226.5 76q152 0 236.5 -76t88.5 -211h-188q-2 37 -15.5 61.5t-31.5 38t-41 18.5t-43 5q-23 0 -45.5 -5t-40.5 -19.5 t-31.5 -38t-15.5 -60.5h-189zM483 575h400l-199 621z" />
<glyph unicode="&#x203;" horiz-adv-x="1114" d="M113 246v125q0 176 101 253.5t278 73.5q76 -2 132 -5t119 -11v68q0 57 -32.5 90.5t-104.5 33.5h-266q-47 0 -77 8.5t-45 24t-20 35t-5 43.5v80h413q197 0 286 -81t89 -234v-811h-489q-176 0 -277.5 76.5t-101.5 230.5zM246 1180q4 135 89 210.5t226 75.5q152 0 237 -75.5 t89 -210.5h-189q-2 37 -15 61.5t-31.5 37.5t-41 18.5t-43.5 5.5q-23 0 -45 -5.5t-40.5 -19.5t-32 -37.5t-15.5 -60.5h-188zM350 254q0 -37 13.5 -61.5t35 -38t47 -18.5t48.5 -5h249v352q-72 8 -134 11.5t-115 3.5q-74 0 -109 -31t-35 -105v-108z" />
<glyph unicode="&#x204;" horiz-adv-x="1232" d="M152 -61v1527h966v-69q0 -59 -24.5 -92t-106.5 -33h-596v-430h664v-74q0 -49 -23.5 -84t-105.5 -35h-535v-518h752v-74q0 -49 -24.5 -83.5t-104.5 -34.5h-862zM248 1884h241l158 -299h-100q-53 0 -80 13.5t-53 50.5zM575 1884h240l158 -299h-101q-51 0 -77.5 13.5 t-53.5 50.5z" />
<glyph unicode="&#x205;" horiz-adv-x="1124" d="M113 305v381q0 109 35.5 186.5t96 127t141.5 72t171 22.5q98 0 181 -25t143.5 -71t94.5 -115.5t34 -157.5v-147q0 -74 -43 -123t-136 -49h-481v-101q0 -84 48 -129t114 -45h459v-82q0 -25 -4 -45t-19.5 -34.5t-44.5 -22.5t-78 -8h-313q-182 0 -290.5 98t-108.5 268z M166 1495h242l157 -299h-100q-53 0 -80 13.5t-53 50.5zM350 598h389q14 0 24.5 11.5t10.5 29.5v86q0 80 -55 128t-162 48q-94 0 -150.5 -48t-56.5 -128v-127zM494 1495h239l158 -299h-100q-51 0 -78 13.5t-54 50.5z" />
<glyph unicode="&#x206;" horiz-adv-x="1232" d="M152 -61v1527h966v-69q0 -59 -24.5 -92t-106.5 -33h-596v-430h664v-74q0 -49 -23.5 -84t-105.5 -35h-535v-518h752v-74q0 -49 -24.5 -83.5t-104.5 -34.5h-862zM319 1575q4 135 89.5 211t226.5 76q152 0 236.5 -76t89.5 -211h-189q-2 37 -15.5 61.5t-31.5 38t-40.5 18.5 t-43.5 5q-23 0 -45.5 -5t-40.5 -19.5t-31.5 -38t-15.5 -60.5h-189z" />
<glyph unicode="&#x207;" horiz-adv-x="1124" d="M113 305v381q0 109 35.5 186.5t96 127t141.5 72t171 22.5q98 0 181 -25t143.5 -71t94.5 -115.5t34 -157.5v-147q0 -74 -43 -123t-136 -49h-481v-101q0 -84 48 -129t114 -45h459v-82q0 -25 -4 -45t-19.5 -34.5t-44.5 -22.5t-78 -8h-313q-182 0 -290.5 98t-108.5 268z M246 1180q4 135 89 210.5t226 75.5q152 0 237 -75.5t89 -210.5h-189q-2 37 -15 61.5t-31.5 37.5t-41 18.5t-43.5 5.5q-23 0 -45 -5.5t-40.5 -19.5t-32 -37.5t-15.5 -60.5h-188zM350 598h389q14 0 24.5 11.5t10.5 29.5v86q0 80 -55 128t-162 48q-94 0 -150.5 -48t-56.5 -128 v-127z" />
<glyph unicode="&#x208;" horiz-adv-x="577" d="M-80 1884h242l157 -299h-100q-53 0 -79.5 13.5t-53.5 50.5zM172 63v1403h242v-1527h-113q-70 0 -99.5 27.5t-29.5 96.5zM248 1884h239l158 -299h-100q-51 0 -78 13.5t-53 50.5z" />
<glyph unicode="&#x209;" horiz-adv-x="526" d="M-133 1495h242l157 -299h-100q-53 0 -80 13.5t-53 50.5zM141 66v999h238v-1126h-107q-72 0 -101.5 27.5t-29.5 99.5zM195 1495h239l158 -299h-100q-51 0 -78 13.5t-54 50.5z" />
<glyph unicode="&#x20a;" horiz-adv-x="577" d="M-29 1575q4 135 89 211t227 76q152 0 236.5 -76t88.5 -211h-188q-2 37 -15.5 61.5t-32 38t-41 18.5t-42.5 5q-23 0 -45.5 -5t-41 -19.5t-31.5 -38t-15 -60.5h-189zM172 63v1403h242v-1527h-113q-70 0 -99.5 27.5t-29.5 96.5z" />
<glyph unicode="&#x20b;" horiz-adv-x="526" d="M-57 1180q4 135 89 210.5t226 75.5q152 0 237 -75.5t89 -210.5h-189q-2 37 -15 61.5t-31.5 37.5t-41 18.5t-43.5 5.5q-23 0 -45 -5.5t-40.5 -19.5t-32 -37.5t-15.5 -60.5h-188zM141 66v999h238v-1126h-107q-72 0 -101.5 27.5t-29.5 99.5z" />
<glyph unicode="&#x20c;" horiz-adv-x="1437" d="M121 549v307q0 307 146.5 473t449.5 166q307 0 451.5 -166t144.5 -473v-309q0 -305 -144.5 -471t-451.5 -166q-303 0 -449.5 166t-146.5 473zM330 1884h241l158 -299h-100q-53 0 -80 13.5t-53 50.5zM360 547q0 -432 357 -432q356 0 356 434v309q0 94 -21.5 174 t-66.5 138.5t-111.5 90t-156.5 31.5q-88 0 -154.5 -31.5t-111.5 -90t-68 -138.5t-23 -176v-309zM657 1884h240l158 -299h-101q-51 0 -77.5 13.5t-53.5 50.5z" />
<glyph unicode="&#x20d;" horiz-adv-x="1175" d="M123 356v293q0 229 120 337t343 108q225 0 344 -107.5t119 -337.5v-293q0 -229 -117 -337.5t-346 -108.5q-223 0 -343 106.5t-120 339.5zM186 1495h242l158 -299h-101q-53 0 -79.5 13.5t-53.5 50.5zM360 356q0 -123 58.5 -189.5t167.5 -66.5t167 63.5t58 192.5v293 q0 51 -12.5 97.5t-40 81t-69.5 54t-103 19.5q-104 0 -165 -63.5t-61 -188.5v-293zM514 1495h240l157 -299h-100q-51 0 -77.5 13.5t-53.5 50.5z" />
<glyph unicode="&#x20e;" horiz-adv-x="1437" d="M121 549v307q0 307 146.5 473t449.5 166q307 0 451.5 -166t144.5 -473v-309q0 -305 -144.5 -471t-451.5 -166q-303 0 -449.5 166t-146.5 473zM360 547q0 -432 357 -432q356 0 356 434v309q0 94 -21.5 174t-66.5 138.5t-111.5 90t-156.5 31.5q-88 0 -154.5 -31.5 t-111.5 -90t-68 -138.5t-23 -176v-309zM395 1575q4 135 89 211t227 76q152 0 236.5 -76t88.5 -211h-188q-2 37 -15.5 61.5t-32 38t-41 18.5t-42.5 5q-23 0 -45.5 -5t-41 -19.5t-31.5 -38t-15 -60.5h-189z" />
<glyph unicode="&#x20f;" horiz-adv-x="1175" d="M123 356v293q0 229 120 337t343 108q225 0 344 -107.5t119 -337.5v-293q0 -229 -117 -337.5t-346 -108.5q-223 0 -343 106.5t-120 339.5zM274 1180q4 135 89.5 210.5t226.5 75.5q152 0 236.5 -75.5t88.5 -210.5h-188q-2 37 -15.5 61.5t-31.5 37.5t-41 18.5t-43 5.5 q-23 0 -45.5 -5.5t-40.5 -19.5t-31.5 -37.5t-15.5 -60.5h-189zM360 356q0 -123 58.5 -189.5t167.5 -66.5t167 63.5t58 192.5v293q0 51 -12.5 97.5t-40 81t-69.5 54t-103 19.5q-104 0 -165 -63.5t-61 -188.5v-293z" />
<glyph unicode="&#x210;" horiz-adv-x="1316" d="M150 63v1403h608q109 0 190.5 -26.5t136 -72.5t82 -110.5t27.5 -138.5v-162q0 -55 -14.5 -108t-44 -99.5t-76.5 -81t-113 -53.5q74 -166 156 -339t158 -336h-261l-294 647h-316v-647h-113q-68 0 -97 27.5t-29 96.5zM289 1884h241l158 -299h-100q-53 0 -80 13.5t-53 50.5z M389 782h369q96 0 146 48.5t50 144.5v110q0 86 -48 134.5t-148 48.5h-369v-486zM616 1884h240l158 -299h-101q-51 0 -77.5 13.5t-53.5 50.5z" />
<glyph unicode="&#x211;" horiz-adv-x="856" d="M92 1495h242l158 -299h-101q-53 0 -79.5 13.5t-53.5 50.5zM137 66v710q0 139 71 214t236 75h373v-59q0 -76 -46 -104t-116 -28h-211q-41 0 -55 -28.5t-14 -69.5v-837h-109q-68 0 -98.5 27.5t-30.5 99.5zM420 1495h239l158 -299h-100q-51 0 -78 13.5t-53 50.5z" />
<glyph unicode="&#x212;" horiz-adv-x="1316" d="M150 63v1403h608q109 0 190.5 -26.5t136 -72.5t82 -110.5t27.5 -138.5v-162q0 -55 -14.5 -108t-44 -99.5t-76.5 -81t-113 -53.5q74 -166 156 -339t158 -336h-261l-294 647h-316v-647h-113q-68 0 -97 27.5t-29 96.5zM319 1575q4 135 89.5 211t226.5 76q152 0 236.5 -76 t89.5 -211h-189q-2 37 -15.5 61.5t-31.5 38t-40.5 18.5t-43.5 5q-23 0 -45.5 -5t-40.5 -19.5t-31.5 -38t-15.5 -60.5h-189zM389 782h369q96 0 146 48.5t50 144.5v110q0 86 -48 134.5t-148 48.5h-369v-486z" />
<glyph unicode="&#x213;" horiz-adv-x="856" d="M137 66v710q0 139 71 214t236 75h373v-59q0 -76 -46 -104t-116 -28h-211q-41 0 -55 -28.5t-14 -69.5v-837h-109q-68 0 -98.5 27.5t-30.5 99.5zM158 1180q4 135 89 210.5t226 75.5q152 0 237 -75.5t89 -210.5h-189q-2 37 -15 61.5t-31.5 37.5t-41 18.5t-43.5 5.5 q-23 0 -45 -5.5t-40.5 -19.5t-32 -37.5t-15.5 -60.5h-188z" />
<glyph unicode="&#x214;" horiz-adv-x="1400" d="M154 346v1120h239v-1122q0 -61 10.5 -102t34 -65.5t62.5 -35t96 -10.5h399v1335h240v-1527h-639q-111 0 -194 17t-138 63.5t-82.5 125t-27.5 201.5zM350 1884h242l158 -299h-101q-53 0 -79.5 13.5t-53.5 50.5zM678 1884h240l157 -299h-100q-51 0 -78 13.5t-53 50.5z" />
<glyph unicode="&#x215;" horiz-adv-x="1150" d="M133 348v717h236v-717q0 -68 10 -109.5t31.5 -66.5t56.5 -33t86 -8h219v934h238v-1126h-457q-109 0 -187.5 20.5t-131 68.5t-77 125.5t-24.5 194.5zM186 1495h242l158 -299h-101q-53 0 -79.5 13.5t-53.5 50.5zM514 1495h240l157 -299h-100q-51 0 -77.5 13.5t-53.5 50.5z " />
<glyph unicode="&#x216;" horiz-adv-x="1400" d="M154 346v1120h239v-1122q0 -61 10.5 -102t34 -65.5t62.5 -35t96 -10.5h399v1335h240v-1527h-639q-111 0 -194 17t-138 63.5t-82.5 125t-27.5 201.5zM381 1575q4 135 89 211t226 76q152 0 237 -76t89 -211h-188q-2 37 -15.5 61.5t-32 38t-41 18.5t-43.5 5q-23 0 -45 -5 t-40.5 -19.5t-32 -38t-15.5 -60.5h-188z" />
<glyph unicode="&#x217;" horiz-adv-x="1150" d="M133 348v717h236v-717q0 -68 10 -109.5t31.5 -66.5t56.5 -33t86 -8h219v934h238v-1126h-457q-109 0 -187.5 20.5t-131 68.5t-77 125.5t-24.5 194.5zM248 1180q4 135 89 210.5t226 75.5q152 0 237 -75.5t89 -210.5h-189q-2 37 -15 61.5t-31.5 37.5t-41 18.5t-43.5 5.5 q-23 0 -45 -5.5t-40.5 -19.5t-32 -37.5t-15.5 -60.5h-188z" />
<glyph unicode="&#x218;" horiz-adv-x="1183" d="M82 18q0 59 29.5 86t109.5 27h346q139 0 211 52.5t72 154.5q0 72 -48 127t-167 108l-258 115q-150 66 -214.5 166t-64.5 229q0 86 29 156t88 121t150.5 78.5t218.5 27.5h458v-84q0 -68 -34.5 -89t-108.5 -21h-315q-47 0 -91 -9.5t-78 -31t-54.5 -57t-20.5 -91.5 q0 -80 43 -131t131 -92l246 -110q96 -43 159.5 -87.5t102.5 -93.5t54.5 -105t15.5 -124q0 -119 -46.5 -196.5t-121 -123t-166.5 -63.5t-185 -18h-491v79zM442 -590q49 27 81 73t36 97h-113v258h283v-192q0 -106 -56.5 -197.5t-158.5 -132.5z" />
<glyph unicode="&#x219;" horiz-adv-x="970" d="M98 756q0 53 21.5 108.5t67.5 99.5t117 72.5t171 28.5h361v-82q0 -59 -35 -84t-113 -25h-213q-76 0 -107.5 -35.5t-31.5 -82.5q0 -39 22.5 -73t77.5 -50l189 -62q145 -45 203.5 -122.5t58.5 -188.5q0 -154 -105.5 -237.5t-289.5 -83.5h-388v75q0 117 140 117h248 q70 0 113.5 32t43.5 97q0 45 -21.5 77t-74.5 48l-180 59q-137 47 -206 118t-69 194zM348 -590q49 27 81 73t36 97h-113v258h283v-192q0 -106 -56.5 -197.5t-158.5 -132.5z" />
<glyph unicode="&#x21a;" horiz-adv-x="1234" d="M37 1272v194h1167v-71q0 -66 -24.5 -94.5t-110.5 -28.5h-330v-1333h-110q-68 0 -98.5 27.5t-30.5 96.5v1209h-463zM481 -590q49 27 81 73t36 97h-113v258h283v-192q0 -106 -56.5 -197.5t-158.5 -132.5z" />
<glyph unicode="&#x21b;" horiz-adv-x="751" d="M29 874v191h178v369h237v-369h254v-78q0 -49 -28.5 -81t-122.5 -32h-103v-622q0 -68 27 -94.5t74 -26.5h170v-78q0 -47 -31 -80.5t-117 -33.5h-51q-170 0 -239.5 79.5t-69.5 233.5v622h-178zM242 -590q49 27 80.5 73t35.5 97h-112v258h282v-192q0 -106 -56 -197.5 t-159 -132.5z" />
<glyph unicode="&#x21c;" horiz-adv-x="1144" d="M86 -248l424 158q156 59 231.5 142t75.5 229q0 49 -16.5 94t-43 76.5t-62.5 45t-72 -0.5l-451 -162v217l434 158q92 35 144.5 115.5t52.5 179.5q0 147 -68.5 223t-204.5 76q-47 0 -91 -4.5t-90 -12.5t-96 -20.5t-110 -30.5l-14 192q61 18 112.5 32t98.5 22t92 11t94 3 q115 0 209 -25.5t161 -84t103.5 -150.5t36.5 -223q0 -129 -58 -227.5t-134 -151.5q102 -35 156.5 -131t54.5 -219q0 -117 -29 -204t-88 -153.5t-152.5 -119t-224.5 -97.5l-475 -168v211z" />
<glyph unicode="&#x21d;" horiz-adv-x="1040" d="M66 -250l401 162q78 31 129 58.5t81 58t42 66.5t12 85q0 57 -30.5 91t-82.5 34q-29 0 -61 -12l-407 -158v213l391 156q76 31 125 76t49 116q0 96 -51.5 150.5t-157.5 54.5q-94 0 -191.5 -15.5t-214.5 -51.5l-12 192q123 39 220.5 53.5t193.5 14.5q98 0 180 -23.5 t140.5 -71t91 -119t32.5 -167.5q0 -55 -14 -98.5t-38 -77t-53.5 -59t-62.5 -46.5q78 -20 133.5 -83t55.5 -167q0 -86 -24.5 -151.5t-79 -119.5t-140.5 -100.5t-207 -93.5l-450 -176v209z" />
<glyph unicode="&#x21e;" horiz-adv-x="1392" d="M152 63v1403h239v-622h604v622h240v-1527h-109q-70 0 -100.5 27.5t-30.5 96.5v642q-25 -29 -65.5 -41.5t-87.5 -12.5h-451v-712h-110q-70 0 -99.5 27.5t-29.5 96.5zM332 1894h231l127 -163l119 163h233l-245 -295h-213z" />
<glyph unicode="&#x21f;" horiz-adv-x="1175" d="M152 66v1411h237v-412h266q385 0 385 -344v-782h-106q-68 0 -99.5 27.5t-31.5 99.5v653q0 84 -40 119.5t-108 35.5h-266v-935h-108q-70 0 -99.5 27.5t-29.5 99.5zM248 1853h231l127 -163l119 163h233l-245 -294h-213z" />
<glyph unicode="&#x220;" horiz-adv-x="1390" d="M150 63v1403h632q109 0 191 -17t137 -62.5t83 -123t28 -198.5v-1524h-107q-70 0 -100.5 28t-30.5 97v1401q0 61 -10 101t-34 63.5t-62.5 34t-94.5 10.5h-397v-1337h-109q-68 0 -97 27.5t-29 96.5z" />
<glyph unicode="&#x221;" horiz-adv-x="1480" d="M135 305v395q0 182 108.5 273.5t317.5 91.5h201v412h237v-1483q29 12 71 19t77 7q123 0 199.5 -56t80.5 -163q4 -111 -74.5 -175t-199.5 -66q-53 -2 -110.5 13t-98.5 50q-4 -18 -6 -41.5t-2 -40.5h-213q0 74 18.5 146.5t61.5 126.5q-8 23 -11.5 55.5t-5.5 69.5h-225 q-209 0 -317.5 90t-108.5 276zM373 324q0 -98 51 -145.5t137 -47.5h201v743h-203q-84 0 -135 -47t-51 -147v-356zM1038 -197q20 -29 51 -44t60 -15q31 0 48 13.5t17 35.5q0 18 -16 33.5t-49 15.5q-59 0 -111 -39z" />
<glyph unicode="&#x222;" horiz-adv-x="1247" d="M90 371q0 129 54.5 220t138.5 138q-78 41 -124 119t-46 188q0 82 25.5 147.5t69.5 111.5t105.5 70t135.5 24h90v-203h-72q-55 0 -87 -43t-32 -123q0 -88 63.5 -140.5t211.5 -52.5q268 0 268 236q0 98 -42 154.5t-128 56.5h-68v192h70q90 0 165 -23.5t128 -70.5 t82.5 -121.5t29.5 -175.5q0 -121 -50 -208t-130 -134q92 -37 145.5 -130t53.5 -232q0 -104 -30 -189.5t-93 -146t-163.5 -93t-242.5 -32.5q-281 0 -404.5 115.5t-123.5 345.5zM328 369q0 -113 71.5 -189t218.5 -76q76 0 131.5 21.5t90 57.5t52 84.5t17.5 101.5 q0 119 -71.5 192.5t-212.5 73.5q-80 0 -136.5 -21.5t-92.5 -57.5t-52 -84t-16 -103z" />
<glyph unicode="&#x223;" horiz-adv-x="1099" d="M90 367q0 147 50 239t139 144q-74 41 -120 121.5t-46 222.5q0 76 23.5 148.5t72.5 128.5t124 90t177 34v-190q-78 0 -121 -59.5t-43 -158.5q0 -109 50 -179t157 -70q92 0 146.5 66.5t54.5 176.5q0 39 -5.5 76t-20.5 67.5t-45 52t-81 30.5v188q106 -6 181 -40t120 -89 t65.5 -128t20.5 -155q0 -133 -52 -218t-114 -113q82 -49 132.5 -143.5t50.5 -241.5q0 -229 -107.5 -343t-349.5 -114q-223 0 -341 112.5t-118 344.5zM326 365q0 -53 12 -101.5t38.5 -84.5t68.5 -57.5t104 -21.5q63 0 106 22.5t69 60.5t36 85.5t10 96.5t-9 100t-32.5 91 t-65.5 65.5t-108 25.5q-68 0 -112 -24.5t-70.5 -64.5t-36.5 -91t-10 -102z" />
<glyph unicode="&#x224;" horiz-adv-x="1318" d="M92 -61v188l826 1145h-801v194h1077v-182l-827 -1153h489q115 0 191.5 -19.5t123 -60.5t64.5 -103.5t18 -148.5v-100h-237v100q0 66 -34 103t-126 37h-764z" />
<glyph unicode="&#x225;" horiz-adv-x="1112" d="M100 -61v180l578 755h-551v191h821v-180l-579 -752h272q113 0 188.5 -19.5t120.5 -60.5t63.5 -103.5t18.5 -148.5v-102h-233v102q0 66 -33 102t-125 36h-541z" />
<glyph unicode="&#x226;" horiz-adv-x="1368" d="M35 -61l512 1527h184q41 0 74 -24.5t43 -59.5l487 -1443h-243l-164 510q-27 -29 -72 -50.5t-102 -21.5h-334l-139 -438h-246zM483 575h400l-199 621zM561 1608v235h242v-235h-242z" />
<glyph unicode="&#x227;" horiz-adv-x="1114" d="M113 246v125q0 176 101 253.5t278 73.5q76 -2 132 -5t119 -11v68q0 57 -32.5 90.5t-104.5 33.5h-266q-47 0 -77 8.5t-45 24t-20 35t-5 43.5v80h413q197 0 286 -81t89 -234v-811h-489q-176 0 -277.5 76.5t-101.5 230.5zM350 254q0 -37 13.5 -61.5t35 -38t47 -18.5t48.5 -5 h249v352q-72 8 -134 11.5t-115 3.5q-74 0 -109 -31t-35 -105v-108zM434 1198v236h242v-236h-242z" />
<glyph unicode="&#x228;" horiz-adv-x="1232" d="M152 -61v1527h966v-69q0 -59 -24.5 -92t-106.5 -33h-596v-430h664v-74q0 -49 -23.5 -84t-105.5 -35h-535v-518h752v-74q0 -49 -24.5 -83.5t-104.5 -34.5h-291l-27 -86q82 -16 114 -53.5t32 -92.5q0 -92 -78 -144t-227 -52q-82 0 -166 22l24 139q41 -8 78 -10t51 -2 q66 0 88.5 14.5t22.5 40.5q0 8 -5 18.5t-21.5 17.5t-47.5 12.5t-84 5.5l51 170h-376z" />
<glyph unicode="&#x229;" horiz-adv-x="1124" d="M113 305v381q0 109 35.5 186.5t96 127t141.5 72t171 22.5q98 0 181 -25t143.5 -71t94.5 -115.5t34 -157.5v-147q0 -74 -43 -123t-136 -49h-481v-101q0 -84 48 -129t114 -45h459v-82q0 -25 -4 -45t-19.5 -34.5t-44.5 -22.5t-78 -8h-123l-26 -86q82 -16 113.5 -53.5 t31.5 -92.5q0 -92 -77.5 -144t-227.5 -52q-82 0 -166 22l25 139q41 -8 77.5 -10t51.5 -2q66 0 88 14.5t22 40.5q0 8 -5 18.5t-21.5 17.5t-47 12.5t-83.5 5.5l51 170q-180 2 -287.5 99t-107.5 267zM350 598h389q14 0 24.5 11.5t10.5 29.5v86q0 80 -55 128t-162 48 q-94 0 -150.5 -48t-56.5 -128v-127z" />
<glyph unicode="&#x22a;" horiz-adv-x="1437" d="M121 549v307q0 307 146.5 473t449.5 166q307 0 451.5 -166t144.5 -473v-309q0 -305 -144.5 -471t-451.5 -166q-303 0 -449.5 166t-146.5 473zM360 547q0 -432 357 -432q356 0 356 434v309q0 94 -21.5 174t-66.5 138.5t-111.5 90t-156.5 31.5q-88 0 -154.5 -31.5 t-111.5 -90t-68 -138.5t-23 -176v-309zM379 1917v178h680v-178h-680zM399 1583v219h248v-219h-248zM799 1583v219h248v-219h-248z" />
<glyph unicode="&#x22b;" horiz-adv-x="1175" d="M123 356v293q0 229 120 337t343 108q225 0 344 -107.5t119 -337.5v-293q0 -229 -117 -337.5t-346 -108.5q-223 0 -343 106.5t-120 339.5zM246 1556v179h680v-179h-680zM266 1190v244h248v-244h-248zM360 356q0 -123 58.5 -189.5t167.5 -66.5t167 63.5t58 192.5v293 q0 51 -12.5 97.5t-40 81t-69.5 54t-103 19.5q-104 0 -165 -63.5t-61 -188.5v-293zM666 1190v244h247v-244h-247z" />
<glyph unicode="&#x22c;" horiz-adv-x="1437" d="M121 549v307q0 307 146.5 473t449.5 166q307 0 451.5 -166t144.5 -473v-309q0 -305 -144.5 -471t-451.5 -166q-303 0 -449.5 166t-146.5 473zM301 1571q0 121 72.5 185.5t183.5 64.5q51 0 97 -16.5t81 -32.5q29 -12 55.5 -24.5t49.5 -12.5q39 0 55 22.5t16 63.5h189 q0 -113 -67.5 -180.5t-182.5 -67.5q-57 0 -98 17.5t-80 35.5q-25 10 -50.5 23.5t-54.5 13.5q-33 0 -55.5 -22.5t-24.5 -69.5h-186zM360 547q0 -432 357 -432q356 0 356 434v309q0 94 -21.5 174t-66.5 138.5t-111.5 90t-156.5 31.5q-88 0 -154.5 -31.5t-111.5 -90t-68 -138.5 t-23 -176v-309zM369 1907v178h680v-178h-680z" />
<glyph unicode="&#x22d;" horiz-adv-x="1175" d="M123 356v293q0 229 120 337t343 108q225 0 344 -107.5t119 -337.5v-293q0 -229 -117 -337.5t-346 -108.5q-223 0 -343 106.5t-120 339.5zM184 1178q0 133 72.5 204.5t183.5 71.5q51 0 97.5 -18.5t80.5 -36.5q29 -14 55.5 -27.5t49.5 -13.5q39 0 55.5 25.5t16.5 70.5h188 q0 -125 -67.5 -199.5t-182.5 -74.5q-57 0 -98 18.5t-80 38.5q-25 12 -50.5 26.5t-53.5 14.5q-33 0 -55.5 -23.5t-24.5 -76.5h-187zM221 1552v179h680v-179h-680zM360 356q0 -123 58.5 -189.5t167.5 -66.5t167 63.5t58 192.5v293q0 51 -12.5 97.5t-40 81t-69.5 54t-103 19.5 q-104 0 -165 -63.5t-61 -188.5v-293z" />
<glyph unicode="&#x22e;" horiz-adv-x="1437" d="M121 549v307q0 307 146.5 473t449.5 166q307 0 451.5 -166t144.5 -473v-309q0 -305 -144.5 -471t-451.5 -166q-303 0 -449.5 166t-146.5 473zM360 547q0 -432 357 -432q356 0 356 434v309q0 94 -21.5 174t-66.5 138.5t-111.5 90t-156.5 31.5q-88 0 -154.5 -31.5 t-111.5 -90t-68 -138.5t-23 -176v-309zM586 1608v235h241v-235h-241z" />
<glyph unicode="&#x22f;" horiz-adv-x="1175" d="M123 356v293q0 229 120 337t343 108q225 0 344 -107.5t119 -337.5v-293q0 -229 -117 -337.5t-346 -108.5q-223 0 -343 106.5t-120 339.5zM360 356q0 -123 58.5 -189.5t167.5 -66.5t167 63.5t58 192.5v293q0 51 -12.5 97.5t-40 81t-69.5 54t-103 19.5q-104 0 -165 -63.5 t-61 -188.5v-293zM469 1198v236h242v-236h-242z" />
<glyph unicode="&#x230;" horiz-adv-x="1437" d="M121 549v307q0 307 146.5 473t449.5 166q307 0 451.5 -166t144.5 -473v-309q0 -305 -144.5 -471t-451.5 -166q-303 0 -449.5 166t-146.5 473zM360 547q0 -432 357 -432q356 0 356 434v309q0 94 -21.5 174t-66.5 138.5t-111.5 90t-156.5 31.5q-88 0 -154.5 -31.5 t-111.5 -90t-68 -138.5t-23 -176v-309zM373 1905v178h680v-178h-680zM592 1587v236h242v-236h-242z" />
<glyph unicode="&#x231;" horiz-adv-x="1175" d="M123 356v293q0 229 120 337t343 108q225 0 344 -107.5t119 -337.5v-293q0 -229 -117 -337.5t-346 -108.5q-223 0 -343 106.5t-120 339.5zM233 1552v179h680v-179h-680zM360 356q0 -123 58.5 -189.5t167.5 -66.5t167 63.5t58 192.5v293q0 51 -12.5 97.5t-40 81t-69.5 54 t-103 19.5q-104 0 -165 -63.5t-61 -188.5v-293zM449 1198v236h241v-236h-241z" />
<glyph unicode="&#x232;" horiz-adv-x="1398" d="M33 1466h262l401 -694l404 694h262l-551 -919v-608h-106q-70 0 -102 26.5t-32 97.5v480zM360 1636v179h680v-179h-680z" />
<glyph unicode="&#x233;" horiz-adv-x="1150" d="M131 305v760h238v-758q0 -88 26.5 -132t102.5 -42q78 2 143.5 7t130.5 12v913h238v-1245q0 -66 -20.5 -122t-63.5 -98t-112 -65.5t-165 -23.5h-467v81q0 66 32 92.5t112 26.5h323q72 0 97.5 30t25.5 81v133q-68 -6 -132.5 -9t-147.5 -7q-188 -6 -274.5 92t-86.5 274z M227 1227v178h680v-178h-680z" />
<glyph unicode="&#x234;" horiz-adv-x="858" d="M100 -459q0 74 18.5 146.5t61.5 126.5q-12 41 -15 112.5t-3 130.5v1420h235v-1477q29 10 64 15t63 5q123 0 200 -56t81 -163q4 -111 -75 -175t-200 -66q-53 -2 -110.5 13t-97.5 50q-4 -18 -6.5 -41.5t-2.5 -40.5h-213zM416 -197q20 -29 51 -44t59 -15q31 0 48.5 13.5 t17.5 35.5q0 18 -16.5 33.5t-49.5 15.5q-59 0 -110 -39z" />
<glyph unicode="&#x235;" horiz-adv-x="1476" d="M143 66v999h494q109 0 183.5 -19.5t120.5 -62.5t65.5 -111.5t19.5 -164.5v-705q29 10 62.5 14t62.5 4q123 0 199.5 -56t81.5 -163q4 -111 -75 -175t-200 -66q-53 -2 -110.5 13t-98.5 50q-4 -18 -6 -41.5t-2 -40.5h-213q0 74 18.5 146.5t61.5 126.5q-12 41 -15.5 112.5 t-3.5 130.5v650q0 98 -32.5 132.5t-118.5 34.5h-256v-935h-105q-72 0 -102.5 27.5t-30.5 99.5zM1042 -197q20 -29 51 -44t60 -15q31 0 48.5 13.5t17.5 35.5q0 18 -16.5 33.5t-49.5 15.5q-59 0 -111 -39z" />
<glyph unicode="&#x236;" horiz-adv-x="921" d="M49 872v191h180v371h236v-371h256v-78q0 -49 -29.5 -81t-122.5 -32h-104v-872q29 10 63.5 15t63.5 5q123 0 199.5 -56t80.5 -163q4 -111 -74.5 -175t-199.5 -66q-53 -2 -110.5 13t-98.5 50q-4 -18 -6 -41.5t-2 -40.5h-213q0 74 18.5 146.5t61.5 126.5q-12 41 -15.5 112.5 t-3.5 130.5v815h-180zM483 -197q20 -29 51 -44t60 -15q31 0 48 13.5t17 35.5q0 18 -16 33.5t-49 15.5q-59 0 -111 -39z" />
<glyph unicode="&#x237;" horiz-adv-x="669" d="M-23 -410q0 57 35 86t92 29h50q63 0 94 36t31 101v1223h237v-1223q0 -174 -95 -252.5t-267 -78.5h-177v79z" />
<glyph unicode="&#x238;" horiz-adv-x="1718" d="M115 305v395q0 182 108.5 273.5t317.5 91.5h190v412h238v-412h188q209 0 318.5 -91t109.5 -274v-395q0 -186 -109.5 -276t-318.5 -90h-616q-209 0 -317.5 90t-108.5 276zM352 324q0 -98 51.5 -145.5t137.5 -47.5h190v743h-192q-84 0 -135.5 -47t-51.5 -147v-356zM969 131 h188q86 0 138.5 47t52.5 146v356q0 100 -52.5 147t-136.5 47h-190v-743z" />
<glyph unicode="&#x239;" horiz-adv-x="1746" d="M133 379v305q0 381 416 381h637q418 0 418 -381v-305q0 -199 -109 -289t-309 -90h-199v-459h-108q-76 0 -102.5 32t-26.5 97v330h-201q-201 0 -308.5 90t-107.5 289zM369 379q0 -186 180 -186h201v681h-201q-92 0 -136 -49t-44 -141v-305zM987 193h199q180 0 180 186v305 q0 92 -44 141t-136 49h-199v-681z" />
<glyph unicode="&#x23a;" horiz-adv-x="1353" d="M35 -61l512 1527h184q41 0 74 -24.5t43 -59.5l31 -94l127 311h233l-254 -624l350 -1036h-243l-164 510q-27 -29 -72 -50.5t-102 -21.5h-13l-237 -586h-232l238 586h-90l-139 -438h-246zM483 575h107l164 402l-70 219zM821 575h62l-27 82z" />
<glyph unicode="&#x23b;" horiz-adv-x="1198" d="M125 340v731q0 184 123 289.5t346 105.5h178l41 133h234l-43 -133h96v-73q0 -25 -5 -47.5t-21.5 -39t-46.5 -25.5t-79 -9h-4l-354 -1141h530v-76q0 -47 -28.5 -81.5t-124.5 -34.5h-439l-45 -148h-231l63 205q-90 49 -140 138t-50 206zM365 354q0 -68 24 -118l322 1036 h-111q-236 0 -235 -228v-690z" />
<glyph unicode="&#x23c;" horiz-adv-x="1052" d="M143 319v361q0 90 32 161.5t88 121t134 76t170 26.5h95l69 248h213l-72 -248h86v-70q0 -25 -4 -46t-18 -38.5t-42 -27t-75 -9.5l-211 -743h361v-76q0 -25 -5.5 -45t-20.5 -36.5t-44 -25.5t-78 -9h-266l-66 -230h-210l75 273q-98 43 -154.5 128t-56.5 209zM381 322 q0 -74 35 -125l190 677h-39q-186 0 -186 -194v-358z" />
<glyph unicode="&#x23d;" horiz-adv-x="1202" d="M43 653v195h182v618h240v-618h377v-76q0 -61 -27 -90t-98 -29h-252v-522h694v-74q0 -63 -26.5 -90.5t-98.5 -27.5h-809v714h-182z" />
<glyph unicode="&#x23e;" horiz-adv-x="1234" d="M37 1272v194h835l50 115h235l-49 -115h96v-71q0 -66 -24.5 -94.5t-110.5 -28.5h-43l-287 -678v-655h-110q-59 0 -90 21.5t-37 72.5l-103 -242h-233l334 791v690h-463zM739 1149l52 123h-52v-123z" />
<glyph unicode="&#x23f;" horiz-adv-x="952" d="M76 756q0 53 21.5 108.5t67.5 99.5t116.5 72.5t171.5 28.5h360v-82q0 -59 -35 -84t-112 -25h-213q-76 0 -108 -35.5t-32 -82.5q0 -39 22.5 -73t78.5 -50l188 -62q145 -47 203.5 -123.5t58.5 -187.5q0 -141 -88 -222t-244 -95q4 -10 9.5 -20.5t11.5 -20.5 q12 -25 24.5 -54.5t31 -55t44 -43t64.5 -17.5q14 0 34.5 1t71.5 5l13 -107q4 -33 -11.5 -50t-37 -26.5t-43 -11.5t-27.5 -2q-86 0 -142.5 20.5t-95.5 58.5t-66.5 91t-54.5 119q-16 41 -41.5 69.5t-78.5 39.5h-156v75q0 117 139 117h248q70 0 114 32t44 97q0 45 -21.5 77 t-75.5 48l-180 59q-137 47 -205.5 118t-68.5 194z" />
<glyph unicode="&#x240;" horiz-adv-x="1077" d="M94 -61v180l578 755h-551v191h821v-180l-584 -756q86 -2 145.5 -19.5t101.5 -47t71 -70.5t51 -90q12 -27 27.5 -56.5t38 -55.5t54.5 -42t79 -16q14 0 34.5 1t73.5 5l10 -111q2 -33 -13 -50t-36.5 -25.5t-42 -9.5t-26.5 -1q-143 0 -233.5 56.5t-151.5 193.5 q-12 27 -26.5 52.5t-37 47t-56.5 35t-83 13.5h-244z" />
<glyph unicode="&#x241;" horiz-adv-x="1142" d="M100 1432q113 35 202 49t194 14q117 0 217 -29.5t172.5 -87t113.5 -144.5t41 -200q0 -143 -50 -252.5t-152 -181.5l-170 -119q-35 -23 -40 -55.5t-5 -83.5v-403h-109q-66 0 -97.5 27.5t-31.5 96.5v285q0 92 18.5 154.5t75.5 101.5l180 123q80 55 112 132t32 167 q0 68 -25.5 120t-68.5 87t-98.5 52.5t-112.5 17.5q-53 0 -95.5 -2.5t-85.5 -8.5t-91 -18t-113 -33z" />
<glyph unicode="&#x242;" horiz-adv-x="1011" d="M74 1026q31 12 71.5 24.5t87 21.5t94.5 15.5t95 6.5q111 0 201 -29t154.5 -81t100 -125t35.5 -159q0 -125 -47 -218t-153 -158l-131 -80q-35 -23 -40 -54.5t-5 -83.5v-167h-109q-66 0 -97.5 27.5t-31.5 96.5v111q0 63 22.5 112.5t71.5 78.5l139 84q90 53 118 113.5 t28 129.5q0 98 -69.5 153.5t-182.5 55.5q-90 0 -181 -18.5t-159 -46.5z" />
<glyph unicode="&#x243;" horiz-adv-x="1402" d="M53 279v194h180v993h598q106 0 185.5 -27.5t131.5 -76.5t76.5 -115.5t24.5 -144.5v-96q0 -82 -39 -159t-108 -112q92 -37 140 -111.5t48 -166.5v-135q0 -102 -38 -175t-101.5 -119t-146 -67.5t-173.5 -21.5h-598v340h-180zM471 131h358q115 0 168.5 59.5t53.5 141.5v96 q0 41 -12.5 78t-38 64.5t-67.5 44t-102 16.5h-360v-158h301v-86q0 -109 -145 -108h-156v-148zM471 825h363q53 0 87.5 17.5t54 44t28 60.5t8.5 67v78q0 74 -44 127t-134 53h-363v-447z" />
<glyph unicode="&#x244;" horiz-adv-x="1542" d="M53 653v195h168v618h240v-618h602v618h240v-618h182v-84q0 -59 -35 -85t-111 -26h-36v-714h-639q-111 0 -194 17t-138.5 63.5t-83 125t-27.5 201.5v307h-168zM461 344q0 -61 10 -102t33.5 -65.5t62.5 -35t97 -10.5h399v522h-602v-309z" />
<glyph unicode="&#x245;" horiz-adv-x="1361" d="M43 -61l506 1527h172q53 0 83 -21.5t42 -62.5q57 -172 117.5 -354t122 -367.5t121 -368.5t116.5 -353h-244l-395 1257q-47 -150 -97 -308.5t-100.5 -320t-100.5 -320.5t-97 -308h-246z" />
<glyph unicode="&#x246;" horiz-adv-x="1243" d="M129 -209l59 148h-34v1527h661l47 113h232l-47 -113h73v-69q0 -59 -24.5 -92t-106.5 -33h-22l-179 -430h269v-74q0 -49 -23.5 -84t-105.5 -35h-217l-213 -518h647v-74q0 -49 -24.5 -83.5t-104.5 -34.5h-598l-60 -148h-229zM393 434l88 215h-88v-215zM393 842h166l176 430 h-342v-430z" />
<glyph unicode="&#x247;" horiz-adv-x="1150" d="M133 305v381q0 109 36 186.5t96.5 127t141 72t171.5 22.5q8 0 15 -1t17 -1l58 221h213l-70 -264q100 -41 159.5 -123t59.5 -201v-147q0 -74 -43 -123t-135 -49h-207l-72 -275h418v-82q0 -25 -4 -45t-19.5 -34.5t-44 -22.5t-77.5 -8h-322l-59 -230h-209l70 273 q-92 43 -142.5 124.5t-50.5 198.5zM371 305q0 -45 16 -84l47 185h-63v-101zM371 598h112l78 303q-88 -4 -139 -52t-51 -124v-127zM694 598h66q14 0 24.5 11.5t10.5 29.5v86q0 66 -39 111z" />
<glyph unicode="&#x248;" horiz-adv-x="980" d="M47 18q0 66 31 89.5t106 23.5h127q96 0 141.5 45t45.5 158v325h-258v195h258v612h241v-612h183v-84q0 -59 -36 -85t-112 -26h-35v-325q0 -203 -100 -299t-328 -96h-264v79z" />
<glyph unicode="&#x249;" horiz-adv-x="759" d="M-23 -410q0 57 35 86t92 29h50q63 0 94 36t31 101v594h-195v195h195v434h237v-434h191v-86q0 -57 -35 -83t-113 -26h-43v-594q0 -174 -95 -252.5t-267 -78.5h-177v79zM279 1360v135h237v-274h-82q-66 0 -110.5 35.5t-44.5 103.5z" />
<glyph unicode="&#x24a;" horiz-adv-x="1472" d="M123 555v295q0 311 143.5 463.5t444.5 152.5h493v-1583q0 -80 48 -115.5t118 -35.5h51v-191h-65q-186 0 -287.5 86t-101.5 258v54h-256q-301 0 -444.5 152.5t-143.5 463.5zM360 553q0 -217 87.5 -315.5t263.5 -98.5h256v1127h-256q-176 0 -263.5 -112t-87.5 -304v-297z " />
<glyph unicode="&#x24b;" horiz-adv-x="1243" d="M129 356v293q0 229 120 337t343 108h422v-1211q0 -80 43 -115.5t104 -35.5h49v-191h-65q-178 0 -273.5 89t-95.5 255v25h-184q-223 0 -343 106.5t-120 339.5zM367 356q0 -123 57 -189.5t168 -66.5h184v801h-184q-106 0 -165.5 -63.5t-59.5 -188.5v-293z" />
<glyph unicode="&#x24c;" horiz-adv-x="1402" d="M37 586v196h194v684h609q109 0 190.5 -26.5t136 -72.5t82 -110.5t27.5 -138.5v-162q0 -98 -56.5 -193t-191.5 -149q74 -166 156 -339t157 -336h-260l-295 647h-315v-647h-113q-68 0 -97.5 27.5t-29.5 96.5v523h-194zM471 782h369q96 0 146 48.5t50 144.5v110 q0 86 -48 134.5t-148 48.5h-369v-486z" />
<glyph unicode="&#x24d;" horiz-adv-x="933" d="M33 383v195h184v198q0 139 70.5 214t236.5 75h373v-59q0 -76 -46 -104t-116 -28h-211q-41 0 -55 -28.5t-14 -69.5v-198h217v-86q0 -109 -146 -109h-71v-444h-109q-68 0 -98.5 27.5t-30.5 99.5v317h-184z" />
<glyph unicode="&#x24e;" horiz-adv-x="1404" d="M31 1466h262l172 -297h459l174 297h262l-178 -297h159v-84q0 -59 -34.5 -83.5t-112.5 -24.5h-129l-256 -430v-608h-107q-70 0 -101.5 26.5t-31.5 97.5v480l-254 434h-260v192h148zM575 977l119 -205l119 205h-238z" />
<glyph unicode="&#x24f;" horiz-adv-x="1320" d="M45 502v194h168v369h238v-369h403v369h238v-369h180v-86q0 -109 -146 -108h-34v-682q0 -66 -20.5 -122t-63.5 -98t-112 -65.5t-165 -23.5h-467v81q0 66 32 92.5t112 26.5h323q72 0 97.5 30t25.5 81v174q-68 -6 -132.5 -9t-148.5 -7q-188 -6 -274 92t-86 274v156h-168z M451 348q0 -88 26.5 -132t102.5 -42q78 2 143 7t131 12v309h-403v-154z" />
<glyph unicode="&#x292;" horiz-adv-x="1105" d="M68 -342q0 53 30.5 78.5t96.5 15.5q55 -8 109 -12t122 -4q74 0 138.5 16.5t112.5 52t75.5 93t27.5 137.5q0 182 -92 258t-272 76h-54q-45 0 -63 15t-18 56v117l368 315h-563v193h895v-182l-397 -338q211 -29 322.5 -159t111.5 -339q0 -268 -158 -389t-436 -117 q-47 0 -86 1t-79 4t-85 9.5t-106 16.5v86z" />
<glyph unicode="&#x2c6;" horiz-adv-x="1030" d="M160 1190l252 295h213l245 -295h-233l-119 164l-127 -164h-231z" />
<glyph unicode="&#x2c7;" horiz-adv-x="1030" d="M160 1485h231l127 -164l119 164h233l-245 -295h-213z" />
<glyph unicode="&#x2d0;" horiz-adv-x="694" d="M141 -61l209 346l209 -346h-418zM141 1065h418l-209 -348z" />
<glyph unicode="&#x2d8;" horiz-adv-x="722" d="M41 1466h188q2 -37 15.5 -60.5t32 -37.5t41 -19.5t44.5 -5.5q20 0 43 5.5t41.5 18.5t32 38t15.5 61h188q-4 -135 -89 -210.5t-237 -75.5q-141 0 -226 75.5t-89 210.5z" />
<glyph unicode="&#x2d9;" horiz-adv-x="581" d="M166 1198v236h242v-236h-242z" />
<glyph unicode="&#x2da;" horiz-adv-x="641" d="M84 1384q0 100 67.5 163t165.5 63q102 0 169 -62.5t67 -163.5q0 -100 -66.5 -162.5t-169.5 -62.5q-98 0 -165.5 62.5t-67.5 162.5zM233 1384q0 -37 25 -60.5t59 -23.5q35 0 60.5 24t25.5 60q0 35 -25.5 60.5t-60.5 25.5t-59.5 -25.5t-24.5 -60.5z" />
<glyph unicode="&#x2db;" horiz-adv-x="741" d="M154 -289q0 61 30.5 128t83.5 116h191q-47 -39 -81 -93.5t-34 -101.5q0 -35 18.5 -57t59.5 -22q18 0 49 2t64 18v-160q-45 -23 -86 -26.5t-74 -3.5q-111 0 -166 59t-55 141z" />
<glyph unicode="&#x2dd;" horiz-adv-x="931" d="M104 1196l158 299h240l-166 -235q-27 -37 -53.5 -50.5t-77.5 -13.5h-101zM430 1196l158 299h241l-165 -235q-27 -37 -53.5 -50.5t-80.5 -13.5h-100z" />
<glyph unicode="&#x300;" horiz-adv-x="708" d="M135 1495h250l176 -299h-100q-53 0 -83 14.5t-56 49.5z" />
<glyph unicode="&#x301;" horiz-adv-x="708" d="M145 1196l177 299h249l-186 -235q-29 -35 -57.5 -49.5t-81.5 -14.5h-101z" />
<glyph unicode="&#x302;" horiz-adv-x="1030" d="M160 1190l252 295h213l245 -295h-233l-119 164l-127 -164h-231z" />
<glyph unicode="&#x303;" horiz-adv-x="937" d="M68 1178q0 133 72.5 204.5t183.5 71.5q51 0 97 -18.5t81 -36.5q29 -14 55.5 -27.5t48.5 -13.5q39 0 55.5 25.5t16.5 70.5h188q0 -125 -67.5 -199.5t-182.5 -74.5q-57 0 -98 18.5t-80 38.5q-25 12 -50.5 26.5t-53.5 14.5q-33 0 -55.5 -23.5t-24.5 -76.5h-186z" />
<glyph unicode="&#x304;" horiz-adv-x="720" d="M20 1227v178h680v-178h-680z" />
<glyph unicode="&#x306;" horiz-adv-x="722" d="M41 1466h188q2 -37 15.5 -60.5t32 -37.5t41 -19.5t44.5 -5.5q20 0 43 5.5t41.5 18.5t32 38t15.5 61h188q-4 -135 -89 -210.5t-237 -75.5q-141 0 -226 75.5t-89 210.5z" />
<glyph unicode="&#x307;" horiz-adv-x="581" d="M166 1198v236h242v-236h-242z" />
<glyph unicode="&#x309;" horiz-adv-x="1089" d="M295 1501q12 2 32.5 5t43 6.5t45 4.5t41.5 1q135 0 215 -42t80 -126q0 -27 -8.5 -53.5t-29 -50t-52 -39t-78.5 -19.5v-60h-172v164q82 0 111.5 14t29.5 37t-22.5 33t-88.5 10q-29 0 -66.5 -5t-62.5 -9z" />
<glyph unicode="&#x30a;" horiz-adv-x="641" d="M84 1384q0 100 67.5 163t165.5 63q102 0 169 -62.5t67 -163.5q0 -100 -66.5 -162.5t-169.5 -62.5q-98 0 -165.5 62.5t-67.5 162.5zM233 1384q0 -37 25 -60.5t59 -23.5q35 0 60.5 24t25.5 60q0 35 -25.5 60.5t-60.5 25.5t-59.5 -25.5t-24.5 -60.5z" />
<glyph unicode="&#x30b;" horiz-adv-x="931" d="M104 1196l158 299h240l-166 -235q-27 -37 -53.5 -50.5t-77.5 -13.5h-101zM430 1196l158 299h241l-165 -235q-27 -37 -53.5 -50.5t-80.5 -13.5h-100z" />
<glyph unicode="&#x30c;" horiz-adv-x="1030" d="M160 1485h231l127 -164l119 164h233l-245 -295h-213z" />
<glyph unicode="&#x30f;" horiz-adv-x="933" d="M104 1495h242l158 -299h-101q-53 0 -79.5 13.5t-53.5 50.5zM432 1495h240l157 -299h-100q-51 0 -77.5 13.5t-53.5 50.5z" />
<glyph unicode="&#x311;" horiz-adv-x="722" d="M41 1180q4 135 89 210.5t226 75.5q152 0 237 -75.5t89 -210.5h-188q-2 37 -15.5 61.5t-32 37.5t-41 18.5t-43.5 5.5q-23 0 -45 -5.5t-40.5 -19.5t-32 -37.5t-15.5 -60.5h-188z" />
<glyph unicode="&#x312;" horiz-adv-x="524" d="M123 973v192q0 106 56.5 197.5t158.5 132.5l72 -94q-49 -27 -81 -73t-36 -97h113v-258h-283z" />
<glyph unicode="&#x313;" horiz-adv-x="524" d="M123 1067q49 27 81 73t36 97h-113v258h283v-192q0 -106 -56.5 -197.5t-158.5 -132.5z" />
<glyph unicode="&#x314;" horiz-adv-x="524" d="M123 1303v192h283v-258h-113q4 -51 35.5 -97t81.5 -73l-72 -94q-102 41 -158.5 132t-56.5 198z" />
<glyph unicode="&#x31b;" horiz-adv-x="522" d="M-6 563v109q119 4 178 47t66 117h-113v258h283v-197q0 -156 -95.5 -246t-318.5 -88z" />
<glyph unicode="&#x323;" horiz-adv-x="581" d="M166 -193h242v-235h-242v235z" />
<glyph unicode="&#x327;" horiz-adv-x="716" d="M213 -590q49 27 81 73t36 97h-113v258h283v-192q0 -106 -56.5 -197.5t-158.5 -132.5z" />
<glyph unicode="&#x328;" horiz-adv-x="741" d="M174 -289q0 61 31 128t84 116h190q-47 -39 -80.5 -93.5t-33.5 -101.5q0 -35 18 -57t59 -22q18 0 49 2t64 18v-160q-45 -23 -86 -26.5t-74 -3.5q-111 0 -166 59t-55 141z" />
<glyph unicode="&#x338;" horiz-adv-x="1044" d="M31 -209l743 1808h232l-746 -1808h-229z" />
<glyph unicode="&#x374;" horiz-adv-x="708" d="M145 1196l177 299h249l-186 -235q-29 -35 -57.5 -49.5t-81.5 -14.5h-101z" />
<glyph unicode="&#x375;" horiz-adv-x="708" d="M143 -489l185 235q29 35 57.5 49.5t81.5 14.5h100l-174 -299h-250z" />
<glyph unicode="&#x37a;" horiz-adv-x="671" d="M123 -72h215v-147q0 -55 22.5 -73.5t73.5 -18.5q23 0 55.5 5t67.5 21l31 -164q-37 -18 -87 -29t-93 -11q-72 0 -125.5 12t-88 41.5t-53 82t-18.5 132.5v149z" />
<glyph unicode="&#x37b;" horiz-adv-x="1196" d="M63 55v76h560q47 0 82.5 18.5t59 48t35 69.5t11.5 83v701q0 225 -231 225h-347q-49 0 -77.5 9t-45 25.5t-21.5 38t-5 46.5v71h502q221 0 342 -106.5t121 -284.5v-739q0 -88 -32 -161t-87.5 -125t-132 -81.5t-166.5 -29.5h-416q-47 0 -76.5 9t-46 25.5t-23 38t-6.5 43.5z " />
<glyph unicode="&#x37c;" horiz-adv-x="1204" d="M141 336v739q0 178 121 284.5t342 106.5h502v-71q0 -25 -5 -46.5t-21.5 -38t-45 -25.5t-78.5 -9h-346q-231 0 -231 -225v-701q0 -43 11 -83t35 -69.5t59.5 -48t82.5 -18.5h559v-76q0 -47 -28.5 -81.5t-122.5 -34.5h-416q-90 0 -167 29.5t-132 81.5t-87 125t-32 161z M639 588v260h258v-260h-258z" />
<glyph unicode="&#x37d;" horiz-adv-x="1202" d="M63 55v76h560q47 0 82.5 18.5t59 48t35 69.5t11.5 83v701q0 225 -231 225h-347q-49 0 -77.5 9t-45 25.5t-21.5 38t-5 46.5v71h502q221 0 342 -106.5t121 -284.5v-739q0 -88 -32 -161t-87.5 -125t-132 -81.5t-166.5 -29.5h-416q-47 0 -76.5 9t-46 25.5t-23 38t-6.5 43.5z M283 582v260h258v-260h-258z" />
<glyph unicode="&#x37e;" horiz-adv-x="524" d="M94 12l72 432h256l-191 -548h-73q-41 0 -57.5 26.5t-6.5 89.5zM150 963v262h258v-262h-258z" />
<glyph unicode="&#x384;" horiz-adv-x="681" d="M135 1196l166 299h250l-176 -235q-29 -35 -57.5 -49.5t-81.5 -14.5h-101z" />
<glyph unicode="&#x385;" horiz-adv-x="833" d="M2 1190v244h242v-244h-242zM272 1333l138 305h262l-160 -241q-25 -37 -48.5 -50.5t-76.5 -13.5h-115zM569 1190v244h240v-244h-240z" />
<glyph unicode="&#x386;" horiz-adv-x="1368" d="M23 1167l176 299h250l-187 -235q-29 -35 -57.5 -49.5t-81.5 -14.5h-100zM35 -61l512 1527h184q41 0 74 -24.5t43 -59.5l487 -1443h-243l-164 510q-27 -29 -72 -50.5t-102 -21.5h-334l-139 -438h-246zM483 575h400l-199 621z" />
<glyph unicode="&#x387;" horiz-adv-x="681" d="M209 809v256h260v-256h-260z" />
<glyph unicode="&#x388;" horiz-adv-x="1497" d="M-84 1167l176 299h250l-186 -235q-29 -35 -57.5 -49.5t-82.5 -14.5h-100zM414 -61v1527h966v-69q0 -59 -24.5 -92t-106.5 -33h-596v-430h664v-74q0 -49 -23.5 -84t-105.5 -35h-535v-518h752v-74q0 -49 -24.5 -83.5t-104.5 -34.5h-862z" />
<glyph unicode="&#x389;" horiz-adv-x="1644" d="M-92 1167l176 299h250l-187 -235q-29 -35 -57.5 -49.5t-81.5 -14.5h-100zM410 63v1403h239v-622h604v622h240v-1527h-109q-70 0 -100.5 27.5t-30.5 96.5v642q-25 -29 -65.5 -41.5t-87.5 -12.5h-451v-712h-110q-70 0 -99.5 27.5t-29.5 96.5z" />
<glyph unicode="&#x38a;" horiz-adv-x="800" d="M-90 1169l176 299h250l-186 -235q-29 -35 -58 -49.5t-82 -14.5h-100zM408 63v1403h241v-1527h-112q-70 0 -99.5 27.5t-29.5 96.5z" />
<glyph unicode="&#x38c;" horiz-adv-x="1531" d="M-131 1167l176 299h250l-186 -235q-29 -35 -57.5 -49.5t-82.5 -14.5h-100zM207 549v307q0 307 146.5 473t449.5 166q307 0 451.5 -166t144.5 -473v-309q0 -305 -144.5 -471t-451.5 -166q-303 0 -449.5 166t-146.5 473zM446 547q0 -432 357 -432q356 0 356 434v309 q0 94 -21.5 174t-66.5 138.5t-111.5 90t-156.5 31.5q-88 0 -154.5 -31.5t-111.5 -90t-68 -138.5t-23 -176v-309z" />
<glyph unicode="&#x38e;" horiz-adv-x="1744" d="M-94 1167l176 299h250l-187 -235q-29 -35 -57.5 -49.5t-81.5 -14.5h-100zM379 1466h262l401 -694l404 694h262l-551 -919v-608h-106q-70 0 -101.5 26.5t-31.5 97.5v480z" />
<glyph unicode="&#x38f;" horiz-adv-x="1556" d="M-92 1186l176 299h250l-187 -236q-29 -35 -57.5 -49t-81.5 -14h-100zM184 -61v194h191q-70 80 -109 187.5t-39 242.5v281q0 311 146.5 481t449.5 170q307 0 451.5 -170t144.5 -479v-283q0 -141 -39 -246.5t-106 -183.5h59q88 0 112.5 -28.5t24.5 -94.5v-71h-544v194h10 q133 39 188.5 153.5t55.5 274.5v283q0 219 -88 332.5t-269 113.5q-178 0 -267 -113.5t-89 -330.5v-283q0 -164 57.5 -278.5t192.5 -151.5h4v-194h-537z" />
<glyph unicode="&#x390;" horiz-adv-x="811" d="M2 1190v244h242v-244h-242zM272 1333l138 305h262l-160 -241q-25 -37 -48.5 -50.5t-76.5 -13.5h-115zM289 268v797h237v-797q0 -68 14.5 -101.5t53.5 -33.5q66 0 90.5 -29.5t24.5 -85.5v-79h-115q-168 0 -236.5 78.5t-68.5 250.5zM569 1190v244h240v-244h-240z" />
<glyph unicode="&#x391;" horiz-adv-x="1368" d="M35 -61l512 1527h184q41 0 74 -24.5t43 -59.5l487 -1443h-243l-164 510q-27 -29 -72 -50.5t-102 -21.5h-334l-139 -438h-246zM483 575h400l-199 621z" />
<glyph unicode="&#x392;" horiz-adv-x="1318" d="M150 -61v1527h598q106 0 185 -27.5t131 -76.5t76.5 -115.5t24.5 -144.5v-96q0 -82 -39 -159t-108 -112q92 -37 140 -111.5t48 -166.5v-135q0 -102 -38 -175t-101 -119t-146 -67.5t-173 -21.5h-598zM387 131h358q115 0 168.5 59.5t53.5 141.5v96q0 41 -12.5 78t-38 64.5 t-67.5 44t-101 16.5h-361v-500zM387 825h363q53 0 87.5 17.5t54 44t28 60.5t8.5 67v78q0 74 -44 127t-134 53h-363v-447z" />
<glyph unicode="&#x393;" horiz-adv-x="1183" d="M152 68v1398h991v-71q0 -53 -28 -88t-111 -35h-613v-1333h-108q-72 0 -101.5 28.5t-29.5 100.5z" />
<glyph unicode="&#x394;" horiz-adv-x="1370" d="M35 -61l512 1527h184q41 0 74 -24.5t43 -59.5l487 -1443h-243l-25 71q-23 -29 -63.5 -50t-94.5 -21h-874zM344 135h684l-344 1057z" />
<glyph unicode="&#x395;" horiz-adv-x="1232" d="M152 -61v1527h966v-69q0 -59 -24.5 -92t-106.5 -33h-596v-430h664v-74q0 -49 -23.5 -84t-105.5 -35h-535v-518h752v-74q0 -49 -24.5 -83.5t-104.5 -34.5h-862z" />
<glyph unicode="&#x396;" horiz-adv-x="1282" d="M68 -61v188l825 1145h-801v194h1077v-182l-827 -1153h862v-117q0 -43 -23.5 -59t-64.5 -16h-1048z" />
<glyph unicode="&#x397;" horiz-adv-x="1392" d="M152 63v1403h239v-622h604v622h240v-1527h-109q-70 0 -100.5 27.5t-30.5 96.5v642q-25 -29 -65.5 -41.5t-87.5 -12.5h-451v-712h-110q-70 0 -99.5 27.5t-29.5 96.5z" />
<glyph unicode="&#x398;" horiz-adv-x="1443" d="M123 549v307q0 307 146.5 473t449.5 166q307 0 451.5 -166t144.5 -473v-309q0 -305 -144.5 -471t-451.5 -166q-303 0 -449.5 166t-146.5 473zM362 547q0 -432 357 -432q356 0 356 434v309q0 94 -21.5 174t-66.5 138.5t-111.5 90t-156.5 31.5q-88 0 -154.5 -31.5 t-111.5 -90t-68 -138.5t-23 -176v-309zM440 621v194h555v-194h-555z" />
<glyph unicode="&#x399;" horiz-adv-x="577" d="M172 63v1403h242v-1527h-113q-70 0 -99.5 27.5t-29.5 96.5z" />
<glyph unicode="&#x39a;" horiz-adv-x="1320" d="M152 66v1400h239v-1527h-112q-68 0 -97.5 29.5t-29.5 97.5zM436 727l559 739h291l-561 -737l588 -790h-287z" />
<glyph unicode="&#x39b;" horiz-adv-x="1361" d="M43 -61l506 1527h172q53 0 83 -21.5t42 -62.5q57 -172 117.5 -354t122 -367.5t121 -368.5t116.5 -353h-244l-395 1257q-47 -150 -97 -308.5t-100.5 -320t-100.5 -320.5t-97 -308h-246z" />
<glyph unicode="&#x39c;" horiz-adv-x="1814" d="M158 51v1415h239l484 -915q8 -16 24.5 -16t24.5 16l483 915h240v-1527h-111q-68 0 -98.5 28.5t-30.5 93.5v953q-84 -152 -167 -308.5t-167 -308.5q-23 -41 -67.5 -76.5t-108.5 -35.5q-66 0 -107.5 34.5t-64.5 75.5l-334 619v-1075h-110q-129 0 -129 112z" />
<glyph unicode="&#x39d;" horiz-adv-x="1386" d="M152 63v1403h639q111 0 193.5 -17t138 -63.5t83 -125t27.5 -201.5v-1120h-109q-68 0 -99.5 27.5t-31.5 96.5v998q0 123 -45 167t-157 44h-400v-1333h-110q-70 0 -99.5 27.5t-29.5 96.5z" />
<glyph unicode="&#x39e;" horiz-adv-x="1251" d="M115 -61v192h1050v-74q0 -49 -24.5 -83.5t-104.5 -34.5h-921zM133 1272v194h1008v-69q0 -59 -24.5 -92t-106.5 -33h-877zM190 651v193h887v-74q0 -49 -23.5 -84t-105.5 -35h-758z" />
<glyph unicode="&#x39f;" horiz-adv-x="1437" d="M121 549v307q0 307 146.5 473t449.5 166q307 0 451.5 -166t144.5 -473v-309q0 -305 -144.5 -471t-451.5 -166q-303 0 -449.5 166t-146.5 473zM360 547q0 -432 357 -432q356 0 356 434v309q0 94 -21.5 174t-66.5 138.5t-111.5 90t-156.5 31.5q-88 0 -154.5 -31.5 t-111.5 -90t-68 -138.5t-23 -176v-309z" />
<glyph unicode="&#x3a0;" horiz-adv-x="1548" d="M51 1272v194h1448v-69q0 -59 -24.5 -92t-108.5 -33h-51v-1333h-109q-70 0 -100.5 27.5t-30.5 96.5v1209h-604v-1333h-109q-70 0 -100.5 27.5t-30.5 96.5v1209h-180z" />
<glyph unicode="&#x3a1;" horiz-adv-x="1284" d="M150 63v1403h565q106 0 190 -20.5t142.5 -66.5t89 -119.5t30.5 -180.5v-192q0 -55 -12 -122t-57 -126t-136.5 -99t-246.5 -40h-326v-561h-106q-72 0 -102.5 27.5t-30.5 96.5zM389 696h326q213 0 213 191v192q0 86 -48.5 137.5t-164.5 51.5h-326v-572z" />
<glyph unicode="&#x3a3;" horiz-adv-x="1159" d="M113 -61v186l444 584l-444 567v190h950v-73q0 -51 -24.5 -86t-106.5 -35h-547l444 -559l-448 -582h698v-74q0 -49 -23.5 -83.5t-105.5 -34.5h-837z" />
<glyph unicode="&#x3a4;" horiz-adv-x="1234" d="M37 1272v194h1167v-71q0 -66 -24.5 -94.5t-110.5 -28.5h-330v-1333h-110q-68 0 -98.5 27.5t-30.5 96.5v1209h-463z" />
<glyph unicode="&#x3a5;" horiz-adv-x="1398" d="M33 1466h262l401 -694l404 694h262l-551 -919v-608h-106q-70 0 -102 26.5t-32 97.5v480z" />
<glyph unicode="&#x3a6;" horiz-adv-x="1406" d="M102 682v41q0 256 124 385t352 154v215h239v-213q227 -25 352 -155t125 -386v-43q0 -256 -125 -385t-352 -154v-202h-108q-68 0 -99.5 27.5t-31.5 99.5v75q-225 25 -350.5 155t-125.5 386zM342 680q0 -158 59.5 -233.5t176.5 -98.5v705q-236 -56 -236 -330v-43zM817 348 q121 23 179.5 98.5t58.5 235.5v43q0 274 -238 330v-707z" />
<glyph unicode="&#x3a7;" horiz-adv-x="1374" d="M37 -61l512 766l-504 761h266l369 -555l371 555h268l-502 -761l510 -766h-274l-373 557l-371 -557h-272z" />
<glyph unicode="&#x3a8;" horiz-adv-x="1562" d="M127 1026v440h235v-403q0 -109 13.5 -187.5t47.5 -130t91 -78t145 -28.5v838h240v-838q158 8 227.5 113.5t69.5 332.5v381h236v-422q0 -145 -27 -256.5t-88.5 -187.5t-163.5 -117t-254 -43v-501h-111q-68 0 -98.5 27.5t-30.5 99.5v374q-160 2 -263 45t-162.5 120 t-83 183.5t-23.5 237.5z" />
<glyph unicode="&#x3a9;" horiz-adv-x="1447" d="M78 -61v194h190q-70 80 -108.5 187.5t-38.5 242.5v281q0 311 146.5 481t449.5 170q307 0 451.5 -170t144.5 -479v-283q0 -141 -39 -246.5t-107 -183.5h60q88 0 112.5 -28.5t24.5 -94.5v-71h-545v194h10q133 39 188.5 153.5t55.5 274.5v283q0 219 -88 332.5t-268 113.5 q-178 0 -267.5 -113.5t-89.5 -330.5v-283q0 -164 57.5 -278.5t192.5 -151.5h4v-194h-536z" />
<glyph unicode="&#x3aa;" horiz-adv-x="577" d="M-31 1599v244h248v-244h-248zM172 63v1403h242v-1527h-113q-70 0 -99.5 27.5t-29.5 96.5zM369 1599v244h247v-244h-247z" />
<glyph unicode="&#x3ab;" horiz-adv-x="1398" d="M33 1466h262l401 -694l404 694h262l-551 -919v-608h-106q-70 0 -102 26.5t-32 97.5v480zM375 1599v244h248v-244h-248zM774 1599v244h248v-244h-248z" />
<glyph unicode="&#x3ac;" horiz-adv-x="1245" d="M102 512q0 152 33 262.5t92.5 181t142.5 104.5t185 34q113 0 197 -36t137 -114q4 25 19.5 60.5t31.5 60.5h242q-23 -41 -48.5 -99.5t-46 -129t-33 -153.5t-12.5 -173q0 -102 14.5 -186t36 -155t49 -128t58.5 -102h-137q-61 0 -100 20.5t-60 73.5q-4 12 -7 18t-7 21 q-47 -86 -136 -124t-200 -38q-246 0 -348.5 152.5t-102.5 449.5zM338 512q0 -127 15.5 -207t46 -126t74.5 -62.5t101 -16.5q66 0 111 31t73.5 86t42 132t13.5 171q0 182 -59 281.5t-170 99.5q-57 0 -103.5 -17.5t-78 -62.5t-49 -119.5t-17.5 -189.5zM397 1196l176 299h250 l-186 -235q-29 -35 -57.5 -49.5t-81.5 -14.5h-101z" />
<glyph unicode="&#x3ad;" horiz-adv-x="1021" d="M96 272q0 86 49.5 158t135.5 102q-57 31 -101.5 92.5t-46.5 147.5q-2 100 38 163.5t103.5 98.5t142 47.5t158.5 12.5q78 0 167 -10.5t167 -32.5v-191q-168 41 -331 41q-109 0 -158 -29.5t-49 -95.5q0 -92 53 -125t176 -33h242v-131q0 -35 -7.5 -48t-54.5 -13h-180 q-137 0 -201.5 -33t-64.5 -123q0 -94 63.5 -130t190.5 -36q94 0 171 8.5t173 24.5l12 -112q4 -43 -19.5 -60.5t-70.5 -30.5q-20 -4 -93 -14t-171 -10q-121 0 -213 15.5t-154.5 55t-94.5 110.5t-32 181zM313 1196l176 299h250l-186 -235q-29 -35 -57.5 -49.5t-81.5 -14.5 h-101z" />
<glyph unicode="&#x3ae;" horiz-adv-x="1169" d="M143 66v999h494q109 0 183.5 -19.5t120.5 -62.5t65.5 -111.5t19.5 -164.5v-1166h-108q-68 0 -99 28t-31 99v1039q0 98 -32.5 132.5t-118.5 34.5h-256v-935h-105q-72 0 -102.5 27.5t-30.5 99.5zM346 1196l176 299h250l-186 -235q-29 -35 -57.5 -49.5t-82.5 -14.5h-100z " />
<glyph unicode="&#x3af;" horiz-adv-x="679" d="M111 1196l176 299h250l-187 -235q-29 -35 -57.5 -49.5t-81.5 -14.5h-100zM162 258v807h235v-807q0 -68 27 -96.5t84 -28.5q66 0 90.5 -29.5t24.5 -85.5v-79h-156q-84 0 -142.5 16t-94 54t-52 99.5t-16.5 149.5z" />
<glyph unicode="&#x3b0;" horiz-adv-x="1128" d="M123 348v717h235v-717q0 -68 11.5 -109.5t36 -66.5t61.5 -33t88 -8q111 0 159 48t48 161v725h235v-723q0 -199 -104.5 -301t-337.5 -102q-109 0 -189.5 20.5t-135 68.5t-81 125.5t-26.5 194.5zM156 1190v244h241v-244h-241zM426 1333l137 305h262l-159 -241 q-25 -37 -48.5 -50.5t-76.5 -13.5h-115zM723 1190v244h240v-244h-240z" />
<glyph unicode="&#x3b1;" horiz-adv-x="1245" d="M102 512q0 152 33 262.5t92.5 181t142.5 104.5t185 34q113 0 197 -36t137 -114q4 25 19.5 60.5t31.5 60.5h242q-23 -41 -48.5 -99.5t-46 -129t-33 -153.5t-12.5 -173q0 -102 14.5 -186t36 -155t49 -128t58.5 -102h-137q-61 0 -100 20.5t-60 73.5q-4 12 -7 18t-7 21 q-47 -86 -136 -124t-200 -38q-246 0 -348.5 152.5t-102.5 449.5zM338 512q0 -127 15.5 -207t46 -126t74.5 -62.5t101 -16.5q66 0 111 31t73.5 86t42 132t13.5 171q0 182 -59 281.5t-170 99.5q-57 0 -103.5 -17.5t-78 -62.5t-49 -119.5t-17.5 -189.5z" />
<glyph unicode="&#x3b2;" horiz-adv-x="1290" d="M150 -332v1342q0 252 131 368.5t381 116.5q123 0 213 -31.5t150 -87t89 -131.5t29 -164q0 -123 -60.5 -208t-148.5 -119q113 -35 187.5 -132.5t74.5 -242.5q0 -121 -37 -209t-102.5 -146.5t-156.5 -86t-200 -27.5q-88 0 -171 20.5t-146 67.5v-457h-109q-66 0 -95 28 t-29 99zM383 350q0 -121 78 -188.5t219 -67.5q139 0 207.5 77t68.5 200q0 135 -70.5 205.5t-230.5 70.5h-71v189q178 0 252.5 58t74.5 185q0 43 -13 85t-44 75t-80 53.5t-121 20.5q-78 0 -130 -21.5t-82.5 -59.5t-44 -92.5t-13.5 -121.5v-668z" />
<glyph unicode="&#x3b3;" horiz-adv-x="1200" d="M51 1065h254l297 -815l299 815h256l-440 -1104v-420h-107q-70 0 -100.5 26.5t-30.5 98.5v295z" />
<glyph unicode="&#x3b4;" horiz-adv-x="1163" d="M119 356v293q0 205 97 312.5t278 128.5l-240 202v174h715v-69q0 -51 -27 -86t-111 -35h-245l295 -256q72 -63 117.5 -149.5t45.5 -221.5v-293q0 -229 -116.5 -337.5t-345.5 -108.5q-223 0 -343 106.5t-120 339.5zM356 356q0 -123 58.5 -189.5t167.5 -66.5t167 63.5 t58 192.5v293q0 51 -12.5 97.5t-40 81t-69.5 54t-103 19.5q-104 0 -165 -63.5t-61 -188.5v-293z" />
<glyph unicode="&#x3b5;" horiz-adv-x="1021" d="M96 272q0 86 49.5 158t135.5 102q-57 31 -101.5 92.5t-46.5 147.5q-2 100 38 163.5t103.5 98.5t142 47.5t158.5 12.5q78 0 167 -10.5t167 -32.5v-191q-168 41 -331 41q-109 0 -158 -29.5t-49 -95.5q0 -92 53 -125t176 -33h242v-131q0 -35 -7.5 -48t-54.5 -13h-180 q-137 0 -201.5 -33t-64.5 -123q0 -94 63.5 -130t190.5 -36q94 0 171 8.5t173 24.5l12 -112q4 -43 -19.5 -60.5t-70.5 -30.5q-20 -4 -93 -14t-171 -10q-121 0 -213 15.5t-154.5 55t-94.5 110.5t-32 181z" />
<glyph unicode="&#x3b6;" horiz-adv-x="1007" d="M92 412q0 121 44 236.5t117 225t168 211t200 193.5h-373v188h674v-157q-127 -102 -235.5 -215t-187.5 -227.5t-124 -228.5t-45 -220q0 -111 42 -158t150 -55q70 -6 141.5 -21.5t129 -50.5t93.5 -91t36 -144q0 -164 -112 -260.5t-327 -96.5l17 195q80 10 136 43t56 98 q0 63 -48 91t-163 32q-115 2 -189.5 34t-118.5 86t-62.5 129t-18.5 163z" />
<glyph unicode="&#x3b7;" horiz-adv-x="1169" d="M143 66v999h494q109 0 183.5 -19.5t120.5 -62.5t65.5 -111.5t19.5 -164.5v-1166h-108q-68 0 -99 28t-31 99v1039q0 98 -32.5 132.5t-118.5 34.5h-256v-935h-105q-72 0 -102.5 27.5t-30.5 99.5z" />
<glyph unicode="&#x3b8;" horiz-adv-x="1245" d="M127 557v289q0 154 24.5 274.5t82 203.5t151.5 127t233 44q141 0 235.5 -44t151 -127t81 -204t24.5 -274v-291q0 -154 -22.5 -273.5t-79 -202.5t-151.5 -126t-239 -43q-141 0 -236 43t-151.5 126t-80 203.5t-23.5 274.5zM365 555q0 -109 11 -190.5t39.5 -139t77.5 -86 t125 -28.5q78 0 128.5 28.5t78 86t37.5 140.5t10 191v53h-507v-55zM365 803h507v45q0 98 -11 181t-39.5 141.5t-78 91t-125.5 32.5t-125 -32.5t-77.5 -92t-39.5 -141.5t-11 -182v-43z" />
<glyph unicode="&#x3b9;" horiz-adv-x="679" d="M162 258v807h235v-807q0 -68 27 -96.5t84 -28.5q66 0 90.5 -29.5t24.5 -85.5v-79h-156q-84 0 -142.5 16t-94 54t-52 99.5t-16.5 149.5z" />
<glyph unicode="&#x3ba;" horiz-adv-x="1163" d="M154 66v999h237v-1126h-106q-72 0 -101.5 27.5t-29.5 99.5zM438 543l410 522h276l-417 -524l440 -602h-266z" />
<glyph unicode="&#x3bb;" horiz-adv-x="1183" d="M129 66v593q0 180 96.5 276.5t284.5 90.5q43 -2 75.5 -3t61.5 -3t57.5 -4t65.5 -6v157q0 51 -30.5 90t-102.5 39h-315q-78 0 -110 26t-32 91v82h457q96 0 165.5 -26.5t116 -70.5t68 -103.5t21.5 -125.5v-1230h-107q-72 0 -101.5 27.5t-29.5 99.5v749q-70 8 -127 11 t-127 5q-76 2 -112.5 -39.5t-36.5 -134.5v-718h-107q-72 0 -101.5 27.5t-29.5 99.5z" />
<glyph unicode="&#x3bc;" horiz-adv-x="1169" d="M143 -334l2 1399h236v-743q0 -59 10 -96.5t32.5 -59t57.5 -28.5t84 -7h219v934h238v-1126h-457q-111 0 -184 20v-418h-107q-70 0 -100.5 26.5t-30.5 98.5z" />
<glyph unicode="&#x3bd;" horiz-adv-x="1060" d="M23 1065h229l280 -866q68 217 136.5 433t138.5 433h223l-373 -1126h-157q-55 0 -86 23.5t-49 76.5z" />
<glyph unicode="&#x3be;" horiz-adv-x="962" d="M86 371q0 147 49 262t160 186q-43 18 -77 52t-55.5 74t-32.5 83t-11 82q0 166 88 261t289 95h282v-69q0 -51 -27.5 -86t-111.5 -35h-127q-51 0 -82 -16.5t-48 -42t-22.5 -56.5t-5.5 -59q0 -31 8.5 -61.5t28 -54t51 -38t78.5 -14.5h248v-72q0 -51 -27.5 -86t-111.5 -35 h-90q-51 0 -91 -30.5t-68 -81.5t-43 -117t-15 -133q0 -59 22.5 -102.5t57 -73t79.5 -47t88 -23.5q166 -25 245 -96.5t79 -198.5q0 -150 -84 -223.5t-240 -73.5h-102v191h86q63 0 87 28.5t24 65.5q0 98 -152 117q-106 12 -186 39.5t-133.5 78t-80 126t-26.5 184.5z" />
<glyph unicode="&#x3bf;" horiz-adv-x="1175" d="M123 356v293q0 229 120 337t343 108q225 0 344 -107.5t119 -337.5v-293q0 -229 -117 -337.5t-346 -108.5q-223 0 -343 106.5t-120 339.5zM360 356q0 -123 58.5 -189.5t167.5 -66.5t167 63.5t58 192.5v293q0 51 -12.5 97.5t-40 81t-69.5 54t-103 19.5q-104 0 -165 -63.5 t-61 -188.5v-293z" />
<glyph unicode="&#x3c0;" horiz-adv-x="1212" d="M57 874v191h1059v-70q0 -51 -27.5 -86t-111.5 -35h-29v-618q0 -66 23.5 -95.5t70.5 -29.5h127v-78q0 -47 -29.5 -80.5t-117.5 -33.5q-172 0 -242.5 85t-70.5 232v618h-246v-935h-105q-70 0 -100.5 27.5t-30.5 99.5v808h-170z" />
<glyph unicode="&#x3c1;" horiz-adv-x="1210" d="M154 -330v979q0 229 119.5 337t342.5 108q225 0 344 -107.5t119 -337.5v-264q0 -229 -116.5 -337.5t-346.5 -108.5h-225v-398h-108q-70 0 -99.5 29t-29.5 100zM391 129h225q109 0 167.5 63.5t58.5 192.5v264q0 51 -12.5 97.5t-40 81t-69.5 54t-104 19.5 q-104 0 -164.5 -63.5t-60.5 -188.5v-520z" />
<glyph unicode="&#x3c2;" horiz-adv-x="1032" d="M86 489q0 131 46 238t130 182.5t202 115.5t259 40h215v-70q0 -51 -26.5 -86t-110.5 -35h-101q-92 0 -162.5 -29.5t-119.5 -79.5t-75 -118.5t-26 -146.5q0 -51 12.5 -94.5t43 -79t85 -66.5t138.5 -57q166 -49 252 -125t86 -211q0 -145 -102.5 -235.5t-294.5 -90.5h-207v74 q0 117 139 117h61q84 0 124 33.5t40 91.5q0 53 -33.5 89t-136.5 62q-211 53 -324.5 168t-113.5 313z" />
<glyph unicode="&#x3c3;" horiz-adv-x="1296" d="M129 356v293q0 229 120 337t343 108h661v-74q0 -25 -4 -46.5t-18 -37.5t-39 -25.5t-66 -9.5h-127q55 -98 56 -252v-293q0 -229 -117 -337.5t-346 -108.5q-223 0 -343 106.5t-120 339.5zM367 356q0 -123 57 -189.5t168 -66.5q106 0 165.5 63.5t59.5 192.5v293 q0 51 -12 96.5t-38 80t-69 55t-104 20.5q-106 0 -166.5 -63.5t-60.5 -188.5v-293z" />
<glyph unicode="&#x3c4;" horiz-adv-x="1030" d="M37 874v191h958v-70q0 -66 -23.5 -93.5t-109.5 -27.5h-227v-935h-111q-66 0 -96.5 27.5t-30.5 96.5v811h-360z" />
<glyph unicode="&#x3c5;" horiz-adv-x="1128" d="M123 348v717h235v-717q0 -68 11.5 -109.5t36 -66.5t61.5 -33t88 -8q111 0 159 48t48 161v725h235v-723q0 -199 -104.5 -301t-337.5 -102q-109 0 -189.5 20.5t-135 68.5t-81 125.5t-26.5 194.5z" />
<glyph unicode="&#x3c6;" horiz-adv-x="1335" d="M111 510q0 143 31.5 251.5t87 181.5t132 111t166.5 40v-207q-82 0 -131 -98.5t-49 -272.5q0 -184 50.5 -271t144.5 -118v621q0 346 297 346q176 0 279.5 -141.5t103.5 -403.5q0 -279 -112 -444.5t-335 -186.5q0 -88 -1 -188.5t-1 -188.5h-108q-66 0 -94.5 28t-28.5 97 v252q-100 8 -180 49t-136.5 114t-86 179.5t-29.5 249.5zM776 123q100 25 156.5 124t56.5 279q0 174 -43 267.5t-98 93.5q-47 0 -59.5 -33t-12.5 -104v-627z" />
<glyph unicode="&#x3c7;" horiz-adv-x="1320" d="M39 -459l487 768l-479 754h266l344 -551l344 551h269l-477 -754l485 -768h-272l-349 559l-348 -559h-270z" />
<glyph unicode="&#x3c8;" horiz-adv-x="1519" d="M131 520v545h231v-510q0 -106 10.5 -184t41 -129.5t84 -78t139.5 -28.5v930h237v-930q154 8 214.5 113.5t60.5 331.5v485h233v-526q0 -145 -22.5 -256t-80.5 -185.5t-156.5 -115.5t-248.5 -43v-398h-110q-66 0 -96.5 28t-30.5 99v271q-158 2 -257 45t-154.5 118.5 t-75 181t-19.5 236.5z" />
<glyph unicode="&#x3c9;" horiz-adv-x="1718" d="M106 483q0 88 13.5 172t37 160t55.5 139.5t69 110.5h223q-84 -156 -122 -296t-38 -294q0 -104 14.5 -175t42 -114t64.5 -62.5t84 -19.5q100 0 147 89.5t47 257.5v335h232v-335q0 -156 43 -251.5t151 -95.5q45 0 83 18.5t64.5 61.5t42 115t15.5 176q0 154 -39 300.5 t-121 289.5h224q80 -98 125 -249.5t45 -332.5q0 -164 -31 -274.5t-87 -177t-133 -94t-169 -27.5q-113 0 -193 38t-133 122q-53 -78 -139 -119t-197 -41q-96 0 -174 30.5t-132 98t-84 177.5t-30 267z" />
<glyph unicode="&#x3ca;" horiz-adv-x="679" d="M-41 1190v244h248v-244h-248zM162 258v807h235v-807q0 -68 27 -96.5t84 -28.5q66 0 90.5 -29.5t24.5 -85.5v-79h-156q-84 0 -142.5 16t-94 54t-52 99.5t-16.5 149.5zM358 1190v244h248v-244h-248z" />
<glyph unicode="&#x3cb;" horiz-adv-x="1128" d="M123 348v717h235v-717q0 -68 11.5 -109.5t36 -66.5t61.5 -33t88 -8q111 0 159 48t48 161v725h235v-723q0 -199 -104.5 -301t-337.5 -102q-109 0 -189.5 20.5t-135 68.5t-81 125.5t-26.5 194.5zM244 1190v244h248v-244h-248zM643 1190v244h248v-244h-248z" />
<glyph unicode="&#x3cc;" horiz-adv-x="1175" d="M123 356v293q0 229 120 337t343 108q225 0 344 -107.5t119 -337.5v-293q0 -229 -117 -337.5t-346 -108.5q-223 0 -343 106.5t-120 339.5zM356 1196l176 299h250l-186 -235q-29 -35 -57.5 -49.5t-81.5 -14.5h-101zM360 356q0 -123 58.5 -189.5t167.5 -66.5t167 63.5 t58 192.5v293q0 51 -12.5 97.5t-40 81t-69.5 54t-103 19.5q-104 0 -165 -63.5t-61 -188.5v-293z" />
<glyph unicode="&#x3cd;" horiz-adv-x="1128" d="M123 348v717h235v-717q0 -68 11.5 -109.5t36 -66.5t61.5 -33t88 -8q111 0 159 48t48 161v725h235v-723q0 -199 -104.5 -301t-337.5 -102q-109 0 -189.5 20.5t-135 68.5t-81 125.5t-26.5 194.5zM356 1196l176 299h250l-186 -235q-29 -35 -57.5 -49.5t-81.5 -14.5h-101z " />
<glyph unicode="&#x3ce;" horiz-adv-x="1718" d="M106 483q0 88 13.5 172t37 160t55.5 139.5t69 110.5h223q-84 -156 -122 -296t-38 -294q0 -104 14.5 -175t42 -114t64.5 -62.5t84 -19.5q100 0 147 89.5t47 257.5v335h232v-335q0 -156 43 -251.5t151 -95.5q45 0 83 18.5t64.5 61.5t42 115t15.5 176q0 154 -39 300.5 t-121 289.5h224q80 -98 125 -249.5t45 -332.5q0 -164 -31 -274.5t-87 -177t-133 -94t-169 -27.5q-113 0 -193 38t-133 122q-53 -78 -139 -119t-197 -41q-96 0 -174 30.5t-132 98t-84 177.5t-30 267zM651 1196l176 299h250l-186 -235q-29 -35 -57.5 -49.5t-81.5 -14.5h-101z " />
<glyph unicode="&#x3d0;" horiz-adv-x="1200" d="M135 375v700q0 211 124 315.5t341 104.5q127 0 214 -34t141.5 -89t78 -122.5t23.5 -135.5q0 -139 -52.5 -221t-117.5 -117q47 -18 88 -49t70.5 -78t47 -113.5t17.5 -154.5q0 -223 -114.5 -347t-364.5 -124q-98 0 -188.5 16.5t-159 66.5t-108.5 141t-40 241zM371 367 q0 -133 62.5 -203t199.5 -66q135 4 188 82t53 201q0 57 -10 109.5t-35.5 91.5t-70.5 62.5t-115 23.5h-74v194h68q92 0 138 62.5t46 171.5q0 86 -55 145t-170 59q-104 0 -164.5 -54t-60.5 -154v-725z" />
<glyph unicode="&#x3d1;" horiz-adv-x="1306" d="M129 328v581h236v-587q0 -123 58 -173.5t148 -50.5q279 0 297 543q-98 2 -184 28.5t-151.5 80t-102.5 134.5t-37 191q2 207 93.5 313.5t232.5 106.5q145 0 224 -59.5t115 -154.5t41 -213t3 -237h162v-71q0 -25 -4.5 -46.5t-18.5 -38t-38.5 -25.5t-65.5 -9h-35 q-4 -373 -134 -552t-397 -179q-92 0 -172 16.5t-140 62.5t-95 128t-35 211zM629 1075q0 -106 57 -172.5t180 -71.5q0 139 -10 251t-37 165q-18 37 -43.5 45t-48.5 6q-43 -2 -70.5 -54t-27.5 -169z" />
<glyph unicode="&#x3d2;" horiz-adv-x="1449" d="M51 1466h262l402 -694l264 455q37 61 67.5 107t70.5 75t97.5 43t143.5 14h61v-194h-63q-35 0 -55.5 -5t-39 -20.5t-37 -44t-44.5 -74.5l-351 -583v-606h-106q-70 0 -101.5 26.5t-31.5 97.5v480z" />
<glyph unicode="&#x3d3;" horiz-adv-x="1810" d="M-86 1167l176 299h250l-186 -235q-29 -35 -57.5 -49.5t-82.5 -14.5h-100zM393 1466h262l402 -694l264 455q37 61 67.5 107t70.5 75t97.5 43t143.5 14h61v-194h-63q-35 0 -55.5 -5t-39 -20.5t-37 -44t-44.5 -74.5l-351 -583v-606h-106q-70 0 -101.5 26.5t-31.5 97.5v480z " />
<glyph unicode="&#x3d4;" horiz-adv-x="1449" d="M51 1466h262l402 -694l264 455q37 61 67.5 107t70.5 75t97.5 43t143.5 14h61v-194h-63q-35 0 -55.5 -5t-39 -20.5t-37 -44t-44.5 -74.5l-351 -583v-606h-106q-70 0 -101.5 26.5t-31.5 97.5v480zM395 1599v244h248v-244h-248zM795 1599v244h247v-244h-247z" />
<glyph unicode="&#x3d5;" horiz-adv-x="1396" d="M123 424v158q0 254 115.5 383t334.5 153v359h238v-357q223 -25 338 -154.5t115 -383.5v-160q0 -254 -115 -383t-338 -154v-344h-109q-66 0 -97.5 28t-31.5 99v219q-219 25 -334.5 154t-115.5 383zM360 422q0 -154 51.5 -230.5t161.5 -99.5v819q-111 -29 -162 -111.5 t-51 -217.5v-160zM811 92q113 23 164 98.5t51 233.5v160q0 135 -51 217t-164 110v-819z" />
<glyph unicode="&#x3d6;" horiz-adv-x="1806" d="M51 874v191h1708v-72q0 -25 -4 -46t-18.5 -37.5t-39 -26t-65.5 -9.5h-53q66 -172 66 -391q0 -164 -31 -274.5t-87.5 -177t-133 -94t-168.5 -27.5q-113 0 -193 38t-133 122q-53 -78 -139 -119t-197 -41q-96 0 -174 30.5t-132 98t-84 177.5t-30 267q0 106 19.5 205.5 t52.5 185.5h-164zM381 475q0 -104 14.5 -175t42 -114t64.5 -62.5t84 -19.5q100 0 147 89.5t47 257.5v335h232v-335q0 -156 43 -251.5t151 -95.5q45 0 83 18.5t64.5 61.5t42 115t15.5 176t-17.5 202.5t-54.5 196.5h-886q-72 -194 -72 -399z" />
<glyph unicode="&#x3d7;" horiz-adv-x="1406" d="M66 -61l227 274v442q0 127 -19.5 173t-70.5 46h-127v191h166q74 0 128 -18.5t91 -64.5t55.5 -124t18.5 -196v-156l460 559h289l-201 -244v-598q0 -74 26 -94t69 -20h141v-226q0 -119 -24.5 -187.5t-69.5 -102t-105.5 -43t-134.5 -9.5h-151v74q0 117 139 117q61 0 90 34.5 t29 120.5v31q-55 8 -102.5 25.5t-80 50.5t-51 87t-18.5 136v309l-486 -587h-288z" />
<glyph unicode="&#x3d8;" horiz-adv-x="1439" d="M123 549v307q0 307 146.5 473t449.5 166q307 0 451.5 -166t144.5 -473v-309q0 -274 -115 -434t-356 -195v-377h-107q-72 0 -101.5 28t-29.5 99v250q-246 29 -364.5 190.5t-118.5 440.5zM362 547q0 -432 357 -432q356 0 356 434v309q0 94 -21.5 174t-66.5 138.5t-111.5 90 t-156.5 31.5q-88 0 -154.5 -31.5t-111.5 -90t-68 -138.5t-23 -176v-309z" />
<glyph unicode="&#x3d9;" horiz-adv-x="1175" d="M123 356v293q0 229 120 337t343 108q225 0 344 -107.5t119 -337.5v-293q0 -201 -88.5 -307t-262.5 -131v-377h-106q-70 0 -100.5 28t-30.5 99v252q-164 27 -251 132.5t-87 303.5zM360 356q0 -123 58.5 -189.5t167.5 -66.5t167 63.5t58 192.5v293q0 51 -12.5 97.5t-40 81 t-69.5 54t-103 19.5q-104 0 -165 -63.5t-61 -188.5v-293z" />
<glyph unicode="&#x3da;" horiz-adv-x="1265" d="M106 813q0 168 24 295t87.5 213t174 130t282.5 44q244 0 383 -99.5t139 -305.5h-238q0 51 -22.5 89t-59 63.5t-84 38.5t-98.5 13q-111 0 -177 -33.5t-102 -95t-47.5 -148.5t-11.5 -196q0 -94 18.5 -159.5t58.5 -111.5t102.5 -76t152.5 -50q92 -20 153.5 -49t99.5 -72 t53.5 -103.5t15.5 -146.5v-143h-109q-72 0 -101.5 28.5t-29.5 98.5q0 45 -4 73.5t-18.5 48t-42 32t-76.5 22.5q-135 31 -234.5 78t-163 118.5t-94.5 171t-31 232.5z" />
<glyph unicode="&#x3db;" horiz-adv-x="1011" d="M106 555q0 266 133.5 388t376.5 122h289v-72q0 -25 -4 -46t-19.5 -37.5t-43 -26t-76.5 -9.5h-168q-70 0 -119 -23.5t-79.5 -64.5t-44 -95t-13.5 -116q0 -121 44 -188.5t153 -101.5q92 -31 161.5 -63t114.5 -74t67.5 -98t22.5 -136q0 -98 -32.5 -168t-89 -116 t-130.5 -67.5t-153 -21.5h-148v74q0 117 139 117h23q72 0 118 49t46 133q0 63 -46 108.5t-126 67.5q-193 55 -294.5 168t-101.5 297z" />
<glyph unicode="&#x3dc;" horiz-adv-x="1189" d="M152 68v1398h991v-71q0 -53 -28 -88t-111 -35h-613v-430h686v-74q0 -51 -29.5 -85t-113.5 -34h-543v-710h-108q-72 0 -101.5 28.5t-29.5 100.5z" />
<glyph unicode="&#x3dd;" horiz-adv-x="1044" d="M147 -330v1395h822v-70q0 -51 -27 -86t-111 -35h-448v-430h520v-73q0 -49 -27.5 -84t-111.5 -35h-381v-711h-109q-70 0 -98.5 29t-28.5 100z" />
<glyph unicode="&#x3de;" horiz-adv-x="1329" d="M43 1278v188h145q184 0 262 -87t56 -253l-64 -464l535 442h199l-123 -807q-10 -76 13.5 -120t92.5 -44h129v-76q0 -25 -5 -46t-20.5 -37.5t-45 -25.5t-78.5 -9h-27q-82 0 -138 20.5t-91 57t-50.5 87t-15.5 109.5q0 23 2 45.5t6 44.5l74 485l-522 -440h-199l96 795 q8 70 -14 102.5t-88 32.5h-129z" />
<glyph unicode="&#x3df;" horiz-adv-x="1153" d="M63 614l277 852h240l-213 -659h729l-291 -868h-238l224 675h-728z" />
</font>
</defs>
</svg>
